/* XPM */
static char * C0_xpm[] = {
"50 50 149 2",
"  	c #232323",
". 	c #6E6E6E",
"+ 	c #494949",
"@ 	c #656565",
"# 	c #8C8C8C",
"$ 	c #000000",
"% 	c #6F6F6F",
"& 	c #7D7D7D",
"* 	c #726A2A",
"= 	c #6E6518",
"- 	c #686449",
"; 	c #928C68",
"> 	c #565027",
", 	c #9A8E30",
"' 	c #E5D33F",
") 	c #E6D544",
"! 	c #C7B946",
"~ 	c #C3B432",
"{ 	c #A19647",
"] 	c #FAE743",
"^ 	c #E4D33C",
"/ 	c #7F7748",
"( 	c #E8D74D",
"_ 	c #805F9A",
": 	c #A373C6",
"< 	c #9C5CC6",
"[ 	c #BA47F7",
"} 	c #BB43FA",
"| 	c #26424E",
"1 	c #495A62",
"2 	c #A451D6",
"3 	c #A655D7",
"4 	c #495E68",
"5 	c #2A5F72",
"6 	c #6B7A81",
"7 	c #4787A1",
"8 	c #469FC0",
"9 	c #369ABC",
"0 	c #307E9A",
"a 	c #AB4DE2",
"b 	c #AB4CE1",
"c 	c #46A5C7",
"d 	c #3FBCE5",
"e 	c #44BDE6",
"f 	c #486E7F",
"g 	c #43CDFA",
"h 	c #B14DEA",
"i 	c #B04AE9",
"j 	c #B149EB",
"k 	c #B24AEB",
"l 	c #329FC3",
"m 	c #38A1C4",
"n 	c #487E95",
"o 	c #658FA3",
"p 	c #2E738C",
"q 	c #B351EB",
"r 	c #0F3F4F",
"s 	c #274856",
"t 	c #67487F",
"u 	c #572A72",
"v 	c #B24DEA",
"w 	c #432756",
"x 	c #8D63AD",
"y 	c #AB3FE5",
"z 	c #AD44E6",
"A 	c #74309A",
"B 	c #9846C7",
"C 	c #7E47A1",
"D 	c #B04DE8",
"E 	c #7F6892",
"F 	c #AB3CE4",
"G 	c #9338C4",
"H 	c #50186E",
"I 	c #5A4968",
"J 	c #707070",
"K 	c #767676",
"L 	c #6D6D6D",
"M 	c #9262B5",
"N 	c #A957DB",
"O 	c #B14FE9",
"P 	c #B64BF1",
"Q 	c #B847F5",
"R 	c #B948F6",
"S 	c #B848F5",
"T 	c #B747F4",
"U 	c #B748F3",
"V 	c #B649F2",
"W 	c #BB45F9",
"X 	c #B848F4",
"Y 	c #B847F4",
"Z 	c #B947F6",
"` 	c #B946F6",
" .	c #B24DEB",
"..	c #AB56DD",
"+.	c #985FC0",
"@.	c #818181",
"#.	c #A86CD2",
"$.	c #B651EF",
"%.	c #BB44FA",
"&.	c #BA46F8",
"*.	c #B74FF1",
"=.	c #7E7388",
"-.	c #9673B1",
";.	c #9560BA",
">.	c #A45DD1",
",.	c #A457D4",
"'.	c #A35CD1",
").	c #A259D0",
"!.	c #A55BD4",
"~.	c #A659D7",
"{.	c #A858D9",
"].	c #AA54DD",
"^.	c #A952DC",
"/.	c #A755D9",
"(.	c #A65AD6",
"_.	c #A663D3",
":.	c #A05FCB",
"<.	c #9C62C4",
"[.	c #9765BB",
"}.	c #8E64AE",
"|.	c #87689E",
"1.	c #7D6C8B",
"2.	c #32243D",
"3.	c #320C46",
"4.	c #3E264E",
"5.	c #564962",
"6.	c #504957",
"7.	c #8947B1",
"8.	c #9C5BC7",
"9.	c #9346C0",
"0.	c #A545DB",
"a.	c #702597",
"b.	c #502969",
"c.	c #6A2E8C",
"d.	c #764895",
"e.	c #624877",
"f.	c #24353D",
"g.	c #486877",
"h.	c #18596E",
"i.	c #338DAC",
"j.	c #3CB2D9",
"k.	c #3CBBE4",
"l.	c #AC4DE2",
"m.	c #AD51E3",
"n.	c #45B4DB",
"o.	c #A656D8",
"p.	c #9955C4",
"q.	c #8C64A9",
"r.	c #C4B538",
"      . +       + + + .   +   +     + + + + @ # # # # @ . . + + + . + .         + + +   +   + +   $ ",
"+ +   +   + + . + + +   $           + + + + % # # # # % . +     . .     $   +   + +   +   $ $ $ $ + ",
"    + + + + . + + +           +   + . . + . & # # # # & + + + + +   + $     + +       $ $ $         ",
"  + + +   +   + + +   + + + +   +   + + + + @ # # # # % + + + + + +   $ +   +     * * = * *   + + + ",
"    + $ - ; * ; * > + . + .   +   + + . + + % # # # # % + +   . + + $         +   , ' ' ) , +       ",
"+ + + + ; ! ) ' ~ *   +   + + + + + . . + + % # # # # @   +     +   +   + + + + + { ] ] ] { . +     ",
"+ +     * ) ] ] ^ / + + + . + + + . . . +   % # # # # @ + + + +         +   +   + { ] ] ] { +     + ",
"+ +   + / ) ] ] ( / + + +   +   + + . +   + _ : : : : _ + .   +           +   + + { ' ) ) {     + + ",
". + + + * ! ' ) ! * + . + +   +   . +   +   < [ } } [ < . +   +         +     + . / / ; / * +   + + ",
"+ + + + - / / / * - | | 1 1 |     +   $     2 } } } } 3   + +   +   + 4 5 5 5 5 6 + +       + + + + ",
"+ .     + + + +     7 8 9 9 0   + . +       a } } } } b + + $ +       5 c d e c f + + +     + + + . ",
"+ +       +   +     7 g g g 7 + + + $       h } } } } i + + +     + $ 5 d g g e f +   +   + . + +   ",
"+ +     +     + + + 7 g g g 7 + + + $   +   j } } } } k +           + f d g g d f +     + . .   + + ",
"+       +           0 g g g 7 + +       + + i } } } } i   +       +   5 l d d m 5 +   + . +     + + ",
"  +   +   $ + + + + n o p p n + + +   + +   q } } } } i + +   +   +   r 5 5 5 5 s + . . + +   + +   ",
"    + + +   +       + + + . . + t t u u u + i } } } } v + w u t u t w     +   + .   + + + + $   + + ",
"  + + + $   +   +   . . + + + + x y z z A + i } } } } v   u B y z B u     + + .     + +         +   ",
"+       + +     + + + + + + + + A } } } C   v } } } } v $ t D } } z u + +   +     . + . + +   + + + ",
"    + +   + . + +   . + +   + + A } } } A + i } } } } i + E z } } F t     $   + + + .     +   . +   ",
"+ + + +   +         + + + + . + x z y y x + i } } } } v . t G F F G t +   +   +     +   . + +       ",
"+ + + .   +               + + . u t u t t   i } } } } v + w u t H u I     + + + + + +   +   + + +   ",
"+         $       + + + + +           $     i } } } } v               +     +   + + + +             ",
"J K K K L L J J M N O P Q R Q Q Q S T U U V W } } } } W V V V V U X Y Q Z ` V  ...+.K J J @.K J J J ",
"# # # # # # # # : } } } } } } } } } } } } } } } } } } } } } } } } } } } } } } } } #.# # # # # # # # ",
"# # # # # # # # : } } } } } } } } } } } } } } } } } } } } } } } } } } } } } } } } #.# # # # # # # # ",
"# # # # # # # # : } } } } } } } } } } } } } } } } } } } } } } } } } } } } } } } } #.# # # # # # # # ",
"# # # # # # # # : $.%.} } } } } } } } } } } } } } } } } } } } } } } } } } } %.&.*.#.# # # # # # # # ",
"K K L J J K J @.=.-.;.< >.,.'.'.).!.~.{.N ].Z } } } } Z ^.].].]./.(._.:.<.<.[.}.|.1.L K K K J L J J ",
"+     + +   + . + +     + +   +   + . + . + i } } } } i $ 2.3.4.5.5.6.+ + +         + + +         + ",
"    +   + + . +             + t C A A C u $ v } } } } v + t 7.8.9.7.t + +   $   + +   + +     + +   ",
"+ +         +   + + +   + +   t y } } y u   i } } } } v   E D } } y t +   $   +     . +     + + + + ",
"  + + + . + + +     +     + + u y } } z u   v } } } } i . t z } } y t +   + . +   + . +         +   ",
"  + + + +   +   + +       + + u y } } z H   i } } } } v . u 0.} } 0.t + +   +   + + +       + +     ",
"+ + + + + + + . + +   + + + $ u A a.A C t   v } } } } i   b.c.c.c.d.e.+   + + + + + + +   + + + + + ",
"+ + + + +   + + . 4 5 5 f 5 s         +   + i } } } } i       + + + + f.f f 5 f g.+ + + + + + +     ",
"  + + +     + +   f l e e c h.  + + +     + v } } } } v   + + + + +   | i.d e j.p     +     +       ",
"+   + + +         f d g g k.f         + + + v } } } } i     + + + +   | 9 g g g p +   +           + ",
"  + + +     +   + f d g g d f + +   +     + v } } } } v   + + + +     1 9 g g g n + .   + +     + + ",
"              + + f m k.d l 5 +       + + + l.} } } } m.+ + .   +   + 1 i.e d n.n .     +         + ",
"    + + + + + .   s 5 f f f 4 +     +   +   o.} } } } o.+ +     + +   f.5 h.f f g.      +   +   +   ",
"  + .   / / / * /       + + +     + +       < W } } W p.  +   +         $   +   + - * * * * - +     ",
"+ +     { ' ) ) , + + . +     + . +     + + q.#.#.#.#.q.+ +   +   +   $ +   +     / r.' ) r./   $ + ",
"+   + + , ] ] ] , + + +       . . + +   +   & # # # # %     + + + +     $ $   + + ; ^ ] ] ) * $ + . ",
"+ +     { ] ] ] , + .     + . +         +   % # # # # % +       + $     +   +   + / ^ ] ] ' * + + + ",
"      + , ) ' ) , + + +   + +     +   + + $ % # # # # @   +               $ + + + * ~ ' ' r.* + +   ",
". +   + ; / / / *     +   $   + + +   $     % # # # # % +     +   + + +   +     + - * = * / > + + + ",
"+ + . . + +           $       + + +         @ # # # # % + +   + + + + + +   +     + $ +   +   + +   ",
"+   +     + +   + + + + +   + + +   $   +   % # # # # %   + + + + . + . +   +   + +     +   +   + . ",
"+       . +       + +   +   + .     + +     @ # # # # @ . + + + + + +   +   +   + + +   +   +   . + ",
"  . + +   + +   +     + +   +         $     % # # # # %     +   + +     +     + $     +     + + . + "};
