/* XPM */
static char * C1_xpm[] = {
"50 50 157 2",
"  	c #232323",
". 	c #6E6E6E",
"+ 	c #494949",
"@ 	c #656565",
"# 	c #8C8C8C",
"$ 	c #000000",
"% 	c #6F6F6F",
"& 	c #7D7D7D",
"* 	c #5A4968",
"= 	c #572A72",
"- 	c #67487F",
"; 	c #50186E",
"> 	c #9746C7",
", 	c #B04DE8",
"' 	c #AB3EE5",
") 	c #A059CD",
"! 	c #432756",
"~ 	c #BB43FA",
"{ 	c #AD44E6",
"] 	c #7F6892",
"^ 	c #6493A9",
"/ 	c #6CB3D1",
"( 	c #575549",
"_ 	c #726A2A",
": 	c #7F7748",
"< 	c #686129",
"[ 	c #599BB7",
"} 	c #46CCF8",
"| 	c #43CDFA",
"1 	c #609EB9",
"2 	c #776B81",
"3 	c #4E4926",
"4 	c #B1A547",
"5 	c #E6D444",
"6 	c #E5D33E",
"7 	c #D9C83C",
"8 	c #8C822E",
"9 	c #55A5C4",
"0 	c #44CDFA",
"a 	c #54A4C3",
"b 	c #565027",
"c 	c #686449",
"d 	c #C0B246",
"e 	c #FAE743",
"f 	c #958B47",
"g 	c #58AECF",
"h 	c #53ACCE",
"i 	c #6E6518",
"j 	c #C4B538",
"k 	c #C7B946",
"l 	c #625E49",
"m 	c #4FB1D5",
"n 	c #50B2D6",
"o 	c #AC9F33",
"p 	c #928C68",
"q 	c #777048",
"r 	c #60B2D2",
"s 	c #C3B432",
"t 	c #495257",
"u 	c #486E7F",
"v 	c #2A5F72",
"w 	c #295768",
"x 	c #58AED0",
"y 	c #495A62",
"z 	c #5F9FBA",
"A 	c #3EBBE5",
"B 	c #44BDE6",
"C 	c #45B4DA",
"D 	c #2E738C",
"E 	c #263F4A",
"F 	c #477E95",
"G 	c #487589",
"H 	c #369ABC",
"I 	c #0C3746",
"J 	c #469CBC",
"K 	c #43C8F4",
"L 	c #5BA8C7",
"M 	c #206F89",
"N 	c #3CB2D9",
"O 	c #658FA3",
"P 	c #6C777D",
"Q 	c #469FC0",
"R 	c #6D7376",
"S 	c #486877",
"T 	c #31829E",
"U 	c #2E95B7",
"V 	c #52ABCD",
"W 	c #23282B",
"X 	c #26424E",
"Y 	c #707070",
"Z 	c #767676",
"` 	c #6D6D6D",
" .	c #6E787D",
"..	c #5FA3C0",
"+.	c #5BB0D2",
"@.	c #56B8DD",
"#.	c #51BEE5",
"$.	c #4FC1EA",
"%.	c #56C0E6",
"&.	c #50BEE5",
"*.	c #52BEE5",
"=.	c #4BC7F2",
"-.	c #4FBDE4",
";.	c #54B8DD",
">.	c #5CB1D2",
",.	c #5FA3BF",
"'.	c #6B93A6",
").	c #818181",
"!.	c #899196",
"~.	c #64BADC",
"{.	c #7AA5B9",
"].	c #63BBDE",
"^.	c #6BB4D3",
"/.	c #54C4ED",
"(.	c #4CC9F4",
"_.	c #48CBF7",
":.	c #49CAF6",
"<.	c #54C5ED",
"[.	c #818283",
"}.	c #72858F",
"|.	c #7993A0",
"1.	c #688D9F",
"2.	c #6692A6",
"3.	c #6999AF",
"4.	c #6692A7",
"5.	c #6B95A9",
"6.	c #5ABADF",
"7.	c #6390A5",
"8.	c #749BAE",
"9.	c #6A8796",
"0.	c #6C808B",
"a.	c #6B767D",
"b.	c #494B4D",
"c.	c #6C767C",
"d.	c #062631",
"e.	c #478AA5",
"f.	c #4794B1",
"g.	c #4DC0E8",
"h.	c #688492",
"i.	c #3597B8",
"j.	c #4D4C49",
"k.	c #4A4626",
"l.	c #9C9026",
"m.	c #BCAF46",
"n.	c #897E20",
"o.	c #BCAD36",
"p.	c #B8AA35",
"q.	c #F4E141",
"r.	c #56A5C4",
"s.	c #5CA7C6",
"t.	c #898048",
"u.	c #609FB9",
"v.	c #51C6F0",
"w.	c #5C8FA5",
"x.	c #698492",
"y.	c #9338C4",
"z.	c #AA3CE4",
"      . +       + + + .   +   +     + + + + @ # # # # @ . . + + + . + .         + + +   +   + +   $ ",
"+ +   +   + + . + + +   $           + + + + % # # # # % . +     . .     $   +   + +   +   $ $ $ $ + ",
"    + + + + . + + +           +   + . . + . & # # # # & + + + + +   + $     + +       $ $ $         ",
"  + + * = - = - * +   + + + +   +   + + + + @ # # # # % + + + + + +   $ +   +         $       + + + ",
"    + ; > , ' ) =   + . + .   +   + + . + + % # # # # % + +   . + + $         + ! = = = - ! +       ",
"+ + + - , ~ ~ ' ;     +   + + + + + . . + + % # # # # @   +     +   +   + + + + - > ' { > - . +     ",
"+ +   = ' ~ ~ ' ; + + + + . + + + . . . +   % # # # # @ + + + +         +   +   - { ~ ~ , - +     + ",
"+ +   - > { ' > ] + + + +   +   + + . +   + @ # # # # @ + .   +           +   + - { ~ ~ { -     + + ",
". + + * = - = - *   + . + +   +   . +   +   ^ / / / / ^ . +   +         +     + ] > { , > = +   + + ",
"+ + + + + + + +   ( _ _ : : <     +   $     [ } | | } 1   + +   +   + +         2 - - = = ! + + + + ",
"+ .     + + + +   3 4 5 6 7 8   + . +       9 0 | | 0 a + + $ +     b _ : _ : c + + + +     + + + . ",
"+ +       +   +   3 d e e e f + + + $       g | | | | h + + +     + i j 6 6 k : + +   +   + . + +   ",
"+ +     +     + + l d e e e f + + + $   +   m | | | | n +           : 5 e e 5 _ + +     + . .   + + ",
"+       +         3 o 5 5 7 f + +       + + h | | | | h   +       + _ 6 e e 6 _   +   + . +     + + ",
"  +   +   $ + + + ( : p _ _ q + + +   + +   r | | | | h + +   +   + _ s 6 6 j _   + . . + +   + +   ",
"    + + +   +       + + + . . t u u v v w + h | | | | x +     +   + b _ _ : _ c .   + + + + $   + + ",
"  + + + $   +   +   . . + + + y z A B C D + h | | | | x E D F D F G       + + .     + +         +   ",
"+       + +     + + + + + + + y H | | | F   x | | | | x I J | | K F   + +   +     . + . + +   + + + ",
"    + +   + . + +   . + +   + y H | | | D + h | | | | h y L | | | M +     $   + + + .     +   . +   ",
"+ + + +   +         + + + + . y z B A N O + h | | | | x P Q | | | D + +   +   +     +   . + +       ",
"+ + + .   +               + + R v u v u S   h | | | | x y T H Q U D +     + + + + + +   +   + + +   ",
"+         $       + + + + +           $     V | | | | x W X X X X E   +     +   + + + +             ",
"Y Z Z Z ` ` Y  ...+.@.#.$.%.&.&.&.*.&.&.&.&.=.| | | | =.*.*.&.&.-.*.&.*.*.&.&.;.>.,.'.Y Y ).Z Y Y Y ",
"# # # # # # # !.~.| | | | | | | | | | | | | | | | | | | | | | | | | | | | | | | | | {.# # # # # # # ",
"# # # # # # # !.].| | | | | | | | | | | | | | | | | | | | | | | | | | | | | | | | | {.# # # # # # # ",
"# # # # # # # !.].| | | | | | | | | | | | | | | | | | | | | | | | | | | | | | | | | {.# # # # # # # ",
"# # # # # # # !.^./.(._._.:.:.:.:.:.:.:.:.:.} | | | | } :.:.:.:.:.:.:.:.:.:.:.(.<.].{.# # # # # # # ",
"Z Z ` Y Y Z Y [.}.|.1.2.3.4.5.5.4.5.5.5.5.4.6.| | | | 6.7.4.4.4.4.5.8.5.5.5.5.1.9.0.a.Z Z Z Y ` Y Y ",
"+     + +   + . + +     + +   b.X y P y c.+ h | | | | h d.X I X y t + + + +         + + +         + ",
"    +   + + . +             + y e.H H J D $ x | | | | x u f.Q L f.u + + +   $   + +   + +     + +   ",
"+ +         +   + + +   + +   y H | | | D   h | | | | x v g.| | A v + +   $   +     . +     + + + + ",
"  + + + . + + +     +     + + X H | | | D   x | | | | h h.B | | A v + +   + . +   + . +         +   ",
"  + + + +   +   + +       + + X i.| | K M   h | | | | x h.N | | N u + + +   +   + + +       + +     ",
"+ + + + + + + . + +   + + + $ E D M D F G   x | | | | h w D D D D S + +   + + + + + + +   + + + + + ",
"+ + + + +   + + . j.3 3 l 3 k.        +   + h | | | | h       + + + c _ : : _ c + + + + + + + +     ",
"  + + +     + +   l l.d d m.n.  + + +     + x | | | | x   + + + + + _ j 6 6 k _       +     +       ",
"+   + + +         l o.e e e f         + + + x | | | | h     + + + + _ 6 e e 6 _   +   +           + ",
"  + + +     +   + l o.e e e f + +   +     + x | | | | x   + + + +   _ 5 e e 5 _ + + .   + +     + + ",
"              + + l p.e e q.8 +       + + + r.0 | | 0 s.+ + .   +   : k 6 5 j : + .     +         + ",
"    + + + + + .   k.8 f f f t.+     +   +   u.} | | } u.+ +     + + b _ _ i : c +       +   +   +   ",
"  + . ! - - - = *       + + +     + +       ^ v.| | v.w.  +   +         $   +   * - = = = ! + +     ",
"+ +   = > ' { > = + + . +     + . +     + + x.{.{.{.{.x.+ +   +   +   $ +   +   = > ' ' > = +   $ + ",
"+   + - ' ~ ~ { = + + +       . . + +   +   & # # # # %     + + + +     $ $   + - , ~ ~ ' -   $ + . ",
"+ +   = { ~ ~ ' = + .     + . +         +   % # # # # % +       + $     +   +   - { ~ ~ { =   + + + ",
"      - y.{ ' > = + + +   + +     +   + + $ % # # # # @   +               $ + + - y.z.' y.=   + +   ",
". +   * ] - - - !     +   $   + + +   $     % # # # # % +     +   + + +   +     * - = ; = *   + + + ",
"+ + . . + +           $       + + +         @ # # # # % + +   + + + + + +   +     + $ +   +   + +   ",
"+   +     + +   + + + + +   + + +   $   +   % # # # # %   + + + + . + . +   +   + +     +   +   + . ",
"+       . +       + +   +   + .     + +     @ # # # # @ . + + + + + +   +   +   + + +   +   +   . + ",
"  . + +   + +   +     + +   +         $     % # # # # %     +   + +     +     + $     +     + + . + "};
