/* XPM */
static char * C2_xpm[] = {
"50 50 124 2",
"  	c #232323",
". 	c #6E6E6E",
"+ 	c #494949",
"@ 	c #656565",
"# 	c #8C8C8C",
"$ 	c #000000",
"% 	c #6F6F6F",
"& 	c #7D7D7D",
"* 	c #495E68",
"= 	c #2A5F72",
"- 	c #486E7F",
"; 	c #18596E",
"> 	c #46A5C7",
", 	c #4DC0E8",
"' 	c #3EBBE5",
") 	c #59ACCD",
"! 	c #A9A064",
"~ 	c #D1C46C",
"{ 	c #295768",
"] 	c #2E738C",
"^ 	c #477E95",
"/ 	c #43CDFA",
"( 	c #B9AE60",
"_ 	c #F8E546",
": 	c #FAE743",
"< 	c #B7AB59",
"[ 	c #45B4DA",
"} 	c #C6B95C",
"| 	c #FAE744",
"1 	c #C4B655",
"2 	c #44BDE6",
"3 	c #688492",
"4 	c #CEBF53",
"5 	c #D7C855",
"6 	c #4794B1",
"7 	c #469FC0",
"8 	c #5BA8C7",
"9 	c #5A4968",
"0 	c #572A72",
"a 	c #67487F",
"b 	c #432756",
"c 	c #D0C158",
"d 	c #6D7376",
"e 	c #495A62",
"f 	c #26424E",
"g 	c #24353D",
"h 	c #9746C7",
"i 	c #AD44E6",
"j 	c #AB3EE5",
"k 	c #9338C4",
"l 	c #CDBF52",
"m 	c #BB43FA",
"n 	c #50186E",
"o 	c #7F6892",
"p 	c #D2C460",
"q 	c #9132C3",
"r 	c #575549",
"s 	c #7F7748",
"t 	c #726A2A",
"u 	c #686129",
"v 	c #4E4926",
"w 	c #625E49",
"x 	c #BAAF5F",
"y 	c #E5D33E",
"z 	c #E6D444",
"A 	c #DACA45",
"B 	c #8C822E",
"C 	c #9A8E30",
"D 	c #C0B246",
"E 	c #BCAD36",
"F 	c #A19647",
"G 	c #958B47",
"H 	c #ADA363",
"I 	c #978B25",
"J 	c #D9C83C",
"K 	c #A39A65",
"L 	c #76756D",
"M 	c #777048",
"N 	c #897E20",
"O 	c #707070",
"P 	c #767676",
"Q 	c #6D6D6D",
"R 	c #AAA065",
"S 	c #BAAE60",
"T 	c #D1C35C",
"U 	c #D8C959",
"V 	c #D3C563",
"W 	c #D0C259",
"X 	c #EBD950",
"Y 	c #EBDA51",
"Z 	c #CFC157",
"` 	c #BCB065",
" .	c #A9A065",
"..	c #969170",
"+.	c #818181",
"@.	c #F0DE51",
"#.	c #B9B07A",
"$.	c #BFB46D",
"%.	c #C7BB61",
"&.	c #D7C856",
"*.	c #BAAE61",
"=.	c #918B68",
"-.	c #4F480E",
";.	c #6E6518",
">.	c #686449",
",.	c #46400C",
"'.	c #C7B946",
").	c #E8D74D",
"!.	c #928C68",
"~.	c #BAAC2F",
"{.	c #C4B538",
"].	c #565027",
"^.	c #AA3CE4",
"/.	c #274856",
"(.	c #495257",
"_.	c #38A1C4",
":.	c #369ABC",
"<.	c #BEB36A",
"[.	c #928C69",
"}.	c #8D8660",
"|.	c #3CB2D9",
"1.	c #6B7981",
"2.	c #486877",
"3.	c #206F89",
"      . +       + + + .   +   +     + + + + @ # # # # @ . . + + + . + .         + + +   +   + +   $ ",
"+ +   +   + + . + + +   $           + + + + % # # # # % . +     . .     $   +   + +   +   $ $ $ $ + ",
"    + + + + . + + +           +   + . . + . & # # # # & + + + + +   + $     + +       $ $ $         ",
"  + + * = - = - * +   + + + +   +   + + + + @ # # # # % + + + + + +   $ +   +         $       + + + ",
"    + ; > , ' ) =   + . + .   +   + + . + + ! ~ ~ ~ ~ ! + +   . + + $         + { ] ] ] ^ { +       ",
"+ + + - , / / ' ;     +   + + + + + . . + + ( _ : : _ <   +     +   +   + + + + - [ / / [ - . +     ",
"+ +   = ' / / ' ; + + + + . + + + . . . +   } | : : | 1 + + + +         +   +   - 2 / / , - +     + ",
"+ +   - > 2 ' > 3 + + + +   +   + + . +   + 4 : : : : 4 + .   +           +   + - 2 / / 2 -     + + ",
". + + * = - = - *   + . + +   +   . +   +   5 : : : : 5 . +   +         +     + 3 6 7 8 6 = +   + + ",
"+ + + + + + + +   9 0 0 a a b     +   $     4 : : : : c   + +   +   + +         d e e f f g + + + + ",
"+ .     + + + +   0 h i j k 0   + . +       4 : : : : l + + $ +     b 0 a 0 a 9 + + + +     + + + . ",
"+ +       +   +   0 i m m j a + + + $       c : : : : 4 + + +     + n k j j h a + +   +   + . + +   ",
"+ +     +     + + a i m m i a + + + $   +   l : : : : 4 +           a i m m i 0 + +     + . .   + + ",
"+       +         0 k i i k a + +       + + 4 : : : : 4   +       + 0 j m m j 0   +   + . +     + + ",
"  +   +   $ + + + 9 a o 0 0 9 + + +   + +   p : : : : 4 + +   +   + 0 q j j k 0   + . . + +   + +   ",
"    + + +   +       + + + . . r s s t t u + 4 : : : : c + v v w v w b 0 0 a 0 9 .   + + + + $   + + ",
"  + + + $   +   +   . . + + + w x y z A B + 4 : : : : c   C D E D F       + + .     + +         +   ",
"+       + +     + + + + + + + w E : : : G   c : : : : c $ F : : : F   + +   +     . + . + +   + + + ",
"    + +   + . + +   . + +   + w E : : : B + 4 : : : : 4 + H : : : I +     $   + + + .     +   . +   ",
"+ + + +   +         + + + + . w x z y J K + 4 : : : : c . F : : : C + +   +   +     +   . + +       ",
"+ + + .   +               + + L t s t s M   4 : : : : c + B B G N B +     + + + + + +   +   + + +   ",
"+         $       + + + + +           $     l : : : : c               +     +   + + + +             ",
"O P P P Q Q R S } T U T T V W W W T W W W W X : : : : Y T T W W Z T W T T W W } `  ...O O +.P O O O ",
"# # # # # # ~ _ | : : : : : : : : : : : : : : : : : : : : : : : : : : : : : : | _ @.#.# # # # # # # ",
"# # # # # # ~ : : : : : : : : : : : : : : : : : : : : : : : : : : : : : : : : : : : #.# # # # # # # ",
"# # # # # # ~ : : : : : : : : : : : : : : : : : : : : : : : : : : : : : : : : : : : #.# # # # # # # ",
"# # # # # # ~ _ | : : : : : : : : : : : : : : : : : : : : : : : : : : : : : : | _ @.#.# # # # # # # ",
"P P Q O O P R $.%.V &.W T W T T W T T T T W Y : : : : Y Z W W W W T V T T T T } *. .=.P P P O Q O O ",
"+     + +   + . + +     + +   +   + . + . + 4 : : : : 4 -.t ;.t s >.+ + + +         + + +         + ",
"    +   + + . +             + + G C C F C ,.c : : : : c s '.z ).'.s + + +   $   + +   + +     + +   ",
"+ +         +   + + +   + +   + B : : : E v 4 : : : : c t ).: : y t + +   $   +     . +     + + + + ",
"  + + + . + + +     +     + +   B : : : E v c : : : : 4 !.z : : y t + +   + . +   + . +         +   ",
"  + + + +   +   + +       + +   B : : : ~.v 4 : : : : c !.{.z z {.s + + +   +   + + +       + +     ",
"+ + + + + + + . + +   + + + $   B I C F F v c : : : : 4 ].t t t t >.+ +   + + + + + + +   + + + + + ",
"+ + + + +   + + . + b 0 a 0 0 b       +   + 4 : : : : 4       + + + 9 0 a a 0 9 + + + + + + + +     ",
"  + + +     + +   + n h i i q 0 + + +     + c : : : : c   + + + + + 0 k j j h 0       +     +       ",
"+   + + +         + 0 i m m i 0       + + + c : : : : 4     + + + + 0 j m m j 0   +   +           + ",
"  + + +     +   + + 0 ^.m m i a +   +     + c : : : : c   + + + +   0 i m m i 0 + + .   + +     + + ",
"              + + + 0 q j ^.k a       + + + 4 : : : : c + + .   +   a h j i k a + .     +         + ",
"    + + + + + .     b a a a a 9     +   +   c : : : : c + +     + + b 0 0 n a 9 +       +   +   +   ",
"  + .   * - - = - /.    + + +     + +       c : : : : 4   +   +         $   +   (.e f f f g + +     ",
"+ +     - _.2 2 _.- + . +     + . +     + + } | : : | } + +   +   +   $ +   +   = 6 :.:.6 = +   $ + ",
"+   + + = 2 / / ' - + +       . . + +   +   <._ : : _ (     + + + +     $ $   + - , / / ' -   $ + . ",
"+ +     - , / / ' - .     + . +         +   ! @.: : @.! +       + $     +   +   - 2 / / 2 =   + + + ",
"      + = > ' 2 _.- + +   + +     +   + + $ [.#.#.#.#.}.  +               $ + + - |./ / |.=   + +   ",
". +   + 1.- - - = /.  +   $   + + +   $     % # # # # % +     +   + + +   +     2.^ ] 3.] 2.  + + + ",
"+ + . . + +           $       + + +         @ # # # # % + +   + + + + + +   +     + $ +   +   + +   ",
"+   +     + +   + + + + +   + + +   $   +   % # # # # %   + + + + . + . +   +   + +     +   +   + . ",
"+       . +       + +   +   + .     + +     @ # # # # @ . + + + + + +   +   +   + + +   +   +   . + ",
"  . + +   + +   +     + +   +         $     % # # # # %     +   + +     +     + $     +     + + . + "};
