/* XPM */
static char * E0_xpm[] = {
"50 50 198 2",
"  	c #232323",
". 	c #6E6E6E",
"+ 	c #494949",
"@ 	c #656565",
"# 	c #8C8C8C",
"$ 	c #000000",
"% 	c #6F6F6F",
"& 	c #7D7D7D",
"* 	c #626262",
"= 	c #706F6F",
"- 	c #8F8B8B",
"; 	c #2A2335",
"> 	c #584755",
", 	c #725B8B",
"' 	c #9B8292",
") 	c #9E8487",
"! 	c #97858D",
"~ 	c #9D828E",
"{ 	c #726166",
"] 	c #4F4949",
"^ 	c #272323",
"/ 	c #805BA2",
"( 	c #953C6A",
"_ 	c #9A508C",
": 	c #D06368",
"< 	c #C84B9D",
"[ 	c #A552C4",
"} 	c #B461A4",
"| 	c #8A49C2",
"1 	c #845C9E",
"2 	c #514848",
"3 	c #683AA2",
"4 	c #97329C",
"5 	c #C80F75",
"6 	c #C128AC",
"7 	c #F91939",
"8 	c #BA08CE",
"9 	c #CE0EB5",
"0 	c #CE419D",
"a 	c #BF4095",
"b 	c #9C24BE",
"c 	c #561C92",
"d 	c #322323",
"e 	c #25232F",
"f 	c #501C9B",
"g 	c #7600CD",
"h 	c #A90BB8",
"i 	c #E50187",
"j 	c #C600C0",
"k 	c #DD009C",
"l 	c #E10095",
"m 	c #D100B1",
"n 	c #ED0078",
"o 	c #E2078F",
"p 	c #B50CA7",
"q 	c #7216B2",
"r 	c #521E7C",
"s 	c #707070",
"t 	c #767676",
"u 	c #6D6D6D",
"v 	c #818181",
"w 	c #766F92",
"x 	c #8054B9",
"y 	c #9632D6",
"z 	c #BC06CB",
"A 	c #E00096",
"B 	c #B100D7",
"C 	c #7600FE",
"D 	c #DD009D",
"E 	c #E00097",
"F 	c #ED0077",
"G 	c #BF00C8",
"H 	c #F10F61",
"I 	c #983BD1",
"J 	c #8D6773",
"K 	c #707071",
"L 	c #8C8C8D",
"M 	c #8C82A1",
"N 	c #B4787D",
"O 	c #A526DB",
"P 	c #E5008D",
"Q 	c #E60089",
"R 	c #CD00B6",
"S 	c #F20066",
"T 	c #C400C3",
"U 	c #BD00CB",
"V 	c #E90082",
"W 	c #CD459C",
"X 	c #B76F87",
"Y 	c #96868F",
"Z 	c #8982A5",
"` 	c #8F839C",
" .	c #A450C6",
"..	c #7E01FA",
"+.	c #F90047",
"@.	c #A700E0",
"#.	c #F1006C",
"$.	c #D900A3",
"%.	c #EB007E",
"&.	c #E70087",
"*.	c #C400C2",
"=.	c #E80085",
"-.	c #CF0DB3",
";.	c #C35998",
">.	c #988490",
",.	c #977F9A",
"'.	c #BB52AB",
").	c #A00BE5",
"!.	c #D100B2",
"~.	c #F20068",
"{.	c #9E00E7",
"].	c #EC007C",
"^.	c #FC0035",
"/.	c #E90083",
"(.	c #E21090",
"_.	c #B85DA2",
":.	c #866AC7",
"<.	c #8C8993",
"[.	c #9477AC",
"}.	c #BC4EAD",
"|.	c #A40FE1",
"1.	c #CF00B4",
"2.	c #E4008F",
"3.	c #D400AC",
"4.	c #EF0071",
"5.	c #D700A7",
"6.	c #C200C5",
"7.	c #BB00CD",
"8.	c #BF0FC7",
"9.	c #B5679C",
"0.	c #8A7CAE",
"a.	c #706E7A",
"b.	c #7E679E",
"c.	c #8126EE",
"d.	c #C03EA1",
"e.	c #B800D0",
"f.	c #DE009B",
"g.	c #D74254",
"h.	c #956479",
"i.	c #716E78",
"j.	c #262332",
"k.	c #5E4656",
"l.	c #A05A84",
"m.	c #A7376A",
"n.	c #CA1BAF",
"o.	c #DC009F",
"p.	c #C000C7",
"q.	c #EE0073",
"r.	c #F30062",
"s.	c #EF0062",
"t.	c #B41092",
"u.	c #430040",
"v.	c #2A2243",
"w.	c #4B4949",
"x.	c #4D2151",
"y.	c #6F1C81",
"z.	c #824159",
"A.	c #941887",
"B.	c #E7004F",
"C.	c #8A00F4",
"D.	c #EB007D",
"E.	c #C500C2",
"F.	c #A406E1",
"G.	c #C52C63",
"H.	c #953B66",
"I.	c #554568",
"J.	c #260000",
"K.	c #372253",
"L.	c #5E1A9F",
"M.	c #8715A6",
"N.	c #970FBB",
"O.	c #7400FF",
"P.	c #D020AD",
"Q.	c #E52C7B",
"R.	c #AA17DA",
"S.	c #CC5E80",
"T.	c #B539AE",
"U.	c #961883",
"V.	c #82628C",
"W.	c #6E6D73",
"X.	c #2F2323",
"Y.	c #594565",
"Z.	c #6E19A1",
"`.	c #88188C",
" +	c #8754B0",
".+	c #9D69B6",
"++	c #A06CB0",
"@+	c #9C6BB4",
"#+	c #9A78A2",
"$+	c #934E96",
"%+	c #7C6A6E",
"&+	c #0D0000",
"*+	c #36232F",
"=+	c #805D73",
"-+	c #936FB6",
";+	c #997AA0",
">+	c #9C8686",
",+	c #746E6E",
"      . +       + + + .   +   +     + + + + @ # # # # @ . . + + + . + .         + + +   +   + +   $ ",
"+ +   +   + + . + + +   $           + + + + % # # # # % . +     . .     $   +   + +   +   $ $ $ $ + ",
"    + + + + . + + +           +   + . . + . & # # # # & + + + + +   + $     + +       $ $ $         ",
"  + + +   +   + + +   + + + +   +   + + + + @ # # # # % + + + + + +   $ +   +         $       + + + ",
"    + $ + .   .     + . + .   +   + + . + + % # # # # % + +   . + + $         +         +   +       ",
"+ + + + . + +   $     +   + + + + + . . + + % # # # # @   +     +   +   + + + + + +   + + + . +     ",
"+ +       +     $ + + + + . + + + . . . +   % # # # # @ + + + +         +   +   + + + + . + +     + ",
"+ +   + + +   + . + + + +   +   + + . +   + @ # # # # @ + .   +           +   + + +   + + +     + + ",
". + + +   +   + +   + . + +   +   . +   +   % # # # # % . +   +         +     + . + + . +   +   + + ",
"+ + + + + + + +   +     + +       +   $     @ # # # # %   + +   +   + +         . + +       + + + + ",
"+ .     + + + +     + +         + . +       @ # # # # * + + $ +         +   + + + + + +     + + + . ",
"+ +       +   +     + + .   + + + + $       % # # # # @ + + +     + $       + + + +   +   + . + +   ",
"+ +     +     + + + + +   + + + + + $   +   * # # # # @ +           + +     +   + +     + . .   + + ",
"+       +             + +   + + +       + + @ # # # # @   +       +     $         +   + . +     + + ",
"  +   +   $ + + + + + .     + + + +   + +   & # # # # @ + +   +   +   $           + . . + +   + +   ",
"    + + +   +       + + + . . + + +       + @ # # # # % +     +   +       +   + .   + + + + $   + + ",
"  + + + $   +   +   . . + + + + .   + +   + @ # # # # %     +   + +       + + .     + +         +   ",
"+       + +     + + + + + + + +   + + + +   = - # # # % $ + . + + +   + +   +     . + . + +   + + + ",
"    + +   + . + +   . + +   + +   .   + ; > , ' ) ! ~ { ] . + + + $ +     $   + + + .     +   . +   ",
"+ + + +   +         + + + + . + . +   ^ / ( _ : < [ } | 1 2   $ $   + +   +   +     +   . + +       ",
"+ + + .   +               + + .   +   3 4 5 6 7 8 9 0 a b c d + $   +     + + + + + +   +   + + +   ",
"+         $       + + + + +       e f g h i j k l m n o p q r         +     +   + + + +             ",
"s t t t u u s s s t t t t v s s s w x y z A B C D E F G H I J K u t s t t s s s t s t s s v t s s s ",
"# # # # # # # # # # # # # # # # L M N O P Q Q R S T U V k W X Y # # # # # # # # # # # # # # # # # # ",
"# # # # # # # # # # # # # # # # Z `  ...+.@.#.$.%.G &.*.=.-.;.>.# # # # # # # # # # # # # # # # # # ",
"# # # # # # # # # # # # # # # # L ,.'.).!.l ~.#.{.].S ^./.(._.:.# # # # # # # # # # # # # # # # # # ",
"# # # # # # # # # # # # # # # # <.[.}.|.m 1.2.l 3.4.5.6.7.8.9.0.# # # # # # # # # # # # # # # # # # ",
"t t u s s t s v t v s s t s t t a.b.c.d.*.e.1.&.B P f.F 3.g.h.i.s t v t t t t s s s u t t t s u s s ",
"+     + +   + . + +     + +   + j.k.l.m.n.o.p.3.q.r.m m s.t.u.v.+ + + + + +         + + +         + ",
"    +   + + . +             + + w.x.y.z.A.B.C.V %.D.E.F.G.H.I.. + + + + +   $   + +   + +     + +   ",
"+ +         +   + + +   + +   + ^ J.K.L.M.N.O.P.Q.R.S.T.U.V.W..     + +   $   +     . +     + + + + ",
"  + + + . + + +     +     + +       X.Y.Z.`. +.+++@+#+$+%++ + +     + +   + . +   + . +         +   ",
"  + + + +   +   + +       + +     $   + &+*+=+-+;+>+- ,+.   + +   + + + +   +   + + +       + +     ",
"+ + + + + + + . + +   + + + $     $   + +   % # # # # @           + + +   + + + + + + +   + + + + + ",
"+ + + + +   + + . +     +             +   + @ # # # # @       + + + +   + +   + + + + + + + + +     ",
"  + + +     + +   + $ + + + $   + + +     + % # # # # %   + + + + +         +         +     +       ",
"+   + + +         +   +   $ +         + + + % # # # # @     + + + +       +       +   +           + ",
"  + + +     +   + +   $     + + +   +     + % # # # # %   + + + +     +     +   + + .   + +     + + ",
"              + + +   $   $   +       + + + @ # # # # % + + .   +   + +   +   + + .     +         + ",
"    + + + + + .       + + + + +     +   +   % # # # # % + +     + +       $ + + +       +   +   +   ",
"  + .   + + +   +       + + +     + +       % # # # # @   +   +         $   +   + +         + +     ",
"+ +     +   + +   + + . +     + . +     + + % # # # # % + +   +   +   $ +   +     +     +   +   $ + ",
"+   + +   +   +   + + +       . . + +   +   & # # # # %     + + + +     $ $   + + . $     +   $ + . ",
"+ +     + . +     + .     + . +         +   % # # # # % +       + $     +   +   + + $ $ +     + + + ",
"      +   +   +   + + +   + +     +   + + $ % # # # # @   +               $ + + +   $         + +   ",
". +   + . + + +       +   $   + + +   $     % # # # # % +     +   + + +   +     + +   $   +   + + + ",
"+ + . . + +           $       + + +         @ # # # # % + +   + + + + + +   +     + $ +   +   + +   ",
"+   +     + +   + + + + +   + + +   $   +   % # # # # %   + + + + . + . +   +   + +     +   +   + . ",
"+       . +       + +   +   + .     + +     @ # # # # @ . + + + + + +   +   +   + + +   +   +   . + ",
"  . + +   + +   +     + +   +         $     % # # # # %     +   + +     +     + $     +     + + . + "};
