/* XPM */
static char * E1_xpm[] = {
"50 50 411 2",
"  	c #232323",
". 	c #6E6E6E",
"+ 	c #494949",
"@ 	c #656565",
"# 	c #8C8C8C",
"$ 	c #000000",
"% 	c #6F6F6F",
"& 	c #7D7D7D",
"* 	c #626262",
"= 	c #4B4949",
"- 	c #2F2323",
"; 	c #524848",
"> 	c #634747",
", 	c #4B2222",
"' 	c #857B7B",
") 	c #928A8A",
"! 	c #8F8B8B",
"~ 	c #696464",
"{ 	c #4F4949",
"] 	c #5A4848",
"^ 	c #764444",
"/ 	c #732020",
"( 	c #811E1E",
"_ 	c #A61A1A",
": 	c #A23D3D",
"< 	c #8B5D5D",
"[ 	c #9B8686",
"} 	c #978888",
"| 	c #A28383",
"1 	c #9C6363",
"2 	c #A53B3B",
"3 	c #4F2222",
"4 	c #564848",
"5 	c #272323",
"6 	c #574848",
"7 	c #916666",
"8 	c #941D1D",
"9 	c #944040",
"0 	c #894141",
"a 	c #881E1E",
"b 	c #9F3D3D",
"c 	c #A45656",
"d 	c #BA7676",
"e 	c #C76D6D",
"f 	c #CF6666",
"g 	c #D36363",
"h 	c #BE5555",
"i 	c #AB1919",
"j 	c #B41818",
"k 	c #AE3939",
"l 	c #891E1E",
"m 	c #6C4646",
"n 	c #594848",
"o 	c #884242",
"p 	c #BC1717",
"q 	c #D32C2C",
"r 	c #C63131",
"s 	c #BA3636",
"t 	c #B33838",
"u 	c #BE1616",
"v 	c #CE4C4C",
"w 	c #E84A4A",
"x 	c #EB4545",
"y 	c #DB5B5B",
"z 	c #D65F5F",
"A 	c #D34848",
"B 	c #CD0000",
"C 	c #D22C2C",
"D 	c #E33A3A",
"E 	c #DE2626",
"F 	c #754545",
"G 	c #352323",
"H 	c #7B4444",
"I 	c #A23C3C",
"J 	c #951D1D",
"K 	c #AC5C5C",
"L 	c #B61818",
"M 	c #D82929",
"N 	c #E00D0D",
"O 	c #E02525",
"P 	c #EB2B2B",
"Q 	c #EF3F3F",
"R 	c #F33535",
"S 	c #F72C2C",
"T 	c #ED4242",
"U 	c #D04141",
"V 	c #B33737",
"W 	c #CA4D4D",
"X 	c #C73030",
"Y 	c #C03434",
"Z 	c #B23838",
"` 	c #830000",
" .	c #604747",
"..	c #514848",
"+.	c #B95757",
"@.	c #C83131",
"#.	c #BE5454",
"$.	c #C93030",
"%.	c #DC0F0F",
"&.	c #F10707",
"*.	c #F81D1D",
"=.	c #EC1C1C",
"-.	c #E23535",
";.	c #E84949",
">.	c #FA2020",
",.	c #FA2222",
"'.	c #F72B2B",
").	c #E43B3B",
"!.	c #ED3030",
"~.	c #F11717",
"{.	c #D01212",
"].	c #A40000",
"^.	c #9A0000",
"/.	c #A11B1B",
"(.	c #864242",
"_.	c #5B2121",
":.	c #AA3A3A",
"<.	c #DB4141",
"[.	c #C11616",
"}.	c #EA0A0A",
"|.	c #F01818",
"1.	c #F90C0C",
"2.	c #FB0202",
"3.	c #FA1212",
"4.	c #FB1D1D",
"5.	c #FC0909",
"6.	c #FD0404",
"7.	c #F91F1F",
"8.	c #ED2E2E",
"9.	c #F11616",
"0.	c #ED0909",
"a.	c #E00E0E",
"b.	c #B93636",
"c.	c #B20000",
"d.	c #C31515",
"e.	c #AD3939",
"f.	c #5A2121",
"g.	c #AF3939",
"h.	c #C81414",
"i.	c #D51111",
"j.	c #D41111",
"k.	c #E50C0C",
"l.	c #F80404",
"m.	c #F30000",
"n.	c #FA0303",
"o.	c #FE0000",
"p.	c #FF0101",
"q.	c #FF0000",
"r.	c #FE0101",
"s.	c #FD0505",
"t.	c #F80303",
"u.	c #E40E0E",
"v.	c #E10E0E",
"w.	c #9E1B1B",
"x.	c #B81818",
"y.	c #BB1717",
"z.	c #821E1E",
"A.	c #707070",
"B.	c #767676",
"C.	c #6D6D6D",
"D.	c #777676",
"E.	c #897171",
"F.	c #A26969",
"G.	c #AE7070",
"H.	c #CC4E4E",
"I.	c #F52323",
"J.	c #F42525",
"K.	c #F02E2E",
"L.	c #FD0E0E",
"M.	c #FC1111",
"N.	c #FD0909",
"O.	c #EE3333",
"P.	c #D14A4A",
"Q.	c #B85A5A",
"R.	c #C05252",
"S.	c #AB6565",
"T.	c #8B6A6A",
"U.	c #818181",
"V.	c #9C8686",
"W.	c #9D8585",
"X.	c #C66D6D",
"Y.	c #EF3E3E",
"Z.	c #F53030",
"`.	c #EB4646",
" +	c #FE0202",
".+	c #FB1A1A",
"++	c #E84848",
"@+	c #DB5A5A",
"#+	c #D95D5D",
"$+	c #C27070",
"%+	c #AF7D7D",
"&+	c #918A8A",
"*+	c #AC7E7E",
"=+	c #A78181",
"-+	c #A88080",
";+	c #D46262",
">+	c #F62D2D",
",+	c #FB1E1E",
"'+	c #EE4040",
")+	c #FC1717",
"!+	c #FE0505",
"~+	c #F43333",
"{+	c #DD5959",
"]+	c #DF5656",
"^+	c #DA5B5B",
"/+	c #CE6767",
"(+	c #AE7D7D",
"_+	c #958888",
":+	c #A38383",
"<+	c #AD7E7E",
"[+	c #B37A7A",
"}+	c #E45050",
"|+	c #F92626",
"1+	c #F53232",
"2+	c #E25252",
"3+	c #FB1B1B",
"4+	c #FE0303",
"5+	c #F43434",
"6+	c #E35252",
"7+	c #CF6767",
"8+	c #B77878",
"9+	c #938989",
"0+	c #F33636",
"a+	c #F62F2F",
"b+	c #EA4747",
"c+	c #F82B2B",
"d+	c #F92323",
"e+	c #E74C4C",
"f+	c #CC6868",
"g+	c #B27B7B",
"h+	c #A98080",
"i+	c #9F8484",
"j+	c #786E6E",
"k+	c #836C6C",
"l+	c #966D6D",
"m+	c #B45C5C",
"n+	c #DE4545",
"o+	c #F12E2E",
"p+	c #EF2C2C",
"q+	c #ED3333",
"r+	c #F42A2A",
"s+	c #EB3434",
"t+	c #DB4343",
"u+	c #D94444",
"v+	c #D15050",
"w+	c #C06666",
"x+	c #B26262",
"y+	c #9C6B6B",
"z+	c #751F1F",
"A+	c #8B4141",
"B+	c #9E3E3E",
"C+	c #C01616",
"D+	c #EF0808",
"E+	c #E32323",
"F+	c #EB3131",
"G+	c #FB0909",
"H+	c #DC0000",
"I+	c #E30C0C",
"J+	c #EB1D1D",
"K+	c #CC2F2F",
"L+	c #A03D3D",
"M+	c #8F4040",
"N+	c #991C1C",
"O+	c #BA1717",
"P+	c #CA3030",
"Q+	c #DF2525",
"R+	c #E91E1E",
"S+	c #D91010",
"T+	c #FD0202",
"U+	c #FC0404",
"V+	c #E42121",
"W+	c #E22323",
"X+	c #E43939",
"Y+	c #C53232",
"Z+	c #874242",
"`+	c #6F4646",
" @	c #784444",
".@	c #654747",
"+@	c #5D4747",
"@@	c #672020",
"#@	c #9A3E3E",
"$@	c #CD2E2E",
"%@	c #C73131",
"&@	c #D90000",
"*@	c #E20D0D",
"=@	c #E70C0C",
"-@	c #F40707",
";@	c #FD0101",
">@	c #EE0D0D",
",@	c #E03D3D",
"'@	c #D74545",
")@	c #971C1C",
"!@	c #592121",
"~@	c #644747",
"{@	c #322323",
"]@	c #3E2222",
"^@	c #6B2020",
"/@	c #A33C3C",
"(@	c #BD3434",
"_@	c #BE1717",
":@	c #B31818",
"<@	c #CA1414",
"[@	c #EB0909",
"}@	c #EE0707",
"|@	c #FB1212",
"1@	c #FC1818",
"2@	c #E23333",
"3@	c #E13D3D",
"4@	c #C83030",
"5@	c #D12C2C",
"6@	c #C53131",
"7@	c #911D1D",
"8@	c #694646",
"9@	c #402222",
"0@	c #5E2121",
"a@	c #7D4343",
"b@	c #804343",
"c@	c #811F1F",
"d@	c #9E1C1C",
"e@	c #CB0000",
"f@	c #CD1414",
"g@	c #BC3535",
"h@	c #E00000",
"i@	c #DE1010",
"j@	c #EA2D2D",
"k@	c #EC4343",
"l@	c #E15454",
"m@	c #DD5A5A",
"n@	c #CA6B6B",
"o@	c #E53939",
"p@	c #DC2828",
"q@	c #C63232",
"r@	c #941C1C",
"s@	c #8E4040",
"t@	c #764545",
"u@	c #724545",
"v@	c #7E4343",
"w@	c #580000",
"x@	c #562222",
"y@	c #861E1E",
"z@	c #B60000",
"A@	c #B81717",
"B@	c #D72A2A",
"C@	c #E70B0B",
"D@	c #E74B4B",
"E@	c #CC6969",
"F@	c #CD6868",
"G@	c #D56060",
"H@	c #E03737",
"I@	c #EE0808",
"J@	c #CB1414",
"K@	c #734545",
"L@	c #7B1F1F",
"M@	c #901D1D",
"N@	c #A31A1A",
"O@	c #CE1313",
"P@	c #D52B2B",
"Q@	c #E30D0D",
"R@	c #F90D0D",
"S@	c #C66E6E",
"T@	c #CB6969",
"U@	c #CA4646",
"V@	c #DF0E0E",
"W@	c #AD1919",
"X@	c #8A4141",
"Y@	c #794444",
"Z@	c #6B4646",
"`@	c #8F0000",
" #	c #A61B1B",
".#	c #D02D2D",
"+#	c #D51212",
"@#	c #EB0A0A",
"##	c #EE1A1A",
"$#	c #C96B6B",
"%#	c #D66060",
"&#	c #E54F4F",
"*#	c #B35A5A",
"=#	c #A21B1B",
"-#	c #B13939",
";#	c #A53C3C",
">#	c #7F4343",
",#	c #7A4444",
"'#	c #512222",
")#	c #1C0000",
"!#	c #7F1F1F",
"~#	c #C21616",
"{#	c #C61515",
"]#	c #B63737",
"^#	c #A36161",
"/#	c #B77777",
"(#	c #C07272",
"_#	c #D16464",
":#	c #A65656",
"<#	c #8C1D1D",
"[#	c #A41B1B",
"}#	c #A43C3C",
"|#	c #5F4747",
"1#	c #921D1D",
"2#	c #8A1E1E",
"3#	c #924040",
"4#	c #A76060",
"5#	c #BC7575",
"6#	c #B67878",
"7#	c #9C6464",
"8#	c #824343",
"9#	c #432222",
"0#	c #562121",
"a#	c #6A4646",
"b#	c #9D5959",
"c#	c #7C6C6C",
"d#	c #726D6D",
"      . +       + + + .   +   +     + + + + @ # # # # @ . . + + + . + .         + + +   +   + +   $ ",
"+ +   +   + + . + + +   $           + + + + % # # # # % . +     . .     $   +   + +   +   $ $ $ $ + ",
"    + + + + . + + +           +   + . . + . & # # # # & + + + + +   + $     + +       $ $ $         ",
"  + + +   +   + + +   + + + +   +   + + + + @ # # # # % + + + + + +   $ +   +         $       + + + ",
"    + $ + .   .     + . + .   +   + + . + + % # # # # % + +   . + + $         +         +   +       ",
"+ + + + . + +   $     +   + + + + + . . + + % # # # # @   +     +   +   + + + + + +   + + + . +     ",
"+ +       +     $ + + + + . + + + . . . +   % # # # # @ + + + +         +   +   + + + + . + +     + ",
"+ +   + + +   + . + + + +   +   + + . +   + @ # # # # @ + .   +           +   + + +   + + +     + + ",
". + + +   +   + +   + . + +   +   . +   +   % # # # # % . +   +         +     + . + + . +   +   + + ",
"+ + + + + + + +   +     + +       +   $     @ # # # # %   + +   +   + +         . + +       + + + + ",
"+ .     + + + +     + +         + . +       @ # # # # * + + $ +         +   + + + + + +     + + + . ",
"+ +       +   +     + + .   + + + + $       % # # # # @ + + +     + $       + + + +   +   + . + +   ",
"+ +     +     + + + + +   + + + + + $   +   * # # # # @ +           + +     +   + +     + . .   + + ",
"+       +             + +   + + +       + + @ # # # # @   +       +     $         +   + . +     + + ",
"  +   +   $ + + + + + .     + + + = - ; > , ' ) ! ) ! ~ ; {   +   +   $           + . . + +   + +   ",
"    + + +   +       + + + . . = ] ^ / ( _ : < [ } | | 1 2 ( 3 4 5 +       +   + .   + + + + $   + + ",
"  + + + $   +   +   . . + + = 6 7 8 9 0 a b c d e f g h i j k l m {       + + .     + +         +   ",
"+       + +     + + + + + + n o p q r s t u v w x y z A B C D E t F - + +   +     . + . + +   + + + ",
"    + +   + . + +   . + + G H I J K L M N O P Q R S T U V W X Y Z `  .    $   + + + .     +   . +   ",
"+ + + +   +         + + ..F +.@.#.$.%.&.*.=.-.;.>.,.'.).!.~.{.].^./.(.6   +   +     +   . + +       ",
"+ + + .   +           - _.:.M <.[.C }.|.1.2.3.4.5.6.7.8.9.0.a.b.c.d.e.f.  + + + + + +   +   + + +   ",
"+         $       + + ] o g.h.i.j.k.l.m.n.o.p.q.r.q.r.s.t.u.v.w.x.y.z...    +   + + + +             ",
"A.B.B.B.C.C.A.A.A.B.D.E.F.G.H.I.J.K.L.M.s.q.q.q.q.q.q.r.N.O.P.Q.R.S.T.D.D.A.A.A.B.A.B.A.A.U.B.A.A.A.",
"# # # # # # # # # # ! V.| W.X.Y.Z.`.Z.M.r.p.q.q.q.r.q.q. +.+++@+#+$+%+[ &+# # # # # # # # # # # # # ",
"# # # # # # # # # # V.*+=+-+;+>+,+'+)+!+r.q.q.q.r.q.q.p.p.N.~+{+]+^+/+(+_+# # # # # # # # # # # # # ",
"# # # # # # # # # # :+<+V.[+}+|+1+2+3+ +q.q.q.r.r.q.p.q.q.4+5+#+6+7+8+W.9+# # # # # # # # # # # # # ",
"# # # # # # # # # # ) W.| [+y 0+a+b+c+ +q.q.p.q.r.q.q.q.q.p.d+e+2+f+g+h+i+# # # # # # # # # # # # # ",
"B.B.C.A.A.B.A.U.B.U.j+k+l+m+n+o+p+q+r+!+q.q.r.r.q.q.q.q.q.s.s+t+u+v+w+x+y+B.B.A.A.A.C.B.B.B.A.C.A.A.",
"+     + +   + . + + , z+A+B+C+=.D+E+F+G+r.r.r.r.r.q.q.q.o.t.H+I+J+K+L+M+F +         + + +         + ",
"    +   + + . +     3 ( N+O+P+Q+R+S+S+~.T+o.r.r.r.q.q.r.U+V+W+X+Y+Z+`+ @.@  $   + +   + +     + +   ",
"+ +         +   + + +@@@#@$@i.%@d.&@*@=@-@;@q.r. +r. +s.>@A ,@'@)@!@~@] {@$   +     . +     + + + + ",
"  + + + . + + +     ..]@^@/@(@_@:@<@a.C [@}@|@,+,.1@b+2@3@4@5@6@7@z+8@; - + . +   + . +         +   ",
"  + + + +   +   + + - 9@0@a@b@c@d@e@f@g@h@i@j@k@l@m@n@H.o@*@p@q@r@s@t@6 {   +   + + +       + +     ",
"+ + + + + + + . + +   n u@v@w@x@y@z@A@g.B@C@p+D@E@F@G@H@I@}.J@)@^@H K@4   + + + + + + +   + + + + + ",
"+ + + + +   + + . +   {@> L@M@)@N+N@O@P@Q@R@j@;+S@/+T@U@a.V@W@ @H X@Y@]@+ +   + + + + + + + + +     ",
"  + + +     + +   + $ + ..Z@`@ #b t .#+#@###A $#%#&#^+*#=#-#;#X@>#,#'#-     +         +     +       ",
"+   + + +         +   +   )#m !#8 ~#{#t Y+]#^#/#(#_#f :#<#[#}#a@|#4 5     +       +   +           + ",
"  + + +     +   + +   $     = ] F 1#2 l 2#3#4#5#8+6#[+7#z+8#Y@] +     +     +   + + .   + +     + + ",
"              + + +   $   $   + 5 9#0#a#m ,#b#[+-+W._+c#n ; d#5 +   + +   +   + + .     +         + ",
"    + + + + + .       + + + + +     +   +   % # # # # % + +     + +       $ + + +       +   +   +   ",
"  + .   + + +   +       + + +     + +       % # # # # @   +   +         $   +   + +         + +     ",
"+ +     +   + +   + + . +     + . +     + + % # # # # % + +   +   +   $ +   +     +     +   +   $ + ",
"+   + +   +   +   + + +       . . + +   +   & # # # # %     + + + +     $ $   + + . $     +   $ + . ",
"+ +     + . +     + .     + . +         +   % # # # # % +       + $     +   +   + + $ $ +     + + + ",
"      +   +   +   + + +   + +     +   + + $ % # # # # @   +               $ + + +   $         + +   ",
". +   + . + + +       +   $   + + +   $     % # # # # % +     +   + + +   +     + +   $   +   + + + ",
"+ + . . + +           $       + + +         @ # # # # % + +   + + + + + +   +     + $ +   +   + +   ",
"+   +     + +   + + + + +   + + +   $   +   % # # # # %   + + + + . + . +   +   + +     +   +   + . ",
"+       . +       + +   +   + .     + +     @ # # # # @ . + + + + + +   +   +   + + +   +   +   . + ",
"  . + +   + +   +     + +   +         $     % # # # # %     +   + +     +     + $     +     + + . + "};
