/* XPM */
static char * P0_xpm[] = {
"50 50 518 2",
"  	c #232323",
". 	c #6E6E6E",
"+ 	c #494949",
"@ 	c #656565",
"# 	c #8C8C8C",
"$ 	c #000000",
"% 	c #6F6F6F",
"& 	c #5F6E6E",
"* 	c #4A7D60",
"= 	c #557E5A",
"- 	c #557D59",
"; 	c #55815D",
"> 	c #557D69",
", 	c #232823",
"' 	c #354949",
") 	c #254946",
"! 	c #1C4940",
"~ 	c #2E653F",
"{ 	c #3C6446",
"] 	c #3A6444",
"^ 	c #42674B",
"/ 	c #36673F",
"( 	c #214944",
"_ 	c #2D4949",
": 	c #233723",
"< 	c #334949",
"[ 	c #1D4941",
"} 	c #28633A",
"| 	c #0C4B37",
"1 	c #094D35",
"2 	c #155E34",
"3 	c #185D33",
"4 	c #165C33",
"5 	c #1C5D34",
"6 	c #0A4C36",
"7 	c #114A38",
"8 	c #174723",
"9 	c #376E49",
"0 	c #414949",
"a 	c #001100",
"b 	c #3B4949",
"c 	c #1F4942",
"d 	c #12493A",
"e 	c #1A5F35",
"f 	c #105D33",
"g 	c #064F32",
"h 	c #055030",
"i 	c #055A30",
"j 	c #045930",
"k 	c #064F26",
"l 	c #074E33",
"m 	c #084D23",
"n 	c #0D4A23",
"o 	c #19493F",
"p 	c #234023",
"q 	c #2C4949",
"r 	c #17493E",
"s 	c #0D4B37",
"t 	c #115D33",
"u 	c #065B31",
"v 	c #055930",
"w 	c #04512F",
"x 	c #035128",
"y 	c #03582E",
"z 	c #045130",
"A 	c #055031",
"B 	c #094C23",
"C 	c #124923",
"D 	c #224423",
"E 	c #13493B",
"F 	c #04592F",
"G 	c #03522E",
"H 	c #035228",
"I 	c #02522D",
"J 	c #02572D",
"K 	c #02522E",
"L 	c #054F26",
"M 	c #084D24",
"N 	c #0E4A23",
"O 	c #204423",
"P 	c #314949",
"Q 	c #045127",
"R 	c #025329",
"S 	c #02532D",
"T 	c #01562C",
"U 	c #02562D",
"V 	c #025229",
"W 	c #055026",
"X 	c #224944",
"Y 	c #233223",
"Z 	c #233A23",
"` 	c #1A493F",
" .	c #064F25",
"..	c #00532A",
"+.	c #01532A",
"@.	c #01592F",
"#.	c #01653A",
"$.	c #016F44",
"%.	c #017145",
"&.	c #01683D",
"*.	c #016036",
"=.	c #01532C",
"-.	c #084D34",
";.	c #232B23",
">.	c #234945",
",.	c #074E25",
"'.	c #045027",
").	c #016D42",
"!.	c #018958",
"~.	c #019A68",
"{.	c #01A974",
"].	c #01AB76",
"^.	c #01A06D",
"/.	c #019060",
"(.	c #01784B",
"_.	c #016037",
":.	c #094C35",
"<.	c #194623",
"[.	c #14493C",
"}.	c #03512F",
"|.	c #006237",
"1.	c #018657",
"2.	c #01A772",
"3.	c #01C487",
"4.	c #00D192",
"5.	c #00DA99",
"6.	c #00DC9B",
"7.	c #00D595",
"8.	c #00CA8D",
"9.	c #01B27B",
"0.	c #019463",
"a.	c #016E44",
"b.	c #01582F",
"c.	c #005228",
"d.	c #2A4949",
"e.	c #016239",
"f.	c #008A5A",
"g.	c #01B97F",
"h.	c #00D394",
"i.	c #00E4A0",
"j.	c #00ECA7",
"k.	c #00EFAA",
"l.	c #00F0AA",
"m.	c #00EEA9",
"n.	c #00E8A3",
"o.	c #01C589",
"p.	c #019D6A",
"q.	c #017044",
"r.	c #233823",
"s.	c #233923",
"t.	c #164723",
"u.	c #015931",
"v.	c #018A59",
"w.	c #00DB9A",
"x.	c #00E9A5",
"y.	c #00F1AB",
"z.	c #00F3AC",
"A.	c #00F4AD",
"B.	c #00F2AB",
"C.	c #00EDA8",
"D.	c #00E29F",
"E.	c #01C88C",
"F.	c #016A3F",
"G.	c #005127",
"H.	c #232723",
"I.	c #124939",
"J.	c #0A5C32",
"K.	c #017045",
"L.	c #01AF78",
"M.	c #00D696",
"N.	c #00EAA6",
"O.	c #00EFA9",
"P.	c #00E09E",
"Q.	c #01C286",
"R.	c #018858",
"S.	c #015E36",
"T.	c #005229",
"U.	c #0A4C23",
"V.	c #214423",
"W.	c #232F23",
"X.	c #234123",
"Y.	c #0E4B37",
"Z.	c #03572E",
"`.	c #015D34",
" +	c #018E5F",
".+	c #01CA8D",
"++	c #00E5A2",
"@+	c #00ECA6",
"#+	c #00D897",
"$+	c #016D44",
"%+	c #556E69",
"&+	c #234223",
"*+	c #1F6037",
"=+	c #01663D",
"-+	c #01A771",
";+	c #01D998",
">+	c #00E4A1",
",+	c #01BD83",
"'+	c #017E50",
")+	c #33673E",
"!+	c #03512E",
"~+	c #01532D",
"{+	c #017449",
"]+	c #01B67C",
"^+	c #00E19E",
"/+	c #018D5E",
"(+	c #134823",
"_+	c #233B23",
":+	c #1F4423",
"<+	c #195F35",
"[+	c #017C50",
"}+	c #01BC82",
"|+	c #00E5A1",
"1+	c #01CF91",
"2+	c #009663",
"3+	c #005027",
"4+	c #074E24",
"5+	c #233123",
"6+	c #094C36",
"7+	c #054F31",
"8+	c #00CF91",
"9+	c #019663",
"0+	c #045030",
"a+	c #084E24",
"b+	c #15493C",
"c+	c #233023",
"d+	c #0C4B23",
"e+	c #017649",
"f+	c #01E19E",
"g+	c #015D36",
"h+	c #1A483F",
"i+	c #484848",
"j+	c #222222",
"k+	c #212121",
"l+	c #212721",
"m+	c #2C4646",
"n+	c #0D4A38",
"o+	c #01653C",
"p+	c #01E5A1",
"q+	c #02582E",
"r+	c #1C4521",
"s+	c #464646",
"t+	c #474747",
"u+	c #747474",
"v+	c #737373",
"w+	c #727272",
"x+	c #686868",
"y+	c #676767",
"z+	c #696969",
"A+	c #3C6A56",
"B+	c #26633B",
"C+	c #0B5C33",
"D+	c #018E5E",
"E+	c #01E5A2",
"F+	c #01D897",
"G+	c #016C43",
"H+	c #065B32",
"I+	c #186037",
"J+	c #2D6446",
"K+	c #6A6A6A",
"L+	c #666666",
"M+	c #6D6D6D",
"N+	c #7B7B7B",
"O+	c #717171",
"P+	c #878787",
"Q+	c #858585",
"R+	c #838383",
"S+	c #818181",
"T+	c #7F7F7F",
"U+	c #7E7E7E",
"V+	c #777777",
"W+	c #576D6B",
"X+	c #30673F",
"Y+	c #145F35",
"Z+	c #065831",
"`+	c #01D696",
" @	c #01E09E",
".@	c #025D34",
"+@	c #055630",
"@@	c #0B5D33",
"#@	c #24633A",
"$@	c #356C51",
"%@	c #757575",
"&@	c #797979",
"*@	c #7D7D7D",
"=@	c #808080",
"-@	c #828282",
";@	c #848484",
">@	c #868686",
",@	c #7C7C7C",
"'@	c #6B6B6B",
")@	c #5D5D5D",
"!@	c #555555",
"~@	c #2E4B4B",
"{@	c #0E4A38",
"]@	c #01DB9A",
"^@	c #01E9A5",
"/@	c #01E29F",
"(@	c #01693F",
"_@	c #064F31",
":@	c #1D4841",
"<@	c #525252",
"[@	c #5C5C5C",
"}@	c #646464",
"|@	c #787878",
"1@	c #606060",
"2@	c #585858",
"3@	c #4D4D4D",
"4@	c #454545",
"5@	c #3D3D3D",
"6@	c #363736",
"7@	c #1A4632",
"8@	c #0A4C2E",
"9@	c #064F2A",
"0@	c #026137",
"a@	c #018A5A",
"b@	c #01D394",
"c@	c #01E4A0",
"d@	c #01DA9A",
"e@	c #055027",
"f@	c #084D27",
"g@	c #11492B",
"h@	c #313F31",
"i@	c #393939",
"j@	c #424242",
"k@	c #4C4C4C",
"l@	c #565656",
"m@	c #5F5F5F",
"n@	c #575757",
"o@	c #4E4E4E",
"p@	c #3A3A3A",
"q@	c #323232",
"r@	c #2E2E2E",
"s@	c #292D29",
"t@	c #254025",
"u@	c #124921",
"v@	c #035229",
"w@	c #018557",
"x@	c #01D192",
"y@	c #00DB9B",
"z@	c #01B27A",
"A@	c #019462",
"B@	c #0B4B22",
"C@	c #1E441E",
"D@	c #272727",
"E@	c #2D2D2D",
"F@	c #363636",
"G@	c #404040",
"H@	c #626262",
"I@	c #707070",
"J@	c #505050",
"K@	c #373737",
"L@	c #1E1E1E",
"M@	c #151515",
"N@	c #123512",
"O@	c #11441C",
"P@	c #0C4A21",
"Q@	c #015329",
"R@	c #00582E",
"S@	c #006C42",
"T@	c #008858",
"U@	c #019A67",
"V@	c #01A06C",
"W@	c #018F60",
"X@	c #00774A",
"Y@	c #005F35",
"Z@	c #005329",
"`@	c #015229",
" #	c #025228",
".#	c #0B471E",
"+#	c #0E3C16",
"@#	c #122212",
"##	c #131313",
"$#	c #171717",
"%#	c #1C1C1C",
"&#	c #2F2F2F",
"*#	c #383838",
"=#	c #515151",
"-#	c #121212",
";#	c #0E0E0E",
">#	c #1F1F1F",
",#	c #191919",
"'#	c #050505",
")#	c #0F0F0F",
"!#	c #0A0A0A",
"~#	c #080808",
"{#	c #020202",
"]#	c #011C01",
"^#	c #033B15",
"/#	c #03461E",
"(#	c #004B21",
"_#	c #024E24",
":#	c #005026",
"<#	c #025127",
"[#	c #00582F",
"}#	c #006238",
"|#	c #016D41",
"1#	c #01653B",
"2#	c #005D33",
"3#	c #005128",
"4#	c #025027",
"5#	c #024F25",
"6#	c #024C23",
"7#	c #02481F",
"8#	c #024019",
"9#	c #032B0B",
"0#	c #010101",
"a#	c #0C0C0C",
"b#	c #111111",
"c#	c #0B0B0B",
"d#	c #0D0D0D",
"e#	c #101010",
"f#	c #012501",
"g#	c #013B15",
"h#	c #02461E",
"i#	c #024A21",
"j#	c #004F26",
"k#	c #015128",
"l#	c #015127",
"m#	c #045026",
"n#	c #024E25",
"o#	c #02300E",
"p#	c #011301",
"q#	c #040404",
"r#	c #060606",
"s#	c #070707",
"t#	c #090909",
"u#	c #242424",
"v#	c #030303",
"w#	c #032503",
"x#	c #003B15",
"y#	c #02441C",
"z#	c #004920",
"A#	c #004C23",
"B#	c #004E25",
"C#	c #025128",
"D#	c #054F25",
"E#	c #054D23",
"F#	c #004A21",
"G#	c #00461E",
"H#	c #023F18",
"I#	c #001300",
"J#	c #161616",
"K#	c #1A1A1A",
"L#	c #1D1D1D",
"M#	c #181818",
"N#	c #031C03",
"O#	c #013511",
"P#	c #004019",
"Q#	c #004E24",
"R#	c #004F25",
"S#	c #044F25",
"T#	c #054E25",
"U#	c #024D23",
"V#	c #024B22",
"W#	c #00431B",
"X#	c #003A15",
"Y#	c #022703",
"Z#	c #020F02",
"`#	c #011101",
" $	c #012D0C",
".$	c #003713",
"+$	c #044B22",
"@$	c #084C23",
"#$	c #084B22",
"$$	c #054B22",
"%$	c #054920",
"&$	c #00471F",
"*$	c #02431B",
"=$	c #023B15",
"-$	c #003310",
";$	c #021D02",
">$	c #141414",
",$	c #001B00",
"'$	c #012805",
")$	c #033611",
"!$	c #023C16",
"~$	c #05421A",
"{$	c #08441C",
"]$	c #08421B",
"^$	c #04411A",
"/$	c #003E17",
"($	c #003914",
"_$	c #012101",
":$	c #010F01",
"<$	c #031203",
"[$	c #011D01",
"}$	c #032703",
"|$	c #06300E",
"1$	c #0C310F",
"2$	c #0B310F",
"3$	c #062B0B",
"4$	c #011701",
"5$	c #010C01",
"6$	c #202020",
"7$	c #252525",
"8$	c #3B3B3B",
"9$	c #2C2C2C",
"0$	c #2A2A2A",
"a$	c #1B1B1B",
"b$	c #282828",
"c$	c #2B2B2B",
"d$	c #313131",
"e$	c #262626",
"f$	c #343434",
"g$	c #3C3C3C",
"h$	c #353535",
"i$	c #333333",
"j$	c #303030",
"k$	c #3E3E3E",
"l$	c #292929",
"m$	c #414141",
"n$	c #3F3F3F",
"o$	c #5A5A5A",
"p$	c #444444",
"q$	c #434343",
"r$	c #545454",
"s$	c #535353",
"      . +       + + + .   +   +     + + + + @ # # # # @ . . + + + . + .         + + +   +   + +   $ ",
"+ +   +   + + . + + +   $           + + + + % # # # # % . +     . .     $   +   + +   +   $ $ $ $ + ",
"    + + + + . + + +           +   + . . + & * = - - ; > + + + + +   + $     + +       $ $ $         ",
"  + + +   +   + + +   + + + +   + , + ' ) ! ~ { ] ] ^ / ( _ + + + +   $ +   +         $       + + + ",
"    + $ + .   .     + . + .   + : < [ } | 1 2 3 4 4 5 2 6 7 8 9 0 + a         +         +   +       ",
"+ + + + . + +   $     +   + + b c d e f g h i j j j i i k l m n o p +   + + + + + +   + + + . +     ",
"+ +       +     $ + + + + . q r s t u v w x y y y y y y w z A l B C D : +   +   + + + + . + +     + ",
"+ +   + + +   + . + + + + p E B g h F G H I J J J J J J K y x z L M N O : +   + + +   + + +     + + ",
". + + +   +   + +   + . P E B g Q y G R S R T T T T T U U S V G Q W M N X Y   + . + + . +   +   + + ",
"+ + + + + + + +   +   Z ` 6  .Q H K R ..+.@.#.$.%.%.&.*.@.=.S R G Q A -.C p ;.  . + +       + + + + ",
"+ .     + + + +     + >.N ,.'.H I J =.@.).!.~.{.].].^./.(._...S R H Q L :.<.0 + + + + +     + + + . ",
"+ +       +   +     0 [.2 W }.K S =.|.1.2.3.4.5.6.6.7.8.9.0.a.b.R S c.Q ,.n d.+ + +   +   + . + +   ",
"+ +     +     + + + ) s  .w G S =.e.f.g.h.i.j.k.l.l.m.n.5.o.p.q.b.R K }.W m r r.+ +     + . .   + + ",
"+       +         s.t.-.A H I S u.v.g.w.x.y.z.A.A.A.A.B.C.D.E.p.F.=.R H G.,.N p H.+   + . +     + + ",
"  +   +   $ + + + ' I.J.'.H S =.K.L.M.N.B.A.A.A.A.A.A.A.z.O.P.Q.R.S.R T.Q k U.V.W.+ . . + +   + +   ",
"    + + +   +   ;.X.Y.g w Z.U `. +.+++y.A.A.A.A.A.A.A.A.A.z.@+#+2.$+R V H h m ` %+  + + + + $   + + ",
"  + + + $   +   + &+*+u w I S =+-+;+m.A.A.A.A.A.A.A.A.A.A.A.y.>+,+'+b.R H h -.)+Z   + +         +   ",
"+       + +     + c :.A !+S ~+{+]+^+y.A.A.A.A.A.A.A.A.A.A.A.z.N..+/+`.S G '.l (+_+. + . + +   + + + ",
"    + +   + . + + :+<+A !+R ~+[+}+|+B.A.A.A.A.A.A.A.A.A.A.A.A.j.1+2+_.R H 3+4+E 0 + .     +   . +   ",
"+ + + +   +     5+V.6+7+}.I U [+}+|+B.A.A.A.A.A.A.A.A.A.A.A.A.j.8+9+_.S H 0+a+b+_+  +   . + +       ",
"+ + + .   +     c+&+d+ .Q K S e+]+f+y.A.A.A.A.A.A.A.A.A.A.A.z.N.8./+g+R H h -.h+i+i++   +   + + +   ",
"+         $ j+k+l+m+n+g w G R o+-+;+m.A.A.A.A.A.A.A.A.A.A.A.y.p+,+'+q+I x W 1 r+s+s+s+t+j+          ",
". u+v+w+x+y+z+y+y+A+B+C+i y S `.D+.+E+y.A.A.A.A.A.A.A.A.A.z.@+F+2.G+S Z.F H+I+J+K+L+M+x+z+N+O+M+M+. ",
"P+Q+R+S+T+U+N+V+v+W+X+Y+Z+}.K S $.L.`+N.B.A.A.A.A.A.A.A.z.O. @Q.R..@S G +@@@#@$@O+%@&@N+*@U+=@-@;@>@",
"S+T+,@&@%@O+'@@ )@!@~@{@l 0+G R q+v.g.]@^@y.z.A.A.A.A.B.C./@E.p.(@R H w _@:.:@<@[@}@K+% v+%@|@N+*@=@",
"&@V+v+M+x+1@2@3@4@5@6@7@8@9@Q H R 0@a@g.b@c@j.k.l.l.m.n.d@o.p.$.q+V x e@f@g@h@i@j@k@l@m@L+'@. w+%@&@",
"O+M+y+1@n@o@4@p@q@r@s@t@u@4+W x v@R 0@w@2.3.x@5.y@y@7..+z@A@).q+V H Q  .B@C@: D@E@F@G@k@!@[@H@y+'@I@",
"l@J@4@G@K@q@D@D@L@L@M@N@O@P@4+W x H Q@R@S@T@U@{.].].V@W@X@Y@Z@`@ #Q  .B .#+#@###$#%#j+&#*#G@j@s+k@=#",
"r@-#;#>#,#'#)#$#!#~#{#]#^#/#(#_#:#<# #T.Z@[#}#|#$.$.1#2#R@T.c.3#4#5#6#7#8#9#0#0#{#{#a#b#$#c#d#)#-#E@",
"e#;#L@~###;#M@~#{#0#0#0#f#g#h#i#_#j#3+k#c.c.T.`@Q@Q@`@c.c.c.l#m#n#6#7#8#o#p#$ 0#q#r#{#c#b#s#t#>#u#e#",
"  L@~#r#q#v#s#0#q#q#q#0#v#w#x#y#z#A#B#j#3+G.l#C#C#C#C#<#3+m#D#E#F#G#H#o#I#$ 0#v#0#0#d#~#v#q#J#K#L#k+",
"c#,#M@b#M#~#r#'#0#0#q#0#0#v#N#O#P#G#F#6#Q#R#D#L W W k S#T#U#V#7#W#X#Y#Z#0#v#~#q#0#'#;#~#v#v#'#s#,#t#",
"~#J###)#!#{#s#0#'#'#0#0#0#v#v#`# $.$P#h#z#F#+$@$@$@$#$$$%$&$*$=$-$;$v#v#v#0#q#0#'#r#s#{#v#v#;#-#r#~#",
"$#>$e#d#c#!#t#b#r#r#0#q#q#q#$ 0#0#,$'$)$!$P#~${${${$]$^$/$($ $_$:$v#v#q#0#q#q#'#r#s#t#c#v#d#d#)#-#J#",
"M@-#)#d#d#v#c#!###~#{#0#'#0#0#0#0#0#0#<$[$}$|$1$2$2$2$3$_$4$5$v#q#q#q#0#q#'#0#s#t#!#c#a#d#d#d#d#q#r#",
"r#b#;#d#v#v#d#a#v#c#$ ~#s#r#$ 0#'#'#q#0#0#q#!#)#)#)#)#!#0#q#q#q#q#'#0#0#{#{#t#v#v#v#v#d#v#v#d#v#q#'#",
">$'#;#d#d#v#v#v#v#d#v#c#v#$ t#{#{#{#0#r#r#'#d#-#-#-#-#!#0#0#r#r#s#~#{#{#v#c#v#v#v#d#v#d#v#v#v#v#q###",
"r#-#)#d#v#v#d#v#d#d#v#$ v#v#d#a#c#v#c#{#{#t###K#K#K#K###{#!#!#!#c#v#v#a#v#v#d#v#d#d#M#v#d#d#v#v#e###",
"s#r#q#v#v#v#v#d#d#d#v#$ v#$ v#d#v#v#v#d#d#d#>$6$6$6$6$$#a#d#$#v#d#v#d#d#v#d#v#d#d#M#v#v#d#v#v#q#'#M@",
"~#s#-#e#d#d#d#M#v#v#v#d#d#d#d#d#v#v#d#v#d#v#M#k+k+k+k+M#d#d#v#v#d#d#v#v#v#$ d#d#d#v#v#v#d#v#;#'#>$s#",
"!#,#7$'#e#d#d#v#d#v#v#v#d#d#d#v#v#d#d#v#v#v#M#k+k+k+k+M@v#d#v#d#v#v#v#v#$ v#d#v#d#d#v#v#v#q#b#>$s#t#",
"j+L@t#s#>$'#)#d#v#d#d#M#d#v#v#d#M#d#v#v#d#d#M#k+k+k+k+M#d#d#v#d#v#d#v#$ d#v#d#v#v#d#v#q#e#'#M@~#$ 6$",
"D@;#6$%#~#J#r#b#q#d#d#d#v#v#v#M#M#d#d#v#d#v#L#k+k+k+k+M#v#v#d#d#d#d#v#v#$ $ v#d#d#,#$ '#r#$#t#$ j+8$",
"9$0$e#d#>#r@,#s#r#-#L#q#v#d#M#d#v#v#v#v#d#v#M#k+k+k+k+M#d#v#v#v#d#$ v#v#d#v#d#q#b###$ $ a$c#a#u#b$c$",
"$#M@##0$e#u#d#L@!#,#$#M@'#b#e#q#v#d#v#d#d#$ M#k+k+k+k+M@v#d#v#v#v#v#q#q#q#$ >$J#M#~#$ a#d#)#b#9$&#J#",
"l@F@$#d$i+9$0$D@;#d#c#L#!#$ s#J#M@>$'#$ '#'#L#e$e$e$e$L#e#'#'#-#r#M@M@$#~#K#!#c#6$  )#$ -#E@>$q@f$K@",
"5@g$n@!@h$i$M@>$##-#e#$ ;#d#d#>#L@L#!#t#t#~#e$F@F@F@F@0$K#K#t#a$L#L#>#6$j+;#e$e#b#c$$ j$J#f$,#*#p@%#",
"j@L@k$%#a$p@*#M#f$i$d$&#r@##0$l$b$e#$ )#u#;#i@i+i+i+i+*#;#u#u#e$e$k$l$m$c$##r@M@q@f$M#,#i@a$g$L#n$H@",
"4@6$6$>#H@G@L#%#a$p@*#,#F@$#i$o@M@M@&#&#>$>$G@o$o$o$o$G@t+r@&#&#j$d$q@$#f$M#K@,#i@8$g$L#n$L@m$>#L+4@",
"  '@s+s+k+p$q$>#m$L@L#k$5@%#8$a$K#K#,#$ ,#,#r$K+K+K+K+s$,#,#K@,#i@i@a$a$8$%#L#n$$ >#>#q$6$k+4@s+K+t+"};
