/* XPM */
static char * WA_xpm[] = {
"50 50 93 2",
"  	c #0B0607",
". 	c #171112",
"+ 	c #181214",
"@ 	c #0D0708",
"# 	c #070103",
"$ 	c #120D0E",
"% 	c #211B1C",
"& 	c #282223",
"* 	c #2D2829",
"= 	c #2A2526",
"- 	c #251F21",
"; 	c #221C1E",
"> 	c #231E1F",
", 	c #151011",
"' 	c #1B1517",
") 	c #1E1819",
"! 	c #060001",
"~ 	c #010000",
"{ 	c #262122",
"] 	c #393334",
"^ 	c #4E484A",
"/ 	c #373233",
"( 	c #191415",
"_ 	c #1C1718",
": 	c #100A0B",
"< 	c #1F191B",
"[ 	c #2C2628",
"} 	c #0A0406",
"| 	c #000000",
"1 	c #140E10",
"2 	c #363032",
"3 	c #332D2F",
"4 	c #4A4445",
"5 	c #342F30",
"6 	c #080304",
"7 	c #030000",
"8 	c #0E080A",
"9 	c #110B0D",
"0 	c #292325",
"a 	c #5B5556",
"b 	c #544E4F",
"c 	c #635E5F",
"d 	c #5C5658",
"e 	c #454041",
"f 	c #433D3E",
"g 	c #302A2C",
"h 	c #443E40",
"i 	c #746F70",
"j 	c #3A3436",
"k 	c #040000",
"l 	c #3B3637",
"m 	c #4B4547",
"n 	c #474143",
"o 	c #2F292A",
"p 	c #484344",
"q 	c #403A3B",
"r 	c #322C2D",
"s 	c #4D4748",
"t 	c #3E393A",
"u 	c #605B5C",
"v 	c #6A6566",
"w 	c #413B3D",
"x 	c #999395",
"y 	c #7A7476",
"z 	c #585254",
"A 	c #565152",
"B 	c #554F51",
"C 	c #696365",
"D 	c #524D4E",
"E 	c #3D3739",
"F 	c #858081",
"G 	c #807A7B",
"H 	c #7D7778",
"I 	c #847E80",
"J 	c #676263",
"K 	c #6C6667",
"L 	c #7E787A",
"M 	c #4F4A4B",
"N 	c #514B4D",
"O 	c #5F595B",
"P 	c #7B7677",
"Q 	c #878182",
"R 	c #5E5859",
"S 	c #716C6D",
"T 	c #6F696A",
"U 	c #706A6C",
"V 	c #625C5E",
"W 	c #595455",
"X 	c #666062",
"Y 	c #655F60",
"Z 	c #736D6F",
"` 	c #6D6769",
" .	c #827D7E",
"  . + @ # $ % & * = - ; % > & = = - , ' , $ ) ! ! ~ & - { ; ] ; ^ / % ( ( ( ( _ ( ( ( ( ( ( ( ( ( ( ",
": . . : @ , ' _ % % < < ) ) ) < [ [ ( $ !   % } | 1 2 > { > 3 ' 4 5 % ( ( ( ( _ ( ( ( ( ( ( ( ( ( ( ",
"  6 ~ | 7 8 $ 9 , + _ ; > - > ; ) [ 0 - 8 # _ } | # a b c a d e f g ) ( ' ( ( _ ( ( ( ( ( ( ( ( ( ( ",
"# | | | | 1 ) < ; > > - > % ) ' . 9 9 [ > # | | | h i ] [ < [ [ j = _ ( ' ( ( _ ( ( ( ( ( ( ( ( ( ( ",
"  k 7 : > 5 l l ] 5 [ ; + 9 @ } 9 | | # | | | | | j m 8 ' 0 h n o > ( ( ' ( ( _ ( ( ( ( ( ( ( ( ( ( ",
"$ . { l p p f q / r 0 % _ _ ) < [ - > - | | | 5 a d s _ 5 j / + { ) + ' ' + ( _ ( ( ( ( ( ( ( ( ( ( ",
"{ * t s 4 j o * - > ; ; { o 2 l p u v b | | w x y p & ! + < g ( < + . ' _ + + _ ( ( ( ( ( ( ( ( ( ( ",
"q f 4 m j > _ ; < < < % - = r 2 % & < + | ~ q z 2 $ ; > 0 _ o ) ' . , ' _ + + _ ( ( ( ( ( ( ( ( ( ( ",
"f q 2 & ' 1 1 . % ' % % $ , % ) + : k | | 0 m m & % 6 { r / . ( . . + + + + + + < ( + ( . 9 1 _ , ( ",
"% ; % _ ( ( < - , 9 . ) _ < < , 1 , 1 ( * l ] g % * ) - 9 1 $ / % _ ( , , + _ < . + + + + + ' ' _ ' ",
"+ ( ( + . . ( _ ; ' + _ ; ; ( 8 = { $ , r = 1 + 2 g : ' _ = 1 ' < ) ' ( + + ( ' . < < . + % % + _ ( ",
") ) ) ' + 1 $ 9 { ; , $ _ ) . .   ) _ o n . | | } & - o ) % : < _ < ; > ; ) + , ) & > 1 1 ; ; 1 , + ",
"+ + ( ' ' ' ( . 1 _ 9 8 _ _ , % # ) < [ j } | | @ = ; { ( { . ; % % % % < _ ' ( ) - _   @ ) % 1 1 + ",
"( + . + ' ' ( . + 0 ) + 0 % : ) & = ' $ , !   2 A B - . 1 g ' 1 < ( 9   } 8 , ( , , 8 ! @ _ % ( ( ' ",
"< ' + ( _ _ ( . { g .   & - 1 { ' % - % 1 # 8 % h C D g 7 8 : { + 1 8   } 8 $ . , : @ 9 ( % % ) ( ( ",
"( . , ( % { & { ' _ | | . { > t = % ' } | | | } $ l 3 = . & 1 $ . ' % - - % _ + _ , , < & - < ) $ . ",
"% + , _ ; - & [ ; @ | | 0 % $ 2 1 9 # | | | | 7 | | | | | , r 0 = 0 { > % ) _ ' ) ) ) < % % ; ; ' ' ",
"} { g ; _ ' | | | | $ 5 p * + = | | | | | 9 < / 3 5 E t E m m 5 { { > ; < ) _ ' ) ) ) ) ) < < < _ _ ",
"t [ ; & ; 7 | |   0 h n ] - ' _ % | | | t F v G H G I i z p / ( % % < < ) _ _ ' ) ) _ _ _ _ _ ' _ _ ",
"| | 1 { # | | ( J d n { , ; - : ! | | 0 K L m e 5 * = < 9 . _ 9 _ _ ' ' ' ' ' ' ) _ _ ' ' ( ( + ' ' ",
"| | | | | . E 4 t j [ , . r [ ~ | | k ^ y M 3 ) [ _ . 1 $ > 3 [ + + ( ( ( ' ' ' _ _ _ ' ( ( + + ( ( ",
"N r 8   r B D ] | ; g < ) - $ | | < } h O ; % $ { ( + ( $ 1 9 | . + + + ( ( ' ' _ ' ' ' ' ' ( ( ' ' ",
"w a P Q C / + 9 | / w ; , # | | : r _ t R 3 ; < + $ < 0 ; ; - ' + + + ( ( ( ( ' ' ' ' ' _ _ _ _ ) ) ",
": o r ( ( * , | | ] E ' , | | | | }   > B h 9 9 ) . _ _ @ 8 _ < ( ( ( ( ( ( ( ( ( ' ' _ _ ) ) < ; % ",
"| 6 | | | | | | | % t ) , | | | : 9 o 4 E & % _ ( ( ( ( ( ( ( ( , + ( ( ( _ < > ' ' ( + ( ' ) < ) _ ",
"| | | | 7 8 | | $ % @ | | | | 0 I S S T ^ * % + ( ( ( ( ( ( ( ( < ) ) _ ' ' ( + ) _ ' ( ( + ( ( _ ' ",
"( > r j / o > _ o & | | | 8 [ U G V N h 0 . 1 : ( ( ( ( ( ( ( ( + , . ' % ; < ' + ( ( ' ' ( + + ' _ ",
"W R X Y N l t M ^ m % @ E B m V m * < _ 1 . % < ( ( ( ( ( ( ( ( , $ $ + % > ) , : $ . ( _ ) ) _ _ ) ",
"W f 5 / 2 [ 0 g 3 q ) _ s A 4 D n * ; % ( ) ; ' ( ( ( ( ( ( ( ( ; _ + ( ' + 8 k 9 $ . ' ) ) ) ) ) < ",
"{ ) ' < ) ( ) 0 > 3 ~ | < o q W j & ; % + ( ' 8 ( ( ( ( ( ( ( ( ) ( . + ( . 9   ' ' _ _ _ ' ' ( % < ",
": _ & & ) _ [ E l E | | > * 3 3 3 - > ; ' ; { _ ( ( ( ( ( ( ( ( 1 1 , + ( _ _ _ % < ) _ ' ' ' _ % < ",
") + 9 $ ) = * & : @ | | R S B [ ] = - _ : , _ $ ( ( ( ( ( ( ( ( ' _ _ ' + + ' ) < ) _ ' _ ) % ; % ) ",
"_ : , ; > { - . 9 | | ( U ^ = ( r 2 [ 1   + > > < , ,   & $ 1 1 _ _ _ ' ' ( ( ( ; < _ _ _ _ ' + _ _ ",
"9 8 ( < $ $ ' + > | < b W - o r ) 5 f j * - + 6 $ < * ( >   + { ' ' ' ' ' ' ' ' < _ ' _ ) < ) _ _ ) ",
"0 < < . ! 6 $ 9 } | | = ^ / E + q m n o _ ) - & < . : | - _ . 6 ' ' ' ' ' ' ' ' ' ( ( ' < % % < _ ) ",
"$ @ , ) % = 0 . | | | t s _ > > 9 ; 0 _ 8 8 + < [ 3 2 . ; 9 ) { ( ( ' ' ' ' _ _ ( + . ( _ ) ) _ ( _ ",
"; 0 j t g & + | | | w z b | | ) : } | | | | $ 3 { , } | { < > < ' ' ' ' ' ' ' ' ( + . . ( ( + . . ( ",
"~   , k | | 7 k * J I Z y ) | 6 + - o 0 . # ~ 7 | | | | / q & ! _ _ _ ' ' ( ( ( ( + . . + ( + , + ' ",
"= % 8 | | | | | 7 ] D * o ( t Z O a M E & ( ( < | | | - B g & r < ) ) _ ( + + . ( + . + ' ) _ ' < % ",
"9 9 < 5 ^ K C n R z h | | | h ` p f l g > _ ) - { & b Z H * 9 ) % < ) _ ( + . , + . . ( < ; ; % - - ",
"' ( ( _ ; = 3 ] t h h ) | ; m f 0 { > % . 9 ) g > [ 4 z w 0 > < - ( 9 8 } # : _ @ _ { % ( _ % % ' ) ",
"( + + ( ' _ < < < = = @ | _ s R { % ; { % + ' { j 5 w 4 / { < . _ . , _ < ' ( ) < ) + $ . < ) , @ > ",
"+ ( ' ( + , $ 9 , > % , , . ' & - ) % 0 { . 9 . f g * [ ) + , @   #   . < % < < ( ' ' _ - = - ' [ - ",
"' ' _ _ _ ' ( + < $ | | 1 > * s r & 0 g & , : ' > ; g 2 & ; > _ < ' + + ( ' < ; + % & 0 & 0 o 3 (   ",
"' ' ( ( ( ' _ _ $ : ~ @ [ = [ s 0 ' . ' : | # _ ) * n p g * l q j l ] g { ; > { [ = 0 - < + , . % r ",
"_ ( + , 1 , . . @ & h N t $ | @ 3 ( } @ # | $ g ^ e ] . | | [ e $ ) { & 0 = = & & > > & < ~ | | |   ",
"_ _ _ _ _ ' + + - { r 0 # | @ > M - ! # @ @ < l e * : | | | + & | | | 7 . & = ; $ 1 . $ | | | | | | ",
") % - 0 = & > % 3 + 9 # | | 8 9 ] | | | | | | ! | | | ! @ ) ; 8 | | | | # > - ( $ $ k | | | | - g 5 ",
"# = r ) ( ; * E - 8 # | | | k @ $ | | | | | $ , | : _ 0 5 o [ E & ( r . # _ @   | | | | | o e 2 q j ",
"g - 9 ! | | | : 7 | | | | & w 4  .u + % n n q { w w 2 2 h n s u m l E * , | | | | | k [ / * l W A R "};
