/* XPM */
static char * X0_xpm[] = {
"50 50 82 1",
" 	c #232323",
".	c #6E6E6E",
"+	c #494949",
"@	c #656565",
"#	c #8C8C8C",
"$	c #000000",
"%	c #6F6F6F",
"&	c #474747",
"*	c #686868",
"=	c #737373",
"-	c #7E7E7E",
";	c #454545",
">	c #222222",
",	c #414141",
"'	c #3A3A3A",
")	c #353535",
"!	c #323232",
"~	c #424242",
"{	c #585858",
"]	c #434343",
"^	c #1C1C1C",
"/	c #2C2C2C",
"(	c #2B2B2B",
"_	c #565656",
":	c #121212",
"<	c #444444",
"[	c #3C3C3C",
"}	c #2F2F2F",
"|	c #272727",
"1	c #242424",
"2	c #303030",
"3	c #0E0E0E",
"4	c #111111",
"5	c #1B1B1B",
"6	c #515151",
"7	c #2A2A2A",
"8	c #3B3B3B",
"9	c #1A1A1A",
"0	c #070707",
"a	c #333333",
"b	c #171717",
"c	c #1E1E1E",
"d	c #212121",
"e	c #0F0F0F",
"f	c #1F1F1F",
"g	c #181818",
"h	c #0C0C0C",
"i	c #373737",
"j	c #282828",
"k	c #262626",
"l	c #0B0B0B",
"m	c #555555",
"n	c #191919",
"o	c #060606",
"p	c #050505",
"q	c #040404",
"r	c #131313",
"s	c #151515",
"t	c #030303",
"u	c #020202",
"v	c #141414",
"w	c #0A0A0A",
"x	c #0D0D0D",
"y	c #161616",
"z	c #101010",
"A	c #090909",
"B	c #080808",
"C	c #010101",
"D	c #707070",
"E	c #767676",
"F	c #6D6D6D",
"G	c #4E4E4E",
"H	c #343434",
"I	c #363636",
"J	c #4F4F4F",
"K	c #676767",
"L	c #4A4A4A",
"M	c #393939",
"N	c #2E2E2E",
"O	c #484848",
"P	c #2D2D2D",
"Q	c #666666",
"   .+   +++. + +  ++++@####@..+++.+.    +++ + ++ $",
"++ + ++.+++ $     ++++%####%.+  ..  $ + ++ + $$$$+",
"  ++++.+++     + +..&*=----=;&+++ +$  ++   $$$    ",
" +++ + +++ ++++ +>,')!~{{{{+!)',&+ $+ +    $   +++",
"  +$+. .  +.+.>]^)/]((]____]((:<)[$>   +    + +   ",
"++++.++ $  + ;'}((],|1)~~~~23|4:(:}5;+++++ +++.+  ",
"++   +  $++&,6((78)290|aaaa b9cde4::)c& ++++.++  +",
"++ +++ +.+;'/:7efg|b0b aaaa b|0b0he4:/5;++ +++  ++",
".+++ + ++di](jhg0|b0b0|aaaa||b0b000hj::i*++.+ + ++",
"++++++++di:4kc000b0$00 !22!|0bb0b0bble4:m;+   ++++",
"+.  +++;n:7 0000b|bopqn1>>1b4r$b0000b0 7(i;+  +++.",
"++   +>':4 b|0bbbs$tuuv^^^^:wwxpob$000b 7(5& +.++ ",
"++  + c/(kgb0bbyv3$uwu4^^^^:wuuuqoyb00b0k(:c+.. ++",
"+   +dg:4l0bb0s4wuuuww:^^^^:uwuuuwqo$000lj:)*+  ++",
" + +>$(7dbb|0ozwwwuwwug5995:wwuwuwu$o0000d,]'& ++ ",
"  ++]v(e00bbycvwwwuuu0h:44:30uuwuwuuqy0b|0k(}]$ ++",
" +++$:7hb0||vwwwvuABCq0xxxxBCCBuwwuutvb|00f7:^  + ",
"+  >)(e0bbbs3wwwuA0qqCBxxxxB$qA0Awuwwqs00|g8()>+++",
"  +,:()bb0|:wuwwueCqCq0xxxx0qBqq0$wuu$pbbb|h:/c.+ ",
"+++':7l000sxwwvw4qCCBq0wAAhBBqC$$uwwuwts00bl,('   ",
"++&6:|B000puuww:CqCqqCtpppppqCCq$CAuuwwrbbbB|:)&+ ",
"+ dy:$000b4wwwuCCCC$C$upppptCCCCCCCwuuwqbbbb3:yd  ",
"DEFG~H|||7fyynv3BABBttqppppqtBBBBA3yyvv^7|7|IJGKDD",
"##-{_~aaa!1^^^5:xxxwpppppppppBhxxx:5^^^1!aaa~_{-##",
"##-{_~aaa2>^^^94xxxAppppppppp0hxxx49^^^>2aaa~_{-##",
"##-{_~aaa2>^^^94xxxAppppppppp0hxxx49^^^>2aaa~_{-##",
"##-{_~aaa!1^^^5:xxxhpppppppppwxxxx:5^^^1!aaa~_{-##",
"EE@L<M|N7N^vyvyzBAAAptqppppqt0BBBA:yyyy^||k7MOL@DD",
"+ d!(3b|bbquwwu0CqBq0uuppppt$C$Cqq0wwwuq00bb1:yd +",
"  &g(|(b00puuuwApCCqC$0B00w0qqqBqpAwwu$pbb09|:g&+ ",
"++ 5:4c0bbstwwuwu$CCCC0hhhxBCBBBCuwwu$ts00|c4:'+++",
" ++,<(db00bpuwwuuCCqCCBxxxx0BqqqCuwwuwfb0b|d::c + ",
" ++&):k0bb0oqwwuu$Cq$C0xxxxBBCq0uwwwwqs0bbge:g&+  ",
"++++[(7abb0bvw$uu$uBpCBxxxx0CCuuuwwwtvbbbbf7:[++++",
"++++]v(kjb00yquuuuuwu0h:44:hCuuwwwwu4y0bbgk(}]++  ",
" +++>5(7hb$bbs$uwwwuuwv5995vuwwwwwuqo0b00h4(5>+   ",
"+ +++dg:4c0b0$sqtuuwwwv^^^^:uuwwwwqo0b00lj:)d    +",
" +++  ,:(k0$00byvqwuuwv^^^^vuwww3o0b00b0k(<c++  ++",
"      >'(7x$0$0b0opxww:^^^^vwwnps0bb0b0 7]5>+    +",
"  +++++*n:4 gbbb00borq^1>>1^4ro0bb000$ 7(nd + + + ",
" +. +++ ;n:4kcb00bb000|!22! 0b0b0000$e7:i;    ++  ",
"++  + ++ ;i](4hg|b00bb|aaaa|bb0b0b0$j:(nd+  + + $+",
"+ ++ + + +;'::48agb0b0Paaaa|00bbgfe4$$5;+.$  + $+.",
"++  +.+  +.>c)](4ehl90|aaaa|bBlhk$::)c& ++$$+  +++",
"   + + + +++ ;'v:(:7|$)~~~~23|4:::v5d$+++ $    ++ ",
".+ +.+++   + $>][):$::]____](::/g[]& +  ++ $ + +++",
"++..++     $   ++&c5gy~{{{{+!)5,&++++ +  +$+ + ++ ",
"+ +  ++ +++++ +++ $ &dQ----Qd&+++.+.+ + ++  + + +.",
"+   .+   ++ + +.  ++  @####@.++++++ + + +++ + + .+",
" .++ ++ +  ++ +    $  %####%  + ++  +  +$  +  ++.+"};
