/* XPM */
static char *C0[] = {
/* columns rows colors chars-per-pixel */
"20 20 128 2",
"   c #1C1B1B",
".  c #1D2123",
"X  c #252525",
"o  c #282926",
"O  c #2D2D2D",
"+  c #2E2E31",
"@  c #2F3535",
"#  c #302E2E",
"$  c #312F32",
"%  c #30312F",
"&  c #343434",
"*  c #333539",
"=  c #3A373A",
"-  c #393834",
";  c #3B3B3B",
":  c #373D40",
">  c #3F3F40",
",  c #31454C",
"<  c #3E4245",
"1  c #3A494F",
"2  c #354753",
"3  c #3D4C55",
"4  c #36515A",
"5  c #3C525B",
"6  c #3B5C68",
"7  c #316679",
"8  c #403F3A",
"9  c #462E54",
"0  c #42354B",
"q  c #463550",
"w  c #4F365D",
"e  c #493B52",
"r  c #522D6A",
"t  c #533662",
"y  c #563E64",
"u  c #593F67",
"i  c #583D68",
"p  c #5C3771",
"a  c #5E3973",
"s  c #612F7D",
"d  c #63347D",
"f  c #63397B",
"g  c #4C482E",
"h  c #444233",
"j  c #42423E",
"k  c #4B4836",
"l  c #4D4B38",
"z  c #56522E",
"x  c #5D572E",
"c  c #5A573F",
"v  c #5E5A3C",
"b  c #67623C",
"n  c #746D36",
"m  c #746F3D",
"M  c #78713F",
"N  c #444443",
"B  c #47444A",
"V  c #424A4D",
"C  c #4A4943",
"Z  c #4B4B4B",
"A  c #474C50",
"S  c #4D4254",
"D  c #4F4C50",
"F  c #405256",
"G  c #4E5456",
"H  c #495759",
"J  c #504C53",
"K  c #535248",
"L  c #595640",
"P  c #545454",
"I  c #5C5C5C",
"U  c #425A62",
"Y  c #574960",
"T  c #594366",
"R  c #5D446A",
"E  c #5D4C67",
"W  c #624376",
"Q  c #6A4A7F",
"!  c #666247",
"~  c #6A6C56",
"^  c #716B41",
"/  c #7A7341",
"(  c #2F7087",
")  c #357B93",
"_  c #6B378A",
"`  c #6F3B8C",
"'  c #713C8E",
"]  c #407C92",
"[  c #6C4385",
"{  c #73478C",
"}  c #764293",
"|  c #784C93",
" . c #7B4B98",
".. c #7C40A0",
"X. c #398DA9",
"o. c #3E95B3",
"O. c #4491AD",
"+. c #41B1D7",
"@. c #40B6DE",
"#. c #877D29",
"$. c #833CAB",
"%. c #873CB0",
"&. c #A33DD9",
"*. c #8C44B5",
"=. c #887C91",
"-. c #9B64BD",
";. c #9E69BD",
":. c #9E40D1",
">. c #A643DC",
",. c #AB51DE",
"<. c #AF49E6",
"1. c #B345EE",
"2. c #B248EB",
"3. c #B543F1",
"4. c #BA43F9",
"5. c #A062C5",
"6. c #A361CA",
"7. c #8D8336",
"8. c #8C843F",
"9. c #AEA13A",
"0. c #8F8643",
"q. c #AFA343",
"w. c #B6AA43",
"e. c #DFCE3D",
"r. c #D8C844",
"t. c #E0CF41",
"y. c #EBDA44",
"u. c #848484",
/* pixels */
"& N > B - o O N I u.u.I N Z o @ = o     ",
"& j ! c > > = D I u.u.G C & X & x #.g @ ",
"; c r.9.C N Z I Z =.=.Z = o # = 0.y.^ + ",
"Z c q.8.H 1 ; ; q ,.,.E & O , 4 ~ M k N ",
"N & ; : o.o.N o 9 3.1.u O + X.+.U & Z Z ",
"& # O ; O.O.V O i 3.3.i + * ( X.5 Z ; ; ",
"& & & ; G H Q *.` 1.1.f $._ @ < N N O ; ",
"= ; = & N N { >.} 1.1.[ :.$.+ @ j N ; = ",
"Z N - q i u f _ ' 3.3.' _ s t i Y Z N ; ",
"u.u.u.5.4.3.1.1.3.4.4.3.1.1.3.3.6.u.u.u.",
"u.u.u.;.<.2.2.2.3.4.4.3.1.2.1.<.-.u.u.u.",
"N N P J q y [  .} 3.3.` ' | T 0 B Z > N ",
"; 8 0 - O ; %.&.s 3.1.| <.*.* & < ; # ; ",
"N N N A 4 3 r d a 3.1.p _ W 3 U V ; > & ",
"; ; % 5 +.X.@ # T 1.3.w j = ) @.6 = O # ",
"@ - h 5 X.) & & y 3.1.E ; & 7 o.H - % & ",
"= v w.m < ; N * S 5.5.e - + . & ! 9.n O ",
"& b e.8.; = ; @ ; u.u.N + o X % M e.7.N ",
"N K v h O O j o & u.u.B = N < & h z k N ",
"; ; = & ; ; & o & u.u.Z N N = & & @ - D "
};
