/* XPM */
static char *C1[] = {
/* columns rows colors chars-per-pixel */
"20 20 136 2",
"   c #1B1B1A",
".  c #24241D",
"X  c #242424",
"o  c #292727",
"O  c #2A2728",
"+  c #2D2C2C",
"@  c #2F2F30",
"#  c #2C3031",
"$  c #322F2F",
"%  c #312E33",
"&  c #382F3E",
"*  c #33322E",
"=  c #343434",
"-  c #373439",
";  c #373837",
":  c #393637",
">  c #3A373C",
",  c #3A3935",
"<  c #3B3B3B",
"1  c #372144",
"2  c #3C2A47",
"3  c #3C3740",
"4  c #3E3B41",
"5  c #3F413E",
"6  c #2C505A",
"7  c #344045",
"8  c #35454C",
"9  c #3A464C",
"0  c #384E57",
"q  c #3B545D",
"w  c #3F5962",
"e  c #35697C",
"r  c #3B6270",
"t  c #3D6A7B",
"y  c #403F39",
"u  c #462E54",
"i  c #45334F",
"p  c #463352",
"a  c #483752",
"s  c #513D5E",
"d  c #573B65",
"f  c #5D3F6F",
"g  c #5F3777",
"h  c #633D7A",
"j  c #4C482E",
"k  c #474534",
"l  c #44443D",
"z  c #494637",
"x  c #4B4834",
"c  c #4E4C3A",
"v  c #504D35",
"b  c #514D3F",
"n  c #565130",
"m  c #595433",
"M  c #59563D",
"N  c #605C3C",
"B  c #434343",
"V  c #464648",
"C  c #43494C",
"Z  c #494646",
"A  c #4A4944",
"S  c #4B4C4B",
"D  c #425456",
"F  c #41545C",
"G  c #4B5154",
"H  c #49555A",
"J  c #4E5A5F",
"K  c #514353",
"L  c #52485A",
"P  c #54534F",
"I  c #5A5740",
"U  c #545454",
"Y  c #5C5C5C",
"T  c #435A62",
"R  c #495B62",
"E  c #544161",
"W  c #4C605F",
"Q  c #45606A",
"!  c #4F6D79",
"~  c #67417E",
"^  c #666244",
"/  c #336D82",
"(  c #3A6F81",
")  c #3C7084",
"_  c #6F3C8D",
"`  c #733C93",
"'  c #477182",
"]  c #44788B",
"[  c #497789",
"{  c #407F97",
"}  c #7C469C",
"|  c #7B4C97",
" . c #38819B",
".. c #3888A4",
"X. c #3B91AE",
"o. c #3DBBE4",
"O. c #44849B",
"+. c #4F8BA1",
"@. c #498EA8",
"#. c #4BA0BF",
"$. c #7F8B91",
"%. c #67A2B8",
"&. c #68A3B9",
"*. c #40B2D9",
"=. c #4AB9DF",
"-. c #5CAECC",
";. c #53B9DD",
":. c #40BDE7",
">. c #43BFE8",
",. c #4CBCE3",
"<. c #63A9C3",
"1. c #46C2EC",
"2. c #44C6F1",
"3. c #44CBF7",
"4. c #43CCF9",
"5. c #8037A8",
"6. c #833DAB",
"7. c #9F3CD5",
"8. c #8641AD",
"9. c #8C43B6",
"0. c #A344D8",
"q. c #A841E0",
"w. c #AF41EA",
"e. c #8F863E",
"r. c #A59934",
"t. c #A99D39",
"y. c #AEA23C",
"u. c #B9AC3E",
"i. c #BFB13E",
"p. c #9F9544",
"a. c #A79C43",
"s. c #C9BA3F",
"d. c #D5C53D",
"f. c #838383",
"g. c #848788",
"h. c #818B8F",
/* pixels */
"= B B V = O @ V U f.f.Y Z S X * ; X   . ",
"= f } s < < ; P Y f.f.G V = X : 2 1 % # ",
"B ` w.g B V S Y S f.f.S , O # 4 8.0.d = ",
"S s ~ K ^ M < < 8 <.<.J : + = , | 6.i B ",
"B @ < x s.u.c O 8 1.1.T + j t.e.Z > S Z ",
"= @ + z a.p.S # w 1.1.q o m d.t.y S y 4 ",
"= = = ; P P [ X.) 1.1.t ( D n M B Z + < ",
"; < < = B B O.*.] 1.1.@.o.( + = l 7 < < ",
"S B - 0 w T t e ) 1.1. ...( q w R S B < ",
"f.f.f.<.3.2.1.1.2.4.4.2.2.2.2.2.;.$.f.f.",
"f.f.g.<.,.,.,.,.,.3.3.,.,.,.,.,.-.h.f.f.",
"B V U G 9 D ' +.] 1.1.O.O.! F 4 C S < V ",
"< 4 7 , $ -  .o.( >.1.#.o.t = = < < = < ",
"B B V A z k 6 e r 1.1.( ( W N I V < y = ",
"< < $ c s.t., % T 1.1.0 l M d.t., - + + ",
"= - > b t.t.y % F >.>.R , z r.p.Z - = = ",
"< h 9.d B y B : C &.%.C = * . - _ } i * ",
"< _ 0.h < < < $ < f.f.B @ O X = 6.7.p < ",
"B L s & + + B X = f.f.S < V < = u u 3 B ",
"< < < = < < ; X = f.f.S B B < = - = - G "
};
