/* XPM */
static char *C2[] = {
/* columns rows colors chars-per-pixel */
"20 20 131 2",
"   c #1B1A1A",
".  c #221D24",
"X  c #242424",
"o  c #272729",
"O  c #2C2C2D",
"+  c #2E2F30",
"@  c #2F3031",
"#  c #2C3538",
"$  c #302E2E",
"%  c #332F35",
"&  c #30302E",
"*  c #333334",
"=  c #353639",
"-  c #363838",
";  c #383737",
":  c #3A373D",
">  c #393837",
",  c #3B3B3C",
"<  c #373F42",
"1  c #3E3D41",
"2  c #22424D",
"3  c #2B454E",
"4  c #33454C",
"5  c #3D4142",
"6  c #344D56",
"7  c #3C4E55",
"8  c #30525E",
"9  c #3B535C",
"0  c #3F626F",
"q  c #376676",
"w  c #3C6D7F",
"e  c #403E34",
"r  c #413F3E",
"t  c #412E4C",
"y  c #472F56",
"u  c #42334C",
"i  c #463550",
"p  c #493257",
"a  c #4B3458",
"s  c #493953",
"d  c #503F5A",
"f  c #523C60",
"g  c #4E4B30",
"h  c #4B493C",
"j  c #524E35",
"k  c #584D34",
"l  c #555135",
"z  c #54513C",
"x  c #58553B",
"c  c #5C583F",
"v  c #605C3F",
"b  c #756E36",
"n  c #716B38",
"m  c #7A733B",
"M  c #7F7835",
"N  c #444344",
"B  c #444349",
"V  c #474846",
"C  c #484749",
"Z  c #4A4A4A",
"A  c #444D5C",
"S  c #4C4E50",
"D  c #50405A",
"F  c #524F54",
"G  c #56554E",
"H  c #5F5B41",
"J  c #5D5B4A",
"K  c #535354",
"L  c #5E5D54",
"P  c #5C5D5D",
"I  c #405760",
"U  c #415963",
"Y  c #5B4467",
"T  c #416E7D",
"R  c #60574C",
"E  c #615E43",
"W  c #6B5F41",
"Q  c #656247",
"!  c #636048",
"~  c #6B674B",
"^  c #736D40",
"/  c #7A7343",
"(  c #3D788E",
")  c #357A93",
"_  c #3D7E95",
"`  c #6C378B",
"'  c #713E8F",
"]  c #7D34A5",
"[  c #4D7A8B",
"{  c #774495",
"}  c #3DB5DD",
"|  c #46859C",
" . c #4293AF",
".. c #4295B3",
"X. c #43B1D7",
"o. c #44B8DF",
"O. c #41BFEA",
"+. c #847B36",
"@. c #827A3D",
"#. c #823AAA",
"$. c #9F3CD5",
"%. c #A03ED5",
"&. c #8843AF",
"*. c #9A8F3B",
"=. c #9F9337",
"-. c #AB9F3F",
";. c #AEA13B",
":. c #8B8344",
">. c #88814A",
",. c #948B49",
"<. c #9B9147",
"1. c #9B924B",
"2. c #A29D76",
"3. c #B7AA40",
"4. c #BDB04B",
"5. c #B2AA6C",
"6. c #C7BB5D",
"7. c #C8BC5E",
"8. c #E5D33E",
"9. c #D9C940",
"0. c #D5C755",
"q. c #D7C857",
"w. c #E4D240",
"e. c #E5D54A",
"r. c #E8D745",
"t. c #ECDA46",
"y. c #EDDB49",
"u. c #F8E543",
"i. c #838384",
"p. c #888782",
"a. c #908E80",
/* pixels */
"* , r C * o $ N K i.i.P V Z X * * X   . ",
"* T | 9 , r > F L 2.2.G V * X = 3 2 # % ",
"h _ O.q N V C P Q e.e.Q - o O 1 ..o.U & ",
"C I T A Y s , , l y.y.~ = O * : [ | 4 N ",
"N + > a %.#.N o g t.t.E O t #.{ B > Z Z ",
"* O O s &.{ Z & v t.t.v o a %.] 1 Z , , ",
"* * * > K F >.;.@.t.r.m *.Q y d N V O > ",
"> , > = N B <.9.:.r.t.,.8.+.o * 1 N 1 > ",
"Z N , j H Q ^ b @.t.y.:.+.n x E J Z N , ",
"i.i.5.y.y.t.r.t.t.u.u.t.t.t.t.t.q.a.i.i.",
"i.i.5.y.y.y.t.t.y.u.u.t.t.y.t.t.0.a.i.i.",
"N V L E l H / 1.<.t.t.;.;.>.E j z F , V ",
"> , 1 * O = M 8.=.t.t.4.r.m * * 1 > * , ",
"V V N Z i p k +.@.t.t.m b R f D V , , * ",
", , @ 1 #.%.p O E t.t.l N f %.#.: * $ O ",
"* - : 1 ` &.u % H t.t.Q : u #.' N * % % ",
"> 7 ..( B : V * j r.r.H = + . = ( ) 3 $ ",
"* 9 X...1 > 1 @ h 5.7.h + o X *  .} 6 , ",
"V Z 9 4 + O r o > 2.p.Z - V , * 6 8 < h ",
": , > * > > > o > i.i.Z N V > * & $ ; K "
};
