/* XPM */
static char *E0[] = {
/* columns rows colors chars-per-pixel */
"20 20 118 2",
"   c #1B1B1B",
".  c #1C1C1C",
"X  c #1D1D1D",
"o  c #1F1F1F",
"O  c #202020",
"+  c #242424",
"@  c #252525",
"#  c #262626",
"$  c #272727",
"%  c #2A2627",
"&  c #282828",
"*  c #292929",
"=  c #2A2A2A",
"-  c #2B2B2B",
";  c #2C2C2C",
":  c #2D2D2D",
">  c #2E2E2E",
",  c #2F2F2F",
"<  c #303030",
"1  c #313131",
"2  c #323232",
"3  c #333333",
"4  c #343434",
"5  c #353535",
"6  c #363636",
"7  c #373637",
"8  c #373737",
"9  c #383838",
"0  c #393939",
"q  c #393A39",
"w  c #3A3A3A",
"e  c #3B3B3B",
"r  c #3C3C3C",
"t  c #3D3D3D",
"y  c #3D3E3D",
"u  c #3E3E3E",
"i  c #3F3F3F",
"p  c #3E3A42",
"a  c #402246",
"s  c #42324A",
"d  c #404040",
"f  c #404140",
"g  c #414141",
"h  c #424242",
"j  c #434343",
"k  c #434444",
"l  c #454044",
"z  c #444444",
"x  c #454545",
"c  c #464646",
"v  c #474746",
"b  c #474747",
"n  c #474749",
"m  c #484649",
"M  c #484848",
"N  c #494949",
"B  c #4A4A4A",
"V  c #4B4B4B",
"C  c #4C4C4C",
"Z  c #4D4D4D",
"A  c #4E4E4E",
"S  c #4F4F4F",
"D  c #4E4552",
"F  c #505050",
"G  c #515352",
"H  c #525252",
"J  c #545454",
"K  c #575757",
"L  c #585858",
"P  c #5D5D5D",
"I  c #5E5E5E",
"U  c #5F4965",
"Y  c #62475F",
"T  c #674162",
"R  c #774A70",
"E  c #5E2D80",
"W  c #76218A",
"Q  c #833380",
"!  c #9B2398",
"~  c #B71C86",
"^  c #BA0CA8",
"/  c #B615A1",
"(  c #A73DBA",
")  c #9E45B2",
"_  c #857F89",
"`  c #9A6C8E",
"'  c #986696",
"]  c #9A6895",
"[  c #A8559D",
"{  c #A845A8",
"}  c #A36588",
"|  c #D3009F",
" . c #D5019F",
".. c #DE0090",
"X. c #DA0098",
"o. c #D8009C",
"O. c #D8059C",
"+. c #D21199",
"@. c #D3169F",
"#. c #D21897",
"$. c #CD0FA1",
"%. c #D101A2",
"&. c #D101AA",
"*. c #818181",
"=. c #828282",
"-. c #828382",
";. c #838383",
":. c #828483",
">. c #838484",
",. c #848283",
"<. c #848484",
"1. c #848584",
"2. c #858585",
"3. c #858687",
"4. c #868686",
"5. c #878787",
"6. c #83808A",
"7. c #87808E",
/* pixels */
"3 d d B 5 $ : c K <.<.I c B $ 3 9 $   o ",
"5 u c e u u 8 F L <.<.F c 5 + 5 = o - 3 ",
"u u e : c B B P C <.=.C e = , e d M d 3 ",
"B u u u d 5 e e e =.<.F 5 = : 5 C d 5 c ",
"d 3 u 4 u e d = 5 =.=.M : = - e j 5 B c ",
"3 3 : 5 d u c = c ;.=.c : : o = e V u u ",
"3 5 3 5 F C B e k -.-.f u 5 - u d B : e ",
"e e e 3 c c c p T } ' U 5 : : 3 d d u 8 ",
"Z c 5 u m F D E / $.@.! s e d B S B j u ",
"=.:.=.<.5.3._ ) %. .o.#.` :.<.<.<.<.<.;.",
"<.<.<.<._ <._ ( &.X...+.' 3.<.<.;.<.-.-.",
"d c K C u B s Q ^  .O.~ T F C e k C f k ",
"e u u 5 , e % p W { [ R N q 9 5 d u : e ",
"c c c c 3 < X - l _ :.y 3 f e y d e p 8 ",
"y u < 5 ; = < 3 B :.-.u k 9 ; 1 5 e : : ",
": 5 e e + 3 3 3 c :.:.Z y 4 = 8 d 3 , 3 ",
"u e f 8 f e j 4 d <.<.c 5 :   3 5 = 3 3 ",
"5 e p 5 u e u < u =.<.d : = + 3 5 X , d ",
"j b u : : - u $ 5 =.-.M e c u 3 3 $ 5 d ",
"e u e 3 e e 8 $ e =.-.V j c e 3 3 3 e S "
};
