/* XPM */
static char *E1[] = {
/* columns rows colors chars-per-pixel */
"20 20 186 2",
"   c #1B1B1B",
".  c #1C1C1C",
"X  c #1D1D1D",
"o  c #1F1F1F",
"O  c #202020",
"+  c #242424",
"@  c #252525",
"#  c #262626",
"$  c #272727",
"%  c #282828",
"&  c #282929",
"*  c #2A2A2A",
"=  c #2B2B2B",
"-  c #2C2C2C",
";  c #2C2D2D",
":  c #2D2D2D",
">  c #2E2C2C",
",  c #2E2E2E",
"<  c #2E2F2F",
"1  c #2F2F2F",
"2  c #302C2C",
"3  c #372B2B",
"4  c #362E2E",
"5  c #303030",
"6  c #303131",
"7  c #313131",
"8  c #323131",
"9  c #323232",
"0  c #323333",
"q  c #333333",
"w  c #343434",
"e  c #343535",
"r  c #353535",
"t  c #353636",
"y  c #363636",
"u  c #363737",
"i  c #373737",
"p  c #383737",
"a  c #383838",
"s  c #393838",
"d  c #393939",
"f  c #3A3A3A",
"g  c #3B3B3B",
"h  c #3B3C3C",
"j  c #3C3C3C",
"k  c #3D3D3D",
"l  c #3E3E3E",
"z  c #3F3F3F",
"x  c #433232",
"c  c #433333",
"v  c #453333",
"b  c #443737",
"n  c #453A3A",
"m  c #453C3C",
"M  c #4F3737",
"N  c #522727",
"B  c #582D2D",
"V  c #582F2F",
"C  c #6F3F3F",
"Z  c #752D2D",
"A  c #713A3A",
"S  c #763B3B",
"D  c #783434",
"F  c #404040",
"G  c #404141",
"H  c #414141",
"J  c #424242",
"K  c #424343",
"L  c #434343",
"P  c #444444",
"I  c #444545",
"U  c #454545",
"Y  c #464545",
"T  c #474444",
"R  c #464646",
"E  c #474747",
"W  c #4E4343",
"Q  c #484848",
"!  c #484949",
"~  c #494949",
"^  c #4A4A4A",
"/  c #4B4B4B",
"(  c #4C4C4C",
")  c #4D4D4D",
"_  c #4E4E4E",
"`  c #4F4F4F",
"'  c #4F5050",
"]  c #504141",
"[  c #574444",
"{  c #504D4D",
"}  c #594747",
"|  c #505050",
" . c #525252",
".. c #545454",
"X. c #575757",
"o. c #585858",
"O. c #5D5D5D",
"+. c #5E5E5E",
"@. c #614B4B",
"#. c #694242",
"$. c #6F4848",
"%. c #754343",
"&. c #941919",
"*. c #812828",
"=. c #833131",
"-. c #823E3E",
";. c #8E3030",
":. c #902929",
">. c #9C3939",
",. c #BC1919",
"<. c #A62727",
"1. c #A12C2C",
"2. c #A03030",
"3. c #A13333",
"4. c #A43333",
"5. c #AF3636",
"6. c #AA3F3F",
"7. c #AC3C3C",
"8. c #B82323",
"9. c #B93333",
"0. c #8F7F7F",
"q. c #937D7D",
"w. c #967E7E",
"e. c #9B7A7A",
"r. c #9C7E7E",
"t. c #B56A6A",
"y. c #BD6767",
"u. c #BA6868",
"i. c #BB6969",
"p. c #C41C1C",
"a. c #D71212",
"s. c #C32121",
"d. c #C42222",
"f. c #C42C2C",
"g. c #CE2323",
"h. c #C23232",
"j. c #D72D2D",
"k. c #D82222",
"l. c #D92424",
"z. c #DE2222",
"x. c #DE2525",
"c. c #EE0C0C",
"v. c #E31C1C",
"b. c #EE1010",
"n. c #ED1616",
"m. c #F60A0A",
"M. c #FA0707",
"N. c #FD0101",
"B. c #FE0000",
"V. c #FE0101",
"C. c red",
"Z. c #FD0505",
"A. c #FB0B0B",
"S. c #FA0E0E",
"D. c #FC0A0A",
"F. c #F01414",
"G. c #F71A1A",
"H. c #F71D1D",
"J. c #F81B1B",
"K. c #E32020",
"L. c #E22929",
"P. c #EE2727",
"I. c #EA3737",
"U. c #ED3535",
"Y. c #EF3434",
"T. c #E93B3B",
"R. c #F03636",
"E. c #DD4949",
"W. c #DD4F4F",
"Q. c #D25A5A",
"!. c #C16363",
"~. c #C26262",
"^. c #C36666",
"/. c #CA6464",
"(. c #818181",
"). c #828282",
"_. c #828383",
"`. c #838383",
"'. c #838484",
"]. c #868181",
"[. c #868282",
"{. c #848484",
"}. c #858484",
"|. c #858585",
" X c #888686",
".X c #978080",
/* pixels */
"q F F ^ r $ : R X.'.'.+.R ^ $ q r $   . ",
"r l R g l l a ` o.'.'.{ R r + r $ + : q ",
"l l g : R ^ ^ O.` (.(.` g - 1 g F R F q ",
"^ l l l F r g l g (.'.' r & : r ` F r R ",
"F q g q l g F & r (.(.^ : - & g R r ^ R ",
"q q : r F l R 3 [ ].].W - 1 o & g ^ l g ",
"q r q g ' ' %.;.>.t.u.4.=.v - g F ^ = g ",
"g g p w R A 5.g.z.U.T.j.s.*.3 q F F l g ",
"( I r l } 7.z.F.M.D.A.F.s.2.] ^ ' ^ L l ",
"'.'.].'..Xu.Y.H.C.C.C.S.E.u.q.'.'.'.'.].",
"'.'.'. Xw.~.R.H.C.C.C.M.T./.r.'.'.'.(.(.",
"F R  .` A 9.v.F.C.C.C.m.x.6.$.g F ` l R ",
"g l l g B :.p.a.c.G.P.L.f.D v a F g q g ",
"R R F R c Z &.p.v.W.Q.k.<.S n l F g l r ",
"g l q r - N :.8.h.^.~.3.-.M : q r g : : ",
": r g g $ q c V #.e.q.@.n r & r l q q q ",
"l g l p F g F r F '.'.R r :   q r & q q ",
"r g z r l g l q l (.'.F q & + q r . : F ",
"R R l : : = l $ r (.(.^ g R l q q $ r F ",
"g l g q g g r $ g (.'.( F R g q w q g ` "
};
