/* XPM */
static char *E2[] = {
/* columns rows colors chars-per-pixel */
"20 20 256 2",
"   c #2A2020",
".  c #3B2E2D",
"X  c #322A2A",
"o  c #3A312F",
"O  c #3D3736",
"+  c #3C2856",
"@  c #431F39",
"#  c #4A221A",
"$  c #50261E",
"%  c #472723",
"&  c #442A27",
"*  c #472E2C",
"=  c #4E2B26",
"-  c #4B2E2A",
";  c #422F3B",
":  c #4F2C31",
">  c #47312F",
",  c #4A312D",
"<  c #463533",
"1  c #453C3C",
"2  c #4B3432",
"3  c #4B3D3B",
"4  c #572A23",
"5  c #56322F",
"6  c #5C322D",
"7  c #513734",
"8  c #513937",
"9  c #543C3B",
"0  c #5B3531",
"q  c #5C3A36",
"w  c #5A3D3B",
"e  c #6B281B",
"r  c #662D23",
"t  c #66332C",
"y  c #6D342C",
"u  c #623530",
"i  c #63303D",
"p  c #643934",
"a  c #633D3B",
"s  c #6C3633",
"d  c #6D3933",
"f  c #6A3D39",
"g  c #702F25",
"h  c #73342C",
"j  c #743B34",
"k  c #7B3B33",
"l  c #43354F",
"z  c #4B384F",
"x  c #49375A",
"c  c #4A3E50",
"v  c #5D3B44",
"b  c #5B3244",
"n  c #583052",
"m  c #4E2A60",
"M  c #55366B",
"N  c #513967",
"B  c #5B3C64",
"V  c #57307B",
"C  c #5D3B78",
"Z  c #683A54",
"A  c #6A3D59",
"S  c #722F4E",
"D  c #7A3E4F",
"F  c #7E3A51",
"G  c #622F66",
"H  c #692D6D",
"J  c #69346F",
"K  c #683A6F",
"L  c #63317D",
"P  c #65377B",
"I  c #732C6C",
"U  c #713764",
"Y  c #7B3767",
"T  c #713879",
"R  c #7B3278",
"E  c #52403E",
"W  c #66413D",
"Q  c #6A413C",
"!  c #75423C",
"~  c #7A423B",
"^  c #464443",
"/  c #4A4444",
"(  c #49404F",
")  c #484847",
"_  c #4E4255",
"`  c #554644",
"'  c #54474F",
"]  c #554846",
"[  c #574C4D",
"{  c #5E4644",
"}  c #5A4947",
"|  c #594848",
" . c #58405A",
".. c #524254",
"X. c #5C486F",
"o. c #624542",
"O. c #604946",
"+. c #684043",
"@. c #6F454A",
"#. c #6C4D4A",
"$. c #654054",
"%. c #654D52",
"&. c #68514E",
"*. c #6A5655",
"=. c #754541",
"-. c #754B47",
";. c #74484B",
":. c #735855",
">. c #745A5F",
",. c #7B5D5A",
"<. c #66407C",
"1. c #784C6F",
"2. c #724D7F",
"3. c #794575",
"4. c #4F2785",
"5. c #58208C",
"6. c #552484",
"7. c #5A2A99",
"8. c #701CAB",
"9. c #6D2D94",
"0. c #682A9E",
"q. c #613788",
"w. c #6C3C83",
"e. c #6C3798",
"r. c #6B3890",
"t. c #742986",
"y. c #7D2F80",
"u. c #79349B",
"i. c #7025A5",
"p. c #7D26A6",
"a. c #7F26A8",
"s. c #792AAC",
"d. c #7133AF",
"f. c #7434A1",
"g. c #7719C8",
"h. c #8E246F",
"j. c #822B7A",
"k. c #962A7F",
"l. c #933B7B",
"z. c #A42B7A",
"x. c #B52F69",
"c. c #B5237D",
"v. c #84453E",
"b. c #864A43",
"n. c #907E7E",
"m. c #9A7D7C",
"M. c #BE5F7C",
"N. c #C0357B",
"B. c #87169F",
"V. c #8D1DA2",
"C. c #971CA2",
"Z. c #9F17A3",
"A. c #9817B7",
"S. c #85208F",
"D. c #862A80",
"F. c #832396",
"G. c #822899",
"H. c #8A2C99",
"J. c #883182",
"K. c #873094",
"L. c #803899",
"P. c #8F3A90",
"I. c #83319B",
"U. c #952781",
"Y. c #90218E",
"T. c #9C268B",
"R. c #962E91",
"E. c #9E299C",
"W. c #913B95",
"Q. c #8A22A7",
"!. c #8C2FA1",
"~. c #8D2CA8",
"^. c #8C30A0",
"/. c #9227BF",
"(. c #962AB6",
"). c #9A23B8",
"_. c #9634AE",
"`. c #B41D9E",
"'. c #B91D95",
"]. c #A614AF",
"[. c #A91DBB",
"{. c #A5268E",
"}. c #A32482",
"|. c #A62894",
" X c #AF239B",
".X c #B3258E",
"XX c #BF3184",
"oX c #AB25A2",
"OX c #AB2FB3",
"+X c #A722B7",
"@X c #AA32AD",
"#X c #BC26AC",
"$X c #BF20B3",
"%X c #B53AAB",
"&X c #B63AB0",
"*X c #8A13C4",
"=X c #851CDA",
"-X c #9119DE",
";X c #862FC8",
":X c #8B23C6",
">X c #9F21C8",
",X c #9732D5",
"<X c #9838D6",
"1X c #A71DCC",
"2X c #A01AC2",
"3X c #A914D1",
"4X c #A930C8",
"5X c #AA3CC7",
"6X c #AA38C8",
"7X c #9E51BD",
"8X c #9E5AB7",
"9X c #8C7D8A",
"0X c #8C759F",
"qX c #9A639D",
"wX c #95778C",
"eX c #937D8B",
"rX c #9E7782",
"tX c #90719B",
"yX c #9F719B",
"uX c #8E68AE",
"iX c #8C72A0",
"pX c #966CA5",
"aX c #9E62AB",
"sX c #986EA1",
"dX c #A35F99",
"fX c #B3489F",
"gX c #B75F8E",
"hX c #B65895",
"jX c #BB5395",
"kX c #AF4CA8",
"lX c #AB43B0",
"zX c #A258B7",
"xX c #A956B0",
"cX c #B242AC",
"vX c #A66A9E",
"bX c #A3748A",
"nX c #A364A0",
"mX c #CD1794",
"MX c #D70E9D",
"NX c #DD0892",
"BX c #D61499",
"VX c #CB0FAF",
"CX c #C20FB7",
"ZX c #C30DBB",
"AX c #CB05B1",
"SX c #CF16AC",
"DX c #CB1AA6",
"FX c #C318B7",
"GX c #D015A7",
"HX c #C32997",
"JX c #CA3E8B",
"KX c #C14296",
"LX c #94807F",
"PX c #858282",
"IX c #8C8281",
"UX c #918181",
/* pixels */
"< W W } 7 . & O.*.LXLX,.v.b.4 5 q r #   ",
"2 a ` 3 1 E 7 #.:.LXLX#.! p % d % $ h 5 ",
"W w 1 , ) ) } >.%.m.m.[ O X o Q E O.W , ",
"#.E 3 1 ^ z M w.T rXbX1.V + < 7 &.W O ^ ",
"W 5 q < z 9.f.j.R qX7XP.a.a.G.Z ~ j ] ` ",
"d t y v q.u.u.U.l.vX,X{.h.G.8.6.v -.W E ",
"h d j R ;X_.^.K.:XcXfXY.}.B.t.s.x } t E ",
"k j F J.:X>X^.s.-X#XOXR..XF.j.H.@.E E 0 ",
"-.;.F 1.(.[.'.].DXVXZXFX Xz.{.K.3.' ) l ",
"eX9XiXtX<X&X%X3XMXAXZXBXKXvXjXxXyXUXIXPX",
"LXLXeXnX6X5XkX$XGXCXCXNXJXgXKXzXsX0Xm.IX",
"Q @.2.W.A.2X~.+XDXSXZXmX@XHX+XH.P X.W o.",
"k +.C s.C.|.*X*X].1X4XN.N..XR.D  .v h k ",
"! } _ P H {.A.B.c.cXjXx.`.oXY J ..w ~ k ",
"9 W b M m j.k.S.(.gXhXz.*XV.S G l p h 6 ",
"> q 9 x 5.9.i.g.=XaX8XI.q.0.I U ( t h < ",
"f 1 E p A P d.7.r.pXuXe.J 4.: i 7 g h > ",
"j 8 Q j 3 9 F n N 0XwXZ i : 4 d k e t +.",
"o.} W 5 . - ~ r p n.m.` 3 o.W 6 y = q ! ",
"8 8 q 2 1 1 < r f PXm.-.E O.j 5 0 t d &."
};
