/* XPM */
static char *FL[] = {
/* columns rows colors chars-per-pixel */
"20 20 68 1",
"  c #1B1B1B",
". c #1C1C1C",
"X c #1D1D1D",
"o c #1F1F1F",
"O c #202020",
"+ c #232323",
"@ c #242424",
"# c #252525",
"$ c #262626",
"% c #272727",
"& c #282828",
"* c #292929",
"= c #2A2A2A",
"- c #2B2B2B",
"; c #2C2C2C",
": c #2D2D2D",
"> c #2E2E2E",
", c #2F2F2F",
"< c #303030",
"1 c #313131",
"2 c #323232",
"3 c #333333",
"4 c #343434",
"5 c #353535",
"6 c #363636",
"7 c #373737",
"8 c #383838",
"9 c #393939",
"0 c #3A3A3A",
"q c #3B3B3B",
"w c #3C3C3C",
"e c #3D3D3D",
"r c #3E3E3E",
"t c #3F3F3F",
"y c #404040",
"u c #414141",
"i c #424242",
"p c #434343",
"a c #444444",
"s c #454545",
"d c #464646",
"f c #474747",
"g c #484848",
"h c #494949",
"j c #4A4A4A",
"k c #4B4B4B",
"l c #4C4C4C",
"z c #4D4D4D",
"x c #4E4E4E",
"c c #4F4F4F",
"v c #505050",
"b c #515151",
"n c #525252",
"m c #545454",
"M c #565656",
"N c #575757",
"B c #585858",
"V c #5D5D5D",
"C c #5E5E5E",
"Z c #818181",
"A c #828282",
"S c #838383",
"D c #848484",
"F c #858585",
"G c #868686",
"H c #878787",
"J c #8A8A8A",
"K c #8B8B8B",
/* pixels */
"3yyj5%:dMDDCdj%3q% X",
"5rdqrrqzBDDvd5+5=X=3",
"rrq:dddVzZZzq=3qyjy3",
"jrrryqqrqZDv5=:5zy5d",
"y3r3rqr=5ZZj:==qy5jd",
"33:5yrd=dZZd=:+=qzrr",
"3535vzjqdZDyq5=ryj:q",
"qqq3dddqjZZv5::3yrrq",
"jdqrjvdqjZDv5qyjvjdr",
"DZZDDDDDDKKDDDDDDDZZ",
"DDDHDDDDHHKZDDDDDDZZ",
"ydvzrjdzvDDzzvzqyzrd",
"qrr5:q%+5ZDMdq55yq3q",
"dddd33X=yZZr3yqryqr5",
"rq:q==33jDZryq:35q::",
":5qq+333dDZzr5=5y335",
"rqrqrqy5yDDd5: 35=3:",
"5qy5rqr3rZDy3=+33X3y",
"ydr::=r%5ZZjqdr33%5y",
"rrq3qq5%qZZzydq3535v"
};
