/* XPM */
static char *P0[] = {
/* columns rows colors chars-per-pixel */
"20 20 238 2",
"   c #010201",
".  c #020202",
"X  c #030203",
"o  c #030303",
"O  c #040304",
"+  c #040404",
"@  c #050505",
"#  c #060606",
"$  c #070707",
"%  c #000B03",
"&  c #020903",
"*  c #050805",
"=  c #060906",
"-  c #050E06",
";  c #080808",
":  c #090909",
">  c #0A0A0A",
",  c #0B0B0B",
"<  c #0C0C0C",
"1  c #0D0D0D",
"2  c #0E0E0E",
"3  c #0F0F0F",
"4  c #011104",
"5  c #011707",
"6  c #061708",
"7  c #011D08",
"8  c #111111",
"9  c #131313",
"0  c #101410",
"q  c #111511",
"w  c #141414",
"e  c #151515",
"r  c #171717",
"t  c #181818",
"y  c #191919",
"u  c #1A1A1A",
"i  c #1B1B1B",
"p  c #1C1B1C",
"a  c #1C1C1C",
"s  c #1E1E1E",
"d  c #1F1F1F",
"f  c #01210A",
"g  c #022F10",
"h  c #013212",
"j  c #023212",
"k  c #003916",
"l  c #043815",
"z  c #083917",
"x  c #1D3A28",
"c  c #202020",
"v  c #222222",
"b  c #232323",
"n  c #242424",
"m  c #252525",
"M  c #262626",
"N  c #272727",
"B  c #282828",
"V  c #292929",
"C  c #2A2A2A",
"Z  c #2B2B2B",
"A  c #2C2C2C",
"S  c #2D2D2D",
"D  c #2E2E2E",
"F  c #2F2F2F",
"G  c #233528",
"H  c #2A3F31",
"J  c #2D3F34",
"K  c #303030",
"L  c #313131",
"P  c #323232",
"I  c #333232",
"U  c #333333",
"Y  c #323633",
"T  c #333434",
"R  c #343434",
"E  c #353535",
"W  c #363636",
"Q  c #303931",
"!  c #333A37",
"~  c #313C36",
"^  c #353A36",
"/  c #383838",
"(  c #393839",
")  c #393939",
"_  c #3A3A3A",
"`  c #3B3B3B",
"'  c #393E3A",
"]  c #3C3C3C",
"[  c #3D3D3D",
"{  c #3E3D3D",
"}  c #3E3E3E",
"|  c #3F3E3E",
" . c #3F3F3F",
".. c #034019",
"X. c #02471E",
"o. c #004920",
"O. c #024C23",
"+. c #024D23",
"@. c #004E24",
"#. c #014E24",
"$. c #034E25",
"%. c #044E25",
"&. c #074D26",
"*. c #064F27",
"=. c #0A4A24",
"-. c #084D29",
";. c #0A4F2E",
":. c #0E4B2E",
">. c #0C4F2D",
",. c #015027",
"<. c #035027",
"1. c #005128",
"2. c #025029",
"3. c #025129",
"4. c #035128",
"5. c #02512A",
"6. c #02512B",
"7. c #02522A",
"8. c #02532B",
"9. c #01532C",
"0. c #03512D",
"q. c #02532D",
"w. c #02542A",
"e. c #01552F",
"r. c #02542D",
"t. c #04502B",
"y. c #06502B",
"u. c #04522D",
"i. c #05522D",
"p. c #04562D",
"a. c #04572D",
"s. c #01582F",
"d. c #01592F",
"f. c #005B31",
"g. c #015D33",
"h. c #005F34",
"j. c #0C5131",
"k. c #0E5230",
"l. c #0C5532",
"z. c #164629",
"x. c #134E2F",
"c. c #18442B",
"v. c #1C4429",
"b. c #114C32",
"n. c #164B33",
"m. c #1A4B39",
"M. c #175135",
"N. c #1D563C",
"B. c #016138",
"V. c #016338",
"C. c #016439",
"Z. c #01653A",
"A. c #01683E",
"S. c #214537",
"D. c #2E4136",
"F. c #2D4539",
"G. c #3A463E",
"H. c #006D41",
"J. c #016E41",
"K. c #006F42",
"L. c #007043",
"P. c #017043",
"I. c #017A4B",
"U. c #017C4D",
"Y. c #017F50",
"T. c #285140",
"R. c #285644",
"E. c #2A5841",
"W. c #354E45",
"Q. c #3B4640",
"!. c #3B4642",
"~. c #384B41",
"^. c #3E4B47",
"/. c #306643",
"(. c #326745",
"). c #404040",
"_. c #414141",
"`. c #424242",
"'. c #434343",
"]. c #444444",
"[. c #454444",
"{. c #454445",
"}. c #464646",
"|. c #474647",
" X c #474747",
".X c #474D4A",
"XX c #484748",
"oX c #484848",
"OX c #494949",
"+X c #4A4A4A",
"@X c #4B4B4B",
"#X c #4C4C4C",
"$X c #4E4D4E",
"%X c #4F4F4F",
"&X c #535353",
"*X c #525755",
"=X c #545454",
"-X c #5B5D5C",
";X c #5C5C5C",
":X c #5E5E5E",
">X c #57615E",
",X c #636664",
"<X c #676767",
"1X c #696969",
"2X c #6C6C6C",
"3X c #707070",
"4X c #747474",
"5X c #757575",
"6X c #797979",
"7X c #7B7B7B",
"8X c #008B5A",
"9X c #00915F",
"0X c #009965",
"qX c #019864",
"wX c #00A66F",
"eX c #00A872",
"rX c #00AD75",
"tX c #00B67C",
"yX c #00BA7F",
"uX c #768178",
"iX c #788279",
"pX c #00BD82",
"aX c #00BF84",
"sX c #00C387",
"dX c #00CA8C",
"fX c #00D293",
"gX c #00D595",
"hX c #00DA99",
"jX c #00DF9D",
"kX c #00E6A2",
"lX c #00E7A3",
"zX c #00E8A4",
"xX c #00EBA6",
"cX c #00ECA7",
"vX c #00EFA9",
"bX c #00F0AA",
"nX c #00F3AC",
"mX c #00F4AD",
/* pixels */
"U Q._.XXE N A [.*XuXiX-X[.+XM U _ M u d ",
"E } |.` } } ^ W.R.(.(.T.~.Y b E V d A U ",
").] ` S [.^.m.l.u.p.p.u.;.v.J ` | |.'.U ",
"#X| | { !.n.6.6.f.C.C.e.2.&.v.^ $X).E |.",
"'.L ` E S.y.q.J.wXaXaX0XV.6.-.F.'.W XXXX",
"U F A ! b.6.A.pXvXmXnXkXeXg.$.z.` #X| ] ",
"I E I J j.q.9XlXmXmXmXmXhXI.6.x.G.XXA _ ",
"_ ` ` H ;.e.wXvXmXmXmXmXkX8X6.:.G.Q.} _ ",
"#X'.E D.k.q.0XxXmXmXmXmXjXY.6.M..X[.'.} ",
"7X4X2X>XN.q.L.dXvXmXnXvXtXB.u.E.,X3X4X6X",
"1X;X+XE x &.w.U.yXgXfXrXJ.<.=.G _ %X:X<X",
"M a e 2 6 k $.6.g.L.J.f.<.O.l - : e y V ",
"9 < + +   5 k o.O.&.&.O.X.h 4   + * : 9 ",
"8 < ; ; +   % f h z l h 7 &   + + ; < , ",
"< , + : + + + + * q q * + + + + ; ; + ; ",
", : : : + : * + < a a 2 : : + : , ; ; : ",
"r 3 < ; : : < ; , a d < ; + + ; : + < 8 ",
"d a y 2 2 : < * < a a < + ; + : 2 : 9 n ",
"E R N y e 8 y < 8 L L y e a a r a y M U ",
"/ E L V A V n e c &X&XL Z A V n V Z U +X"
};
