/* XPM */
static char *P1[] = {
/* columns rows colors chars-per-pixel */
"20 20 256 2",
"   c #0C191E",
".  c #111517",
"X  c #1A1D1F",
"o  c #171A1C",
"O  c #0D1C23",
"+  c #081A2A",
"@  c #07153F",
"#  c #0C1E30",
"$  c #171F22",
"%  c #1B1F21",
"&  c #06232D",
"*  c #0A222A",
"=  c #062434",
"-  c #072A36",
";  c #052D3A",
":  c #092935",
">  c #0A2D39",
",  c #02213A",
"<  c #05313F",
"1  c #0B323E",
"2  c #18272C",
"3  c #13242A",
"4  c #122B34",
"5  c #1E2D36",
"6  c #182F38",
"7  c #14303E",
"8  c #1A323C",
"9  c #212223",
"0  c #232628",
"q  c #25292B",
"w  c #2A2929",
"e  c #252C30",
"r  c #23353C",
"t  c #283338",
"y  c #2E383D",
"u  c #2D3336",
"i  c #343434",
"p  c #31373A",
"a  c #333A3E",
"s  c #383838",
"d  c #011742",
"f  c #021C45",
"g  c #021C5D",
"h  c #021D6E",
"j  c #062641",
"k  c #072B51",
"l  c #063343",
"z  c #06374E",
"x  c #073A4B",
"c  c #0B3644",
"v  c #093E4F",
"b  c #03355F",
"n  c #083F50",
"m  c #123846",
"M  c #163D4B",
"N  c #1B3742",
"B  c #193746",
"V  c #1C3056",
"C  c #042F68",
"Z  c #082362",
"A  c #022466",
"S  c #01297A",
"D  c #082B77",
"F  c #04376E",
"G  c #003B6F",
"H  c #0F3160",
"J  c #09376C",
"K  c #03337B",
"L  c #033A74",
"P  c #013D7E",
"I  c #053375",
"U  c #1D3B66",
"Y  c #263A43",
"T  c #233F4A",
"R  c #2C3B42",
"E  c #393E41",
"W  c #353C40",
"Q  c #283A6D",
"!  c #263F73",
"~  c #263879",
"^  c #25367D",
"/  c #064457",
"(  c #074A5D",
")  c #0A4152",
"_  c #0A495D",
"`  c #034559",
"'  c #134758",
"]  c #174353",
"[  c #054267",
"{  c #01416E",
"}  c #074D62",
"|  c #094767",
" . c #024075",
".. c #01427F",
"X. c #004F72",
"o. c #0A407B",
"O. c #065268",
"+. c #01547B",
"@. c #164777",
"#. c #1C4875",
"$. c #184B7C",
"%. c #184272",
"&. c #15506E",
"*. c #135F77",
"=. c #12507A",
"-. c #08606D",
";. c #1E6070",
":. c #126A75",
">. c #2B414A",
",. c #2C4854",
"<. c #2C4D5B",
"1. c #284551",
"2. c #24505F",
"3. c #3B4246",
"4. c #3C454A",
"5. c #3F484C",
"6. c #30434C",
"7. c #334150",
"8. c #344D59",
"9. c #3A4A51",
"0. c #3A4F5B",
"q. c #344B56",
"w. c #3B525C",
"e. c #33505D",
"r. c #2D4264",
"t. c #25447E",
"y. c #2F566A",
"u. c #354E61",
"i. c #3B4D68",
"p. c #314C7A",
"a. c #38477B",
"s. c #335364",
"d. c #32516A",
"f. c #3D5763",
"g. c #3F5768",
"h. c #3A5C6B",
"j. c #474A4D",
"k. c #444D53",
"l. c #44475A",
"z. c #43535C",
"x. c #4A5357",
"c. c #545555",
"v. c #405762",
"b. c #425965",
"n. c #455D69",
"m. c #4A5762",
"M. c #475C7A",
"N. c #555862",
"B. c #545B72",
"V. c #45617E",
"C. c #5A6367",
"Z. c #5A676E",
"A. c #586B7A",
"S. c #666F75",
"D. c #012685",
"F. c #012C83",
"G. c #022A89",
"H. c #022B90",
"J. c #023381",
"K. c #01388D",
"L. c #043288",
"P. c #01369B",
"I. c #033E92",
"U. c #023F9F",
"Y. c #013295",
"T. c #243E80",
"R. c #243C8C",
"E. c #2B3F98",
"W. c #323D88",
"Q. c #024182",
"!. c #01448B",
"~. c #09498F",
"^. c #074989",
"/. c #014397",
"(. c #094794",
"). c #005585",
"_. c #015C8F",
"`. c #0F539C",
"'. c #164689",
"]. c #114F88",
"[. c #1F409E",
"{. c #105181",
"}. c #0045A2",
"|. c #1645A6",
" X c #0C6F88",
".X c #06618B",
"XX c #0C6198",
"oX c #23428F",
"OX c #2C458F",
"+X c #274989",
"@X c #204598",
"#X c #274E91",
"$X c #2F4493",
"%X c #2C4A93",
"&X c #2F538F",
"*X c #2E5A8D",
"=X c #2E539E",
"-X c #344A85",
";X c #3A4B84",
":X c #384A8E",
">X c #304293",
",X c #3F5982",
"<X c #385687",
"1X c #37579F",
"2X c #375890",
"3X c #365999",
"4X c #385591",
"5X c #355792",
"6X c #354FA9",
"7X c #3655A2",
"8X c #3D52A3",
"9X c #385DA7",
"0X c #3E57B3",
"qX c #206187",
"wX c #2B6980",
"eX c #226D8A",
"rX c #2E6091",
"tX c #247580",
"yX c #3E619D",
"uX c #415394",
"iX c #465985",
"pX c #4757A1",
"aX c #4159A0",
"sX c #4C5CA4",
"dX c #406686",
"fX c #496B8F",
"gX c #466F98",
"hX c #586E8E",
"jX c #59639B",
"kX c #4560A1",
"lX c #6B6F82",
"zX c #627A90",
"xX c #737D83",
"cX c #697FB6",
"vX c #028781",
"bX c #028B8F",
"nX c #098D8A",
"mX c #02889D",
"MX c #058C96",
"NX c #0A9E8E",
"BX c #049289",
"VX c #0586A0",
"CX c #0996A7",
"ZX c #09BCA6",
"AX c #03B3AD",
"SX c #0FB5BC",
"DX c #02B2BA",
"FX c #09CAB5",
"GX c #11C0AD",
"HX c #708088",
"JX c #788086",
"KX c #7F8991",
"LX c #7A8C9E",
"PX c #6C84B4",
"IX c #6A81B8",
"UX c #748AAA",
/* pixels */
"p 4.f.n.8.T R k.N.KXLXA.j.m.2.y 3.1.7 8 ",
"a j.z.9.5.h.d.M.B.UXUXiXl.7.>.a t 1.>.y ",
"j.9.q.u z.,X9XsXuXcXIX8XW.^ r.e.9.z.f.y ",
"k.w.h.w.b.%X>X;X7XcXPX0XE.t.#X*XV.f.q.k.",
"z.6.9.y.2X%X4X#X*XgXgX*XoX~ ! -X;X8.n.b.",
"8.<.1.p.4Xa.uX`.*.tXeX:.=.Q U T.a.M.f.4.",
"W e.y.&XaXuX;. XNXGXSXCXXX#.t.&X4X,X<.8.",
"W 9.u.$X6Xa.;.VXFXFXFXFXnX{.R.%X3X<X0.g.",
"x.g.d.p.7Xg.&.VXDXGXZXAXBX=.+X1XgX<Xv.E ",
"JXxXzXhXaX3X@.-.mXBXbXvX.X$.<XpXjXlXxXxX",
"S.C.V.*X[.|.(.+._.).+. .Q.~.'.E.E.x.Z.S.",
"Y 8 M | F /.L X.!.G  .S K.^.Q.G.D 7 % Y ",
"m c x , @ P A J.S L I.h G.}.P.Y.A l > ' ",
"c > x = f ..K G.h k D D.U./.H.K # l ) ) ",
"  * ; : + b  .K K V ^.I.L.!.S F ( ( l - ",
"O < ) ) ; z z [ F %.'.o.Z I L | ( > & * ",
"3   c } ( ) ) / # V M # d j ` O.- ; O . ",
"9 X 2 1 _ v _ / * 5 Y > l = & } n n 4 q ",
"i i w X 3 4 B : 3 R a 6 ' ] 6 M N 2 w i ",
"s s i w w w 0 o 9 c.c.a y ,.Y e w w i j."
};
