/* XPM */
static char *WA[] = {
/* columns rows colors chars-per-pixel */
"20 20 163 2",
"   c #040203",
".  c #040303",
"X  c #070304",
"o  c #070505",
"O  c #070506",
"+  c #080505",
"@  c #0A0607",
"#  c #0B0607",
"$  c #0A0708",
"%  c #0B0708",
"&  c #0C0809",
"*  c #0D0A0A",
"=  c #0D0A0B",
"-  c #0E0B0B",
";  c #0F0A0B",
":  c #0D0B0C",
">  c #0F0B0C",
",  c #0E0C0C",
"<  c #0E0C0D",
"1  c #0F0C0C",
"2  c #100D0E",
"3  c #110D0E",
"4  c #100E0F",
"5  c #110E0E",
"6  c #110E0F",
"7  c #120C0D",
"8  c #120D0E",
"9  c #130D0F",
"0  c #120F0F",
"q  c #140E0F",
"w  c #120F10",
"e  c #130F10",
"r  c #140F10",
"t  c #121010",
"y  c #141011",
"u  c #141111",
"i  c #151011",
"p  c #151112",
"a  c #151212",
"s  c #161011",
"d  c #161012",
"f  c #161112",
"g  c #171113",
"h  c #171213",
"j  c #171314",
"k  c #171415",
"l  c #181213",
"z  c #181214",
"x  c #181314",
"c  c #191314",
"v  c #191315",
"b  c #191415",
"n  c #181516",
"m  c #191416",
"M  c #181616",
"N  c #1A1415",
"B  c #1A1416",
"V  c #1A1516",
"C  c #1B1516",
"Z  c #1B1517",
"A  c #1A1616",
"S  c #1A1617",
"D  c #1B1617",
"F  c #1C1617",
"G  c #1B1718",
"H  c #1C1618",
"J  c #1C1718",
"K  c #1D1718",
"L  c #1D1719",
"P  c #1C1819",
"I  c #1D1819",
"U  c #1D1919",
"Y  c #1D191A",
"T  c #1E1819",
"R  c #1E181A",
"E  c #1E191A",
"W  c #1F191A",
"Q  c #1F191B",
"!  c #1E1B1B",
"~  c #1F1A1B",
"^  c #1F1B1C",
"/  c #1F1C1D",
"(  c #201A1B",
")  c #201A1C",
"_  c #201B1C",
"`  c #211B1C",
"'  c #211B1D",
"]  c #201C1D",
"[  c #211C1D",
"{  c #221C1D",
"}  c #221D1E",
"|  c #231D1E",
" . c #231D1F",
".. c #221E1F",
"X. c #221F1F",
"o. c #231E1F",
"O. c #221F20",
"+. c #231F20",
"@. c #241E20",
"#. c #241F20",
"$. c #251F20",
"%. c #251F21",
"&. c #242021",
"*. c #252021",
"=. c #252122",
"-. c #262021",
";. c #262022",
":. c #262122",
">. c #272122",
",. c #262223",
"<. c #272223",
"1. c #272324",
"2. c #282223",
"3. c #282224",
"4. c #282324",
"5. c #292325",
"6. c #292425",
"7. c #282526",
"8. c #292526",
"9. c #2B2527",
"0. c #2A2627",
"q. c #2B2728",
"w. c #2C2728",
"e. c #2D2729",
"r. c #2D282A",
"t. c #2E2829",
"y. c #2E292A",
"u. c #2F292B",
"i. c #302B2C",
"p. c #312B2D",
"a. c #312C2D",
"s. c #322C2D",
"d. c #322D2E",
"f. c #332D2F",
"g. c #342E30",
"h. c #342F30",
"j. c #352F30",
"k. c #352F31",
"l. c #353031",
"z. c #363132",
"x. c #373133",
"c. c #383234",
"v. c #383334",
"b. c #3A3536",
"n. c #3B3536",
"m. c #3B3637",
"M. c #3C3738",
"N. c #3D3739",
"B. c #3C3839",
"V. c #3E383A",
"C. c #403A3B",
"Z. c #413B3D",
"A. c #413C3D",
"S. c #423D3F",
"D. c #443E3F",
"F. c #443E40",
"G. c #454041",
"H. c #474143",
"J. c #474244",
"K. c #494445",
"L. c #494546",
"P. c #4C4748",
"I. c #514C4D",
/* pixels */
"; # s ) ) { *.J 7 $ #.j.v.e.x D B x x x ",
"X 1 #.2.{ D x j $ > M.j.v.#.x x x x x x ",
"9.m.j.9.{ *.u.w.1 J.g.+.#.Z x D x x x x ",
"s.2.D F J ) U s =.v.U { ) x x x B l l B ",
"D l s D j D s { @.r #.J J ( D x ( f D l ",
"l D D U j J ) U ; #.c.J x x e f r 7 D x ",
"D U U s t #.U & X D e.) #.) ( B x ( ) D ",
"D s ; 1.s.*.> 1 L.P.F.c.%.( J D J D D D ",
"=.4.g.w.%.j o %.J.+.J x Z x x Z D x x x ",
"+.#.4 r +.  e g.k.x Z x x x x Z Z D J ) ",
"#.4./ +.e / P.L.2.x x x x x J D x x Z J ",
"b.g.w.g./ V.F.@.D x x x x x x e r D J J ",
"j D %.P k F.u.@.x Z x x x x x Z J J J R ",
"j j Z & q.b.q.g.R J Z x x Z Z D Z J J J ",
"D Y e e F.=.D P > Z r R J D Z Z x x D x ",
"j M +.v.B.7.F.j.D r @.M.@.J l r x x J J ",
"j / 2.u.D %.v.#.D =.M.k.D r r x Z J / J ",
"Z j x r j +.e.) r / j.=.#.) ) ) ) @./ D ",
"D D D / @.e @.$ o +.) > ) e Z +.Z 4 X e ",
"/ Z D j   2 e.e j D / q.j.+.e > X > q.V."
};
