/* XPM */
static char *X0[] = {
/* columns rows colors chars-per-pixel */
"20 20 85 1",
"  c #010101",
". c #020202",
"X c #030303",
"o c #040404",
"O c #050505",
"+ c #060606",
"@ c #070707",
"# c #080808",
"$ c #090909",
"% c #0A0A0A",
"& c #0B0B0B",
"* c #0C0C0C",
"= c #0D0D0D",
"- c #0E0E0E",
"; c #0F0F0F",
": c #101010",
"> c #111111",
", c #121212",
"< c #131313",
"1 c #141414",
"2 c #161616",
"3 c #171717",
"4 c #181818",
"5 c #191919",
"6 c #1A1A1A",
"7 c #1B1B1B",
"8 c #1C1C1C",
"9 c #1D1D1D",
"0 c #1E1E1E",
"q c #1F1F1F",
"w c #202020",
"e c #212121",
"r c #222222",
"t c #232323",
"y c #242424",
"u c #252525",
"i c #262626",
"p c #272727",
"a c #282828",
"s c #292929",
"d c #2A2A2A",
"f c #2B2B2B",
"g c #2C2C2C",
"h c #2D2D2D",
"j c #2E2E2E",
"k c #2F2F2F",
"l c #303030",
"z c #313131",
"x c #323232",
"c c #333333",
"v c #343434",
"b c #353535",
"n c #363636",
"m c #373737",
"M c #383838",
"N c #393939",
"B c #3A3A3A",
"V c #3B3B3B",
"C c #3C3C3C",
"Z c #3D3D3D",
"A c #3E3E3E",
"S c #3F3F3F",
"D c #404040",
"F c #414141",
"G c #424242",
"H c #434343",
"J c #444444",
"K c #454545",
"L c #464646",
"P c #474747",
"I c #484848",
"U c #494949",
"Y c #4A4A4A",
"T c #4B4B4B",
"R c #505050",
"E c #555555",
"W c #585858",
"Q c #595959",
"! c #5A5A5A",
"~ c #5C5C5C",
"^ c #7D7D7D",
"/ c #7E7E7E",
"( c #7F7F7F",
") c #808080",
"_ c #818181",
/* pixels */
"cDDYbdhLE()~LTicbiqq",
"bALVAAcADQQVbhwbdwdc",
"DVVhDbdhwbbq61iVALDc",
"YAAVdq>>>hh6>#>iYDbL",
"LcVw6->##qq-##-6dcYL",
"chq61--O#16#OOO#6VAV",
"cc6>6-#OO--OOOO>6diV",
"Vh6->##OO##OXXO->qhV",
"Yc1->#OOXOOXXO#-66hA",
"(Qbhq6-#OOOO#-6qhbQ)",
")QVhq6-#OOXO#-6qhVE(",
"Acw6##OXXOOXO###>qhL",
"Vc6-#OXXO##OOOO-16iV",
"LAi6-#XXO->OO##>1wVb",
"AVw6-##O#61####-6ihh",
"hVbi---O-qq---#6dhcc",
"AVDcd61->hh1--#wbdch",
"bVDbVdi16bb6>16ccqcD",
"LYVhhdVqiQQccDAccibD",
"VVVcVVbib((YDLVcccVR"
};
