/* XPM */
static char *X1[] = {
/* columns rows colors chars-per-pixel */
"20 20 104 2",
"   c #010101",
".  c #030303",
"X  c #040403",
"o  c #040404",
"O  c #050504",
"+  c #050505",
"@  c #060605",
"#  c #060606",
"$  c #070707",
"%  c #080808",
"&  c #090909",
"*  c #0A0A0A",
"=  c #0B0B0B",
"-  c #0C0C0C",
";  c #0D0D0D",
":  c #0E0E0E",
">  c #0E0F0F",
",  c #0F0F0F",
"<  c #050213",
"1  c #050314",
"2  c #060414",
"3  c #070415",
"4  c #070515",
"5  c #070516",
"6  c #101010",
"7  c #111111",
"8  c #121212",
"9  c #131313",
"0  c #141414",
"q  c #161616",
"w  c #171717",
"e  c #181818",
"r  c #191919",
"t  c #1A1A1A",
"y  c #1B1B1B",
"u  c #1C1C1C",
"i  c #1D1D1D",
"p  c #1E1E1E",
"a  c #1F1F1F",
"s  c #0F0933",
"d  c #100A33",
"f  c #202020",
"g  c #212121",
"h  c #222222",
"j  c #232323",
"k  c #242424",
"l  c #252525",
"z  c #262626",
"x  c #272727",
"c  c #282828",
"v  c #292929",
"b  c #2A2A2A",
"n  c #2B2B2B",
"m  c #2C2C2C",
"M  c #2D2D2D",
"N  c #2E2E2E",
"B  c #2F2F2F",
"V  c #303030",
"C  c #313131",
"Z  c #323232",
"A  c #333333",
"S  c #343434",
"D  c #353535",
"F  c #363636",
"G  c #373737",
"H  c #383838",
"J  c #393939",
"K  c #3A3A3A",
"L  c #3B3B3B",
"P  c #3C3C3C",
"I  c #3D3D3D",
"U  c #3E3E3E",
"Y  c #3F3F3F",
"T  c #120249",
"R  c #120348",
"E  c #120349",
"W  c #2A036A",
"Q  c #2B046A",
"!  c #2B056A",
"~  c #404040",
"^  c #414141",
"/  c #424242",
"(  c #434343",
")  c #444444",
"_  c #454545",
"`  c #464646",
"'  c #474747",
"]  c #484848",
"[  c #494949",
"{  c #4A4A4A",
"}  c #4B4B4B",
"|  c #505050",
" . c #555555",
".. c #585858",
"X. c #595959",
"o. c #5A5A5A",
"O. c #5C5C5C",
"+. c #7D7D7D",
"@. c #7E7E7E",
"#. c #7F7F7F",
"$. c #5E029C",
"%. c #5E039C",
"&. c #808080",
"*. c #818181",
/* pixels */
"A ~ ~ { D b M `  .#.*.O.` { z A H z y a ",
"D U ` L U U A U ~ X.X.L D B f D b a b A ",
"~ L L M Y D b M f D D a t 0 z L ~ ' ~ A ",
"{ U U L M t 9 9 7 n M t 6 - 7 j ] ~ F ` ",
"` A L f t : 7 % $ a a > % = = t b A { ' ",
"A M a t 0 : : O % w w % X O O % t L U K ",
"A A t 7 t : % O O > > O $ O $ 7 w b b K ",
"L M t : 7 % % O 3 s s 3 X O O = 7 a B H ",
"{ A 9 7 : = O 3 T W Q T 3 O % : t y B P ",
"#.X.F M a t > d W $.$.! s : w a M H X.#.",
"#.X.L M a w > d W $.$.! d : t a M F X.#.",
"~ B f w = % O 3 T Q Q T 3 % % % 9 a b ( ",
"K A a : % O o   3 d d 3 O O $ : 0 t z L ",
"` Y z w : %   X O : : O O % % 7 0 a L D ",
"K U j t : % % O % t 0 % % % % : e b M B ",
"V F D z : : : % = a a : : : = w b B B A ",
"U L Y A b t w : 9 M b 9 > : % f A b A B ",
"D L ~ F K b j 9 t D F t 9 0 t A A a B ~ ",
"( ' P M B b K a x X.X.A V ~ U A A x D ~ ",
"P U L A K K F z F +.#.{ ( ' L A A A L | "
};
