/* XPM */
static char *C0[] = {
/* columns rows colors chars-per-pixel */
"30 30 213 2",
"   c #161616",
".  c #1A1910",
"X  c #1C1C1C",
"o  c #232112",
"O  c #242424",
"+  c #26272A",
"@  c #25292A",
"#  c #2C2C2C",
"$  c #2E2F30",
"%  c #2A302F",
"&  c #2E3332",
"*  c #312F2B",
"=  c #312E33",
"-  c #33283B",
";  c #343224",
":  c #32312E",
">  c #3A3828",
",  c #333333",
"<  c #363639",
"1  c #363A3C",
"2  c #38363A",
"3  c #393933",
"4  c #3C3C3C",
"5  c #273F4C",
"6  c #3A2849",
"7  c #3E3E40",
"8  c #2E4F5C",
"9  c #33454D",
"0  c #3B4143",
"q  c #374D55",
"w  c #384850",
"e  c #39525C",
"r  c #235668",
"t  c #2C5360",
"y  c #2C5E70",
"u  c #315561",
"i  c #375A67",
"p  c #3A5864",
"a  c #3F5F6C",
"s  c #336070",
"d  c #3A6D7F",
"f  c #403F3C",
"g  c #49275D",
"h  c #4B2C5C",
"j  c #41344A",
"k  c #413D43",
"l  c #473354",
"z  c #493456",
"x  c #4B3359",
"c  c #4B3F53",
"v  c #50385F",
"b  c #4C2960",
"n  c #513463",
"m  c #56336E",
"M  c #59396C",
"N  c #663A7F",
"B  c #444233",
"V  c #44433B",
"C  c #4D4A36",
"Z  c #4A4A3D",
"A  c #514C2C",
"S  c #575229",
"D  c #515037",
"F  c #5A5636",
"G  c #645E2E",
"H  c #615C34",
"J  c #655F3B",
"K  c #6A653D",
"L  c #6F6936",
"P  c #726D3A",
"I  c #7C753B",
"U  c #434343",
"Y  c #464A4B",
"T  c #484748",
"R  c #484947",
"E  c #4B4B4B",
"W  c #4C4E51",
"Q  c #435359",
"!  c #4F5456",
"~  c #4B565B",
"^  c #504E40",
"/  c #504E4B",
"(  c #51455B",
")  c #5D5A43",
"_  c #5D5A48",
"`  c #535353",
"'  c #525658",
"]  c #565C5D",
"[  c #5B5B5B",
"{  c #465961",
"}  c #594167",
"|  c #5B426B",
" . c #5C4F67",
".. c #43616D",
"X. c #426370",
"o. c #406979",
"O. c #486470",
"+. c #624375",
"@. c #644D72",
"#. c #67487C",
"$. c #6A517B",
"%. c #6A6643",
"&. c #6D6842",
"*. c #6E694B",
"=. c #676553",
"-. c #716B44",
";. c #646463",
":. c #606864",
">. c #69616F",
",. c #6A6A6A",
"<. c #6E6673",
"1. c #6E6972",
"2. c #6F706F",
"3. c #756B7C",
"4. c #737373",
"5. c #7A767C",
"6. c #33778E",
"7. c #307B94",
"8. c #327E98",
"9. c #6C3F85",
"0. c #713194",
"q. c #76359A",
"w. c #703A91",
"e. c #77389A",
"r. c #793D9D",
"t. c #497383",
"y. c #6E4885",
"u. c #72498B",
"i. c #764096",
"p. c #7B469C",
"a. c #76548D",
"s. c #785A8C",
"d. c #7F45A3",
"f. c #7D6091",
"g. c #3C839D",
"h. c #3C86A1",
"j. c #3DAACE",
"k. c #3EB3DA",
"l. c #3FB8E0",
"z. c #3FC1EB",
"x. c #458197",
"c. c #44849C",
"v. c #4287A0",
"b. c #4098B7",
"n. c #439CBC",
"m. c #42ABCF",
"M. c #41B9E1",
"N. c #42C3EE",
"B. c #40C8F4",
"V. c #43D2FF",
"C. c #877E34",
"Z. c #81793A",
"A. c #8E3DBA",
"S. c #913FBD",
"D. c #943DC3",
"F. c #9B3DCE",
"G. c #A03FD5",
"H. c #A73DDF",
"J. c #AA3CE3",
"K. c #814EA1",
"L. c #854CA9",
"P. c #8945B1",
"I. c #8F40BB",
"U. c #8E4CB5",
"Y. c #8551A5",
"T. c #8C52AF",
"R. c #8D53B1",
"E. c #9242BE",
"W. c #914FB7",
"Q. c #934DBC",
"!. c #9153B6",
"~. c #9452BC",
"^. c #84639A",
"/. c #9644C3",
"(. c #974AC2",
"). c #9847C5",
"_. c #9B43CA",
"`. c #9A49C6",
"'. c #9D4CCA",
"]. c #9A54C3",
"[. c #A243D6",
"{. c #AB43E3",
"}. c #AE4AE5",
"|. c #B044EA",
" X c #B642F4",
".X c #BC43FC",
"XX c #B257E6",
"oX c #B455EA",
"OX c #B159E4",
"+X c #A36EC5",
"@X c #908635",
"#X c #9A8F33",
"$X c #9B903E",
"%X c #AA9D34",
"&X c #B3A533",
"*X c #B5A839",
"=X c #BDAF38",
"-X c #8E864D",
";X c #988E45",
":X c #9F9441",
">X c #A09544",
",X c #A39846",
"<X c #C8B946",
"1X c #D4C43E",
"2X c #E3D23D",
"3X c #D2C346",
"4X c #E1D041",
"5X c #E8D643",
"6X c #F2DF42",
"7X c #F5E243",
"8X c #F9E642",
"9X c #8C8C8C",
"0X c #92869B",
/* pixels */
", , U , 7 R U # # # # R R ,.9X9X4.[ 7 ` ! : O * U 2 = X O   ",
"# U U E ! T % + * % 4 [ ` 4.9X9X4.E U T ,   # 4 : ; o . O # ",
"# 4 V %.-.F V ! U 2 4 ` E ,.9X9X,.U U E + O # , A %X&XP 2 , ",
"U , %.3X4X@XV U / U [ ,.U ,.9X9X;.V 2 , # : 4 7 %.5X7X-X2 + ",
"E 2 K 4X7X>X/ R f 4 [ ` 2 s.+X+X^./ 4 # O # , < *.<X3XP # U ",
"` R ) :X:XP Q { 9 # T O + P..X.XW.T , : % q t i :.) C B U E ",
"! : , U f & h.k.g.7 R O O S..X.X(.U % # @ 6.z.j.O.7 $ 4 E R ",
"U + : # , 7 h.V.n.W % X 2 /..X.X/.4 + O & g.z.k.X.* U [ 7 U ",
", % , O , 7 v.h.c.W 2 , k /..X.X/.k = , 2 r g.6.e / [ 4 , U ",
"* U , % , < ] ' ]  .p.q.M )..X.X/.l w.r.m + 1 Y 7 U U + + 4 ",
"% : , 4 2 0 ` T U | {. X9./..X.XA.n {. Xe.2 # 4 4 ` U : V 7 ",
"4 T 2 U , # T 0 E @.[.{.y.)..X.X'.$.[.H.e., O 4 2 U 4 U 0 # ",
"U f : + o $ < 7 U c n g 6 E..X.X).j h g l , 2 k U U 2 , 2 # ",
",.,.;.[ >.T.'._.F.D.D.A.D.|..X.X|.D.D.D.D.F./.).!.3.,.,.;.;.",
"9X9X9X9X0XOX.X.X.X.X.X.X.X.X.X.X.X.X.X.X.X.X.X.XoX0X9X9X9X9X",
"9X9X9X9X0XOX.X.X.X.X.X.X.X.X.X X.X.X.X.X.X.X.X.XOX0X9X9X9X9X",
"2.,.,.,.5.^.L.W.W.U.W.].].|..X.X{.I./.(.~.!.R.d.a.1.2.,.;.,.",
"= * 4 U ! , + , 4 M 9.u.z S..X.XE.l w.p.#.E % O , 4 U + , 3 ",
"2 2 4 V 2 2 , , 7 r.|.H.g A..X.X).$.}. Xd.4 O f : ` , + 4 7 ",
"2 R E U U f # : 7 0.J.[.b E..X.X'.+.F.H.p.U 4 7 U E # , V $ ",
"T R U f ` ~ e s 9 6 g v j )..X.XE.- x } ( w a a ~ U 7 U U , ",
"3 U 4 % , p m.M.6.% & & 4 _..X.XS., U R , y k.k.s , , % + + ",
", 4 , + , ..M.B.v.7 # , 4 '..X.XE.4 R 0 % d z.N.t.U , * O U ",
"O 2 3 V E q 6.v.o.< # , 2 Q..X.XQ.T 3 4 , 8 7.c.{ : 3 3 % , ",
"2 U J >X$XD 1 T 1 1 U * , Y.oXoXL.4 : , + X # < Z @X#XI 3 + ",
"U , I 7X2X&.E , , [ U $ 4 <.0X0X<., 2 f + X X , _ 3X8X*X; E ",
"< # I 3X1XK U % U , , # # [ 9X9X;., + + O + + 1 ) =X2X%X^ U ",
"E T *.-.H > # O O U U X O ;.9X9X,.2 : 4 T f : * V S G F V 4 ",
"4 4 4 7 # 4 2 , , R # + % =.9X9X,.U U E ` E , , 1 # , , 2 ` ",
"7 4 7 U # , 3 4 4 2 O + O ;.9X9X,.7 V U 1 , , , # , , , R [ "
};
