/* XPM */
static char *C1[] = {
/* columns rows colors chars-per-pixel */
"30 30 224 2",
"   c #0E0F0E",
".  c #161616",
"X  c #1D1D1C",
"o  c #1F201F",
"O  c #20201F",
"+  c #242424",
"@  c #282827",
"#  c #2C2C2C",
"$  c #2E2733",
"%  c #2E2B31",
"&  c #28383C",
"*  c #302F2F",
"=  c #302F30",
"-  c #342C39",
";  c #32312D",
":  c #3F3D26",
">  c #333333",
",  c #373439",
"<  c #373837",
"1  c #373A3B",
"2  c #393737",
"3  c #383739",
"4  c #3B3A36",
"5  c #3C3C3C",
"6  c #3F2B4C",
"7  c #3E3544",
"8  c #3F3E40",
"9  c #3F403F",
"0  c #2A434C",
"q  c #294853",
"w  c #2D4F5D",
"e  c #34444B",
"r  c #3F4243",
"t  c #344B55",
"y  c #3F4F56",
"u  c #35505B",
"i  c #3C535C",
"p  c #2B5B6C",
"a  c #325563",
"s  c #395561",
"d  c #395964",
"f  c #2C6073",
"g  c #366272",
"h  c #34687C",
"j  c #3A6778",
"k  c #396C7F",
"l  c #423E3B",
"z  c #40294C",
"x  c #462559",
"c  c #442956",
"v  c #4A2A5C",
"b  c #413646",
"n  c #403349",
"m  c #413F42",
"M  c #453D4A",
"N  c #4A3457",
"B  c #4C365A",
"V  c #4B3B56",
"C  c #4E3C59",
"Z  c #513E5C",
"A  c #4E2D61",
"S  c #513463",
"D  c #563B68",
"F  c #5C3C72",
"G  c #48442B",
"H  c #4B482F",
"J  c #41413C",
"K  c #474C3D",
"L  c #4A4737",
"P  c #4D4936",
"I  c #514C2B",
"U  c #514D3A",
"Y  c #5A5428",
"T  c #545034",
"R  c #545139",
"E  c #595534",
"W  c #635D31",
"Q  c #676136",
"!  c #666139",
"~  c #6B663C",
"^  c #434343",
"/  c #47444A",
"(  c #484747",
")  c #49464A",
"_  c #4A4945",
"`  c #4B4B4B",
"'  c #4E4157",
"]  c #45565E",
"[  c #485358",
"{  c #53445D",
"}  c #534B59",
"|  c #52514D",
" . c #55594D",
".. c #5C5941",
"X. c #535353",
"o. c #57515C",
"O. c #5B5B5A",
"+. c #415B65",
"@. c #5D436E",
"#. c #4E6671",
"$. c #486F7E",
"%. c #5F6F77",
"&. c #654E76",
"*. c #655471",
"=. c #676348",
"-. c #756F47",
";. c #777044",
":. c #787243",
">. c #646363",
",. c #666C6E",
"<. c #6A6A6A",
"1. c #626C70",
"2. c #686D70",
"3. c #65757C",
"4. c #687176",
"5. c #737373",
"6. c #30768F",
"7. c #367B94",
"8. c #347D98",
"9. c #3A7E98",
"0. c #673D82",
"q. c #6D348F",
"w. c #6F3E8E",
"e. c #743598",
"r. c #713A92",
"t. c #7B3EA0",
"y. c #457385",
"u. c #467A8E",
"i. c #4E7686",
"p. c #557B8B",
"a. c #764296",
"s. c #7C439E",
"d. c #705583",
"f. c #7E43A1",
"g. c #757C80",
"h. c #3D97B6",
"j. c #3B9CBE",
"k. c #3CA9CE",
"l. c #39B0D7",
"z. c #3DB5DD",
"x. c #3CB8E1",
"c. c #3FC0EB",
"v. c #42849C",
"b. c #4D869C",
"n. c #548295",
"m. c #528498",
"M. c #588293",
"N. c #4B89A1",
"B. c #4492AE",
"V. c #4C90A9",
"C. c #4596B2",
"Z. c #4598B6",
"A. c #439CBB",
"S. c #4896B2",
"D. c #4B99B5",
"F. c #4C9DBA",
"G. c #558DA4",
"H. c #598EA3",
"J. c #5195AE",
"K. c #5C91A5",
"L. c #5D94AA",
"P. c #5196B0",
"I. c #519BB6",
"U. c #46A0BF",
"Y. c #49A0BF",
"T. c #648694",
"R. c #75A6BB",
"E. c #71A9BE",
"W. c #44A1C2",
"Q. c #41ABCF",
"!. c #4DA5C5",
"~. c #42B5DC",
"^. c #4CB2D6",
"/. c #52A5C4",
"(. c #50B4D8",
"). c #5DBBDD",
"_. c #45BBE3",
"`. c #41C3EE",
"'. c #44C9F6",
"]. c #44CDFB",
"[. c #4DC8F2",
"{. c #48CCF8",
"}. c #54C3EA",
"|. c #877F43",
" X c #843FAC",
".X c #8D3DBB",
"XX c #9A3ACE",
"oX c #9D3FD1",
"OX c #A73DE0",
"+X c #A83FE1",
"@X c #8146A4",
"#X c #814AA3",
"$X c #8B44B4",
"%X c #8F41BB",
"&X c #9E45D0",
"*X c #AB43E3",
"=X c #B744F5",
"-X c #B844F5",
";X c #BC43FB",
":X c #8D8331",
">X c #928736",
",X c #978B30",
"<X c #988D36",
"1X c #9A8F39",
"2X c #9B9038",
"3X c #A2963F",
"4X c #A4983A",
"5X c #ADA038",
"6X c #BCAE3F",
"7X c #928945",
"8X c #B4A745",
"9X c #B5A943",
"0X c #CDBD3A",
"qX c #CBBC41",
"wX c #E0CF3F",
"eX c #CFC043",
"rX c #E2D141",
"tX c #F5E242",
"yX c #FAE742",
"uX c #FFEC43",
"iX c #8C8C8C",
"pX c #85949B",
"aX c #899296",
"sX c #8299A4",
/* pixels */
"> > ^ > ^ ( ( @ # # # ( ( ,.iXiX5.>.1 X.X.= + # ^ 1 > O + . ",
"# ^ / } o.) # @ # = 5 O.X.5.iXiX5.` J ` > . # 5 # O     + # ",
"# M r.%Xf.n ^ | ^ 1 5 X.` <.iXiX<.^ ^ ` @ O # 3 6 x c 7 < > ",
"^ M %X;XXX6 5 ^ ` ( O.<.` >.iXiX>.5 1 > # > 5 ^ r.OX&X&.> # ",
"` b t.oX$X{ ` _ 5 1 O.X.< ,.pXpX4.X.5 # O @ > 1 #X-X*XD # ^ ",
"X.` ' { ' l =.:.E * ^ + # b.}.}.H.^ > > ; 4 # 2 d.@Xq.N J ` ",
"` > > 9 1 G 6XrX4XJ ( + + B.c.].D.^ > # I >X1X:.` m - m ` ` ",
"^ # > # > R qXyX9X| > X < A.].].F.1 @ + Q wXtX2XK # ^ O.^ ^ ",
"> # > + < K 7X2X|.` 5 > r Z.].].D.5 # % Q 0XwX:X4 ` O.1 > ^ ",
"# ^ > * > > X.X.O.#.v.7.d F.].].F.e u i K Y ~ =.5 ^ ^ # # 5 ",
"> > > 5 < J X.( ^ y.c.`.j Z.].].A.7._.Q.t > # 1 5 X.^ > 5 r ",
"4 ^ 1 ^ > * ( 9 | i.~.z.$.D.].]./.N.'.x.d ; # , 5 ^ 5 ^ J # ",
"^ r > @ + # > 9 ( i a w e B.].].F.g 8.6.t > 1 ^ ^ ^ 2 > < # ",
"<.>.>.O.4.J.!.!.U.h.U.h.A._.].]._.W.W.W.A.U.A.!.I.T.<.<.>.>.",
"iXiXiXiXsX[.].].].].].].].].].c.].].].].].].].].c.E.iXiXiXiX",
"iXiXiXiXsX}.].{.].].].].].].].].].{.{.].].].{.{.{.R.iXiXiXiX",
"<.<.<.<.g.T.m.H.m.K.L.L.L.(.].].^.N.N.G.K.H.H.m.p.3.5.>.>.<.",
"> > 1 ^ X.> # > 1 d v.N.s B.].].A.h 9.u.[ ` # O > 1 J # > , ",
"1 2 1 ^ 5 > > > 9 k c.`.p B.].].!.!.].k.] 1 @ 5 > X.> # 9 5 ",
"2 ` ` J ^ 5 # > 5 f l.~.p B.].]./.Z.x.j.] l 1 ^ ^ ` # > 5 > ",
"^ ` ^ 5 X.| H ..: & q u r Y.].].Z.0 u +. .! ~ ..( ^ 9 ^ ^ > ",
"1 ^ 5 % > U 5XqX,X; > > 9 Y.].].B.; ^ ) ! 0XwX>X; > > # @ # ",
"> 5 > @ > ..0XuX6X9 # > 9 D.].].S.5 ` 5 W wXtX1X_ ^ < % + ^ ",
"+ 3 1 8 ) P 1X8X7X2 # 1 4 V.].c.J.( 2 1 T :X,X:.` % , > # > ",
"5 ' F @Xw.b l _ 5 4 ^ # > M.).).n.1 > > # X ; 2 F e.q.B * + ",
"l 7 .X;XXXZ ` > > O.^ = 1 4.aXaX,.> 1 l @ X X , s.-X*XS + ` ",
"> - $X*X.XC _ # ( > = = = O.iXiX>.> @ # + # + 8 a.OXXXv 5 ^ ",
"` ) *.@.B $ # + + ^ 9 o o >.iXiX<.2 > 1 ^ 5 > = C v v 7 ^ 5 ",
"5 9 5 ^ # 4 1 > > ` # @ % >.iXiX<.^ ^ | X.` 2 > l # > > 1 X.",
"5 5 5 ^ # > 1 5 4 < + @ o >.iXiX<.5 5 ^ 1 > # > # > > > _ O."
};
