/* XPM */
static char *C2[] = {
/* columns rows colors chars-per-pixel */
"30 30 201 2",
"   c #0F0E0E",
".  c #161616",
"X  c #1C1C1D",
"o  c #201F1E",
"O  c #242424",
"+  c #2C2C2C",
"@  c #2F2E31",
"#  c #2F3031",
"$  c #302E31",
"%  c #31322F",
"&  c #333333",
"*  c #36363A",
"=  c #36383A",
"-  c #39363B",
";  c #3B3B37",
":  c #3C3C3C",
">  c #373F43",
",  c #3C3D40",
"<  c #3F394B",
"1  c #3F403F",
"2  c #29424C",
"3  c #2C4B57",
"4  c #2B505D",
"5  c #33444B",
"6  c #3F4041",
"7  c #3A4448",
"8  c #3F494C",
"9  c #364951",
"0  c #3B4E57",
"q  c #3B555F",
"w  c #275768",
"e  c #2A5463",
"r  c #2C5C6D",
"t  c #345562",
"y  c #365F6F",
"u  c #3C5A66",
"i  c #3A5B68",
"p  c #305F70",
"a  c #2F6072",
"s  c #356274",
"d  c #316578",
"f  c #42343A",
"g  c #462759",
"h  c #442D52",
"j  c #47285A",
"k  c #4A2D5C",
"l  c #463452",
"z  c #4A3856",
"x  c #4E2F61",
"c  c #533466",
"v  c #55306D",
"b  c #553966",
"n  c #573A69",
"m  c #5B3E6D",
"M  c #434029",
"N  c #41413F",
"B  c #484534",
"V  c #4C4934",
"C  c #504C28",
"Z  c #504C31",
"A  c #57522A",
"S  c #5C562D",
"D  c #555137",
"F  c #55523F",
"G  c #595534",
"H  c #59573F",
"J  c #5D5835",
"K  c #5C593E",
"L  c #625C33",
"P  c #615C38",
"I  c #6D662B",
"U  c #656038",
"Y  c #69643C",
"T  c #736B33",
"R  c #726C3C",
"E  c #7D7537",
"W  c #7A733A",
"Q  c #434343",
"!  c #45484A",
"~  c #48464A",
"^  c #484847",
"/  c #4B4B4B",
"(  c #4D4F50",
")  c #415157",
"_  c #44565C",
"`  c #4B5559",
"'  c #534447",
"]  c #52405E",
"[  c #534C55",
"{  c #555240",
"}  c #5C5945",
"|  c #5C5948",
" . c #535353",
".. c #51595C",
"X. c #5A575B",
"o. c #5A5A5A",
"O. c #435F6B",
"+. c #5B4867",
"@. c #5D4170",
"#. c #545D61",
"$. c #4E6C78",
"%. c #566D77",
"&. c #624576",
"*. c #64437A",
"=. c #716C4E",
"-. c #716E59",
";. c #7E7748",
":. c #646463",
">. c #6A6A6A",
",. c #6F6F70",
"<. c #7D7A65",
"1. c #737373",
"2. c #3A7B92",
"3. c #6C318D",
"4. c #6F3391",
"5. c #713493",
"6. c #76349B",
"7. c #77399B",
"8. c #7C3E9F",
"9. c #467284",
"0. c #794499",
"q. c #7B489A",
"w. c #7D43A0",
"e. c #3F869F",
"r. c #3E86A0",
"t. c #38A9CF",
"y. c #3FACD1",
"u. c #3CB3DA",
"i. c #43839B",
"p. c #4489A2",
"a. c #4A89A1",
"s. c #4497B4",
"d. c #419BBB",
"f. c #45ACD0",
"g. c #44B5DB",
"h. c #41B9E1",
"j. c #42C3ED",
"k. c #41C8F4",
"l. c #45CFFD",
"z. c #817A3E",
"x. c #857D45",
"c. c #867F4E",
"v. c #837D53",
"b. c #9837CC",
"n. c #9A3CCD",
"m. c #A83FE0",
"M. c #A941E1",
"N. c #B741F5",
"B. c #95892F",
"V. c #928736",
"C. c #948A33",
"Z. c #AFA239",
"A. c #B9AB39",
"S. c #8E864A",
"D. c #8B845A",
"F. c #908852",
"G. c #9D9343",
"H. c #878263",
"J. c #898463",
"K. c #A0964D",
"L. c #A59A45",
"P. c #A2984D",
"I. c #AB9F42",
"U. c #A99E4C",
"Y. c #A79D50",
"T. c #A99F53",
"R. c #AFA346",
"E. c #ADA249",
"W. c #ABA150",
"Q. c #B1A545",
"!. c #B2A649",
"~. c #B4A846",
"^. c #B6A94B",
"/. c #B8AB45",
"(. c #B9AD4E",
"). c #B2A85F",
"_. c #BAAE52",
"`. c #BFB144",
"'. c #BDB154",
"]. c #A9A47F",
"[. c #BBB274",
"{. c #CFBF3B",
"}. c #C1B446",
"|. c #C2B54B",
" X c #C6B952",
".X c #D1C13A",
"XX c #DECD3C",
"oX c #DCCC42",
"OX c #DFCE4A",
"+X c #CEC268",
"@X c #E5D341",
"#X c #E1D04A",
"$X c #EDDB43",
"%X c #F1DF41",
"&X c #F1DF4D",
"*X c #F2E04E",
"=X c #FAE743",
"-X c #F8E548",
";X c #FBE843",
":X c #8C8C8C",
">X c #908F8C",
/* pixels */
"& & Q & N / ^ + + + + / ^ >.:X:X1.:.= o.( % O # Q ; # o O . ",
"+ Q ! ` ..^ # O + # 1 o. .1.:X:X1./ f / & . + : + X     O + ",
"+ 0 2.d.p.5 N ( Q ; :  ./ H.[.[.H.Q Q / + o # = 3 w e 5 & & ",
"Q q r.l.t.2 f Q / ^  .>.! W.-X-XU.1 ; & + % : 6 i.j.g.$.; + ",
"/ 6 e.t.s.` / ^ : : o. .; ^.;X;X(. .: + o + & : a.j.g.i + Q ",
" .! ) O.0 l @.&.l + ^ O O Q.;X;X(.Q ; # @ * + * %.9.s 5 Q / ",
"( & % f 1 l n.M.5.: ^ O O R.;X;X^.Q @ @ h 3.7.&./ 1 # 1 / ^ ",
"Q + % + % b M.N.w./ & X & Q.;X;X^.; + O c m.N.7.Q # Q o.Q Q ",
"& % & O * z q.0.*./ ; & N ^.;X;X^.f # & b n.m.3.= / o.: & 1 ",
"+ Q & + & &  . .o.=.G.C.U (.;X;X^.J E E ' g n +.: ! Q O + : ",
"& & & : * Q  .^ Q x.$X$XW ~.;X;XI.T $XoXG & + = 1  .Q & , f ",
"= Q = Q & + / f  .c.oXoX;.^.;X;X_.F.$XXXY # + ; = Q 1 Q 6 # ",
"Q f = + O + & : Q F L S B Q.;X;X^.G T I V & = Q Q Q = & ; + ",
">.:.:.-.P.^.'.'.^.R.R.I.R.oX=X=XOX!.R.R.Q.^.!.!.W.J.>.>.:.:.",
":X:X:X].*X;X;X;X;X;X;X;X;X=X=X=X=X;X;X;X=X;X;X;X=X[.:X:X:X:X",
":X:X:X].*X;X;X;X;X;X;X;X=X=X=X=X=X;X=X=X;X;X;X;X-X[.:X:X:X:X",
">.:.>.<.)._.^.(.^.^._.'.'.OX=X=XoX}.|.|.'._._.E.K.H.,.:.:.>.",
"# # = ^  .& O & - { z.S.R (.;X=X}.V.A.L.| ^ + O & : Q + & = ",
": ; : 1 = ; & & : J XX%XB./.;X=X|.|.;X.XK = O : &  .& + : : ",
": ^ / 1 f : # & : C .X@XV./.;X=X XL..XZ.} 1 : Q Q ^ + & 1 & ",
"Q ^ Q : ../ l &.g - A P D ^.;X;X~.M Z } [ b m ] ~ Q : Q Q & ",
"= ^ = + & : 3.M.n.x & & = _.;X;XQ.+ Q ^ n b.M.3.@ & & @ + + ",
"& : & + & Q 6.N.M.n + & f '.;X;XQ.: ^ 1 c m.N.7.~ Q ; + O 1 ",
"O - * , / * v w.0.< + ; : ~.;X;X(.^ ; & l 3.6.*.! + & % # & ",
": Q 0 i.r.p , ~ - : Q + & !.;X;X!.: & & + X + = u d a 9 % O ",
"f ; i g.k.p.( & & o.Q $ = U.;X;XY.& = : + X X * i.j.u.t O / ",
"; + i f.h.i.! + ^ & & + % c.+X+XD.& + + O O O 1 i.j.u.4 1 Q ",
"/ ^ #.O.t 2 + o O ! f X o :.:X:X>.; % = ^ : & # u r p 5 6 f ",
": : : 1 + = ; & ; ! # O # :.:X:X>.Q ^ (  ./ & & : + & & ; [ ",
"1 : 1 1 # & ; : = ; O O O :.:X:X>.: f Q : & # & + & & & ^ o."
};
