/* XPM */
static char *E0[] = {
/* columns rows colors chars-per-pixel */
"30 30 197 2",
"   c #0F0F0F",
".  c #121212",
"X  c #141413",
"o  c #151515",
"O  c #161616",
"+  c #181818",
"@  c #1A1A1A",
"#  c #1A1B1A",
"$  c #1B1B1B",
"%  c #1C1C1C",
"&  c #1D1D1D",
"*  c #1F1F1F",
"=  c #2B1923",
"-  c #202020",
";  c #212121",
":  c #222222",
">  c #232323",
",  c #242424",
"<  c #252525",
"1  c #252625",
"2  c #262626",
"3  c #272727",
"4  c #282828",
"5  c #292929",
"6  c #2A2A2A",
"7  c #2B2B2B",
"8  c #2C2C2C",
"9  c #2D2D2D",
"0  c #2E2E2E",
"q  c #2F2F2F",
"w  c #3D213F",
"e  c #303030",
"r  c #313131",
"t  c #323130",
"y  c #323131",
"u  c #323232",
"i  c #333333",
"p  c #343434",
"a  c #353535",
"s  c #353634",
"d  c #363636",
"f  c #373737",
"g  c #353139",
"h  c #34303E",
"j  c #383339",
"k  c #383838",
"l  c #393938",
"z  c #393939",
"x  c #39383B",
"c  c #3A3A3A",
"v  c #3B3B3B",
"b  c #3C3C3C",
"n  c #3D3D3D",
"m  c #3E3E3E",
"M  c #3F3F3F",
"N  c #392644",
"B  c #403F41",
"V  c #543054",
"C  c #593D5E",
"Z  c #512669",
"A  c #693E69",
"S  c #404040",
"D  c #414040",
"F  c #414141",
"G  c #424242",
"H  c #434343",
"J  c #444444",
"K  c #454545",
"L  c #464646",
"P  c #464746",
"I  c #474747",
"U  c #484848",
"Y  c #494949",
"T  c #48484A",
"R  c #4A4A4A",
"E  c #4B4B4B",
"W  c #4C4C4C",
"Q  c #4D4D4D",
"!  c #4E4E4E",
"~  c #4F4F4F",
"^  c #505050",
"/  c #515151",
"(  c #525252",
")  c #535353",
"_  c #545454",
"`  c #565656",
"'  c #575757",
"]  c #585858",
"[  c #595959",
"{  c #5A5A5A",
"}  c #5E5E5E",
"|  c #5F5F5F",
" . c #5F4D67",
".. c #5E5D61",
"X. c #615E5E",
"o. c #784B71",
"O. c #75557B",
"+. c #7B597A",
"@. c #606060",
"#. c #616161",
"$. c #626262",
"%. c #626363",
"&. c #636363",
"*. c #646464",
"=. c #656565",
"-. c #666666",
";. c #676767",
":. c #68636B",
">. c #686867",
",. c #686868",
"<. c #696969",
"1. c #6A6A6A",
"2. c #6B6B6B",
"3. c #6A6A6E",
"4. c #6C6C6C",
"5. c #6D6D6D",
"6. c #6E6E6E",
"7. c #6F6F6F",
"8. c #6B6B70",
"9. c #776B75",
"0. c #717171",
"q. c #727272",
"w. c #737373",
"e. c #747474",
"r. c #777777",
"t. c #572286",
"y. c #791F99",
"u. c #6C5E80",
"i. c #7C5A95",
"p. c #883377",
"a. c #AC2470",
"s. c #805075",
"d. c #97517C",
"f. c #82169B",
"g. c #8F32BF",
"h. c #AC1C9B",
"j. c #B8128C",
"k. c #BB00BA",
"l. c #B5269F",
"z. c #AA32B3",
"x. c #9323C2",
"c. c #AD25CA",
"v. c #A630C1",
"b. c #895893",
"n. c #957D9F",
"m. c #957AA3",
"M. c #9B75A2",
"N. c #A44599",
"B. c #B347AA",
"V. c #AE6A96",
"C. c #B6608D",
"Z. c #A864A4",
"A. c #A861A9",
"S. c #C81B8B",
"D. c #CD1692",
"F. c #DF0086",
"G. c #D40098",
"H. c #D50F98",
"J. c #D90197",
"K. c #DB0095",
"L. c #DD0091",
"P. c #DC0095",
"I. c #DC0494",
"U. c #DA009E",
"Y. c #DD0099",
"T. c #D71B98",
"R. c #C700AE",
"E. c #C40BAC",
"W. c #CB05AC",
"Q. c #CD00AF",
"!. c #C200BA",
"~. c #C608B9",
"^. c #D200A2",
"/. c #D600A0",
"(. c #D000A9",
"). c #D200AC",
"_. c #D211A2",
"`. c #D018A6",
"'. c #C4279D",
"]. c #C03CA3",
"[. c #E50085",
"{. c #E40287",
"}. c #E20089",
"|. c #E00091",
" X c #8B8B8B",
".X c #8B8C8C",
"XX c #8F8B8C",
"oX c #8E8B8F",
"OX c #8C8C8B",
"+X c #8C8C8C",
"@X c #8C8D8C",
"#X c #8D8D8D",
"$X c #8C8C8F",
"%X c #8A8796",
"&X c #8B8B91",
"*X c #908B8C",
"=X c #948392",
/* pixels */
"r a K a H R K 4 0 4 0 R R <. X Xw.X.M ` ~ r > 0 H c r * > # ",
"r M M R / K 0 2 0 r M ' / w. X Xw.E M R a o 7 v 0 *     > 0 ",
"0 c c K H q H W K a M ` W 4. X X1.J H E 3 > 0 a 3 > 3 r d r ",
"K c H K > * H K W K ' <.I <. X X&.M k a 6 r M M H c W / c 4 ",
"W a c a c K E R M c ' / c =. X X2.) M 7 > 4 i c R H / M 0 H ",
"/ R H H H a c H r 0 K 2 2 @. X X<.J i r 0 a 3 a ' K d r H R ",
"/ r a K M 4 H M 0 c R > 2 @. X X=.H 0 0 2 4 e J R H 0 M R R ",
"H 4 r 4 a a H M H R r * a @. X X=.c 4 3 i 4 2 a M 0 H ' M H ",
"i e i 1 f s P v M R a r M <. X X*.b 0 r e o > > a W ' c i M ",
"7 G i e i u ( ~ ` W M r i >. X X<.e i c r > c K M K K 4 4 M ",
"e i i b f F ) T K H H K c :.*X*XX.k / H r a q c M / H r H M ",
"b L f G s 8 P F W ~ K g A d.C.Z.b. .r $ r r 4 c c H M H M 7 ",
"G b i 3 > 8 s b P N h t.h.D.H.`.'.y.N # e e d H J H a r a 0 ",
"<.<.%.| %.2.0.0.4.:.8.g.W.!.R.Y.J.l.+.=.;.4.;.2.4.w.<.<.=.=.",
" X#X.X X#X.X#X#XOX$Xm.v.G.L.K.(.I.T.V.$X.X X#X X#X*X X X X X",
"#X#X X$XOX#X#X#X#X#XM.c.Q.[.^.}.}._.A.%X X X X#X#X X X X X X",
"4.<.4.2.r.w.;.4.1.3.i.z.~.)./.|.U.S.o.8.e.w.4.=.=.<.w.=.&.<.",
"e e c K ~ i 3 i c B V p.j.k.[.I.E.a.C R R R 7 * r M H 3 a c ",
"b f b G c d i i M q = Z f.x.].B.N.o...a c c 3 M r ` a 4 M b ",
"f R E G G M 0 i b > . f w O.m.=X9.H c 0 J H c H H R 7 r M 0 ",
"K R G b ) R 7 H > > * a d ;. X#X} 2 0 M J a M M K K M K H r ",
"f L b 0 a d 7 f 2 4 a a v 7. X#X@.q K R r 2 r 7 7 a r 0 4 7 ",
"r M i 6 r G - + 0 b 6 a M 2. X X*.c R M e r r r K K f 0 2 H ",
"1 f f b P i 1 r c d 4 d c =. X X2.K f c a 4 , H K 0 r r r r ",
"c H c H m i v G v b H q r <. X X=.b i r 3 + 3 a c 4 7 a r 4 ",
"G i d M i v W i i { G q c <. X X<.r c M 3 * * i R * 4 r > R ",
"f 7 b P i c P 0 P i e e 0 @.$X X=.r 3 4 > 3 2 M M . > 4 M H ",
"W P ) H i 3 4 1 > H m * 2 @. X X2.k r M K M r 0 c > 2 a M M ",
"M b b G 4 b f i f T 7 3 0 |  X X<.K J W / W a a M 0 a a c / ",
"M b b G 7 a f M b f 2 3 1 @..X.X>.M M H c a r r 4 i i i R ' "
};
