/* XPM */
static char *E1[] = {
/* columns rows colors chars-per-pixel */
"30 30 139 2",
"   c #0F0F0F",
".  c #141414",
"X  c #1C1B1B",
"o  c #1F2020",
"O  c #242424",
"+  c #2B2626",
"@  c #2C2C2C",
"#  c #332C2C",
"$  c #3D2D2D",
"%  c #333333",
"&  c #373838",
"*  c #3A3535",
"=  c #3C3C3C",
"-  c #482E2E",
";  c #443636",
":  c #473D3D",
">  c #4A3333",
",  c #4C3939",
"<  c #5E2525",
"1  c #523232",
"2  c #583C3C",
"3  c #7A1F1F",
"4  c #652F2F",
"5  c #6E2222",
"6  c #643B3B",
"7  c #712E2E",
"8  c #703535",
"9  c #753F3F",
"0  c #7B3636",
"q  c #7C3939",
"w  c #434343",
"e  c #4D4242",
"r  c #4B4B4B",
"t  c #554343",
"y  c #5E4E4E",
"u  c #535353",
"i  c #5B5B5B",
"p  c #744343",
"a  c #646464",
"s  c #6B6363",
"d  c #6A6A6A",
"f  c #746767",
"g  c #736B6B",
"h  c #7A6262",
"j  c #796F6F",
"k  c #737373",
"l  c #777878",
"z  c #861C1C",
"x  c #8E1D1D",
"c  c #872424",
"v  c #812D2D",
"b  c #882A2A",
"n  c #843434",
"m  c #8E3B3B",
"M  c #952525",
"N  c #932B2B",
"B  c #9B2626",
"V  c #913434",
"C  c #9F3535",
"Z  c #983B3B",
"A  c #A71515",
"S  c #AC1717",
"D  c #BD0C0C",
"F  c #B21313",
"G  c #A12626",
"H  c #A82424",
"J  c #B72727",
"K  c #B62828",
"L  c #B63131",
"P  c #B53A3A",
"I  c #BE3333",
"U  c #8A4141",
"Y  c #945959",
"T  c #9B5C5C",
"R  c #976363",
"E  c #996868",
"W  c #A65A5A",
"Q  c #B44A4A",
"!  c #BD4B4B",
"~  c #BF5959",
"^  c #A06464",
"/  c #A97D7D",
"(  c #B77777",
")  c #B37878",
"_  c #C51E1E",
"`  c #CA1616",
"'  c #D10D0D",
"]  c #D71E1E",
"[  c #DD1212",
"{  c #DA1818",
"}  c #C52424",
"|  c #C12C2C",
" . c #CA2222",
".. c #C82B2B",
"X. c #CB3131",
"o. c #CE3F3F",
"O. c #D22424",
"+. c #DB2D2D",
"@. c #D43B3B",
"#. c #EE0E0E",
"$. c #E21515",
"%. c #E11E1E",
"&. c #ED1313",
"*. c #EB1818",
"=. c #F10707",
"-. c #F00D0D",
";. c #FE0101",
":. c #FB0D0D",
">. c #F21A1A",
",. c #FA1313",
"<. c #E02020",
"1. c #EA2626",
"2. c #EC2D2D",
"3. c #E03737",
"4. c #E83030",
"5. c #EE3A3A",
"6. c #F02323",
"7. c #F62A2A",
"8. c #F33232",
"9. c #C74D4D",
"0. c #CD4040",
"q. c #C84949",
"w. c #C05050",
"e. c #DA4242",
"r. c #D65F5F",
"t. c #DC5555",
"y. c #DA5A5A",
"u. c #C26D6D",
"i. c #CF6363",
"p. c #C96969",
"a. c #C07070",
"s. c #D16363",
"d. c #E74646",
"f. c #E24E4E",
"g. c #E84444",
"h. c #8C8C8C",
"j. c #928989",
"k. c #9D8585",
"l. c #A38282",
/* pixels */
"% % w % w r r + @ @ @ r r d h.h.k i = u u % o @ w = % o o X ",
"@ w w r r w @ O @ % = i r l h.h.k r w r & . @ = @ o     o @ ",
"@ = & w w % w r w & w u r d h.h.d w w r O o @ = @ o @ % & % ",
"w = w w O o w w r w u d w d h.h.a = & & @ % = = w = r r & + ",
"r & & % = w r r = = i u & a h.h.d u = @ o + % = r w r = @ w ",
"u r w w w & = w % @ w O + a h.h.d w & @ @ & + % i w % % w r ",
"u % % w = @ w = @ = r o o a h.h.d w % @ O @ # w r w @ w r r ",
"w + % + % & w = w r % X & i h.h.a & + O % @ @ % = @ w i w w ",
"% @ % O & & w = = r * $ 2 f h.h.s ; # % % . O O & r i = % w ",
"@ w % # % % u r u u q n N T / ) W N 8 1 % o & w = w w O + = ",
"% % % = & w u r t m L L J 0.f.t.@.} X.C - % @ = = u w & = w ",
"& w & w % @ w t U P | { *.2.8.7.3.+._ A v * + & = w = w = @ ",
"w = % @ O @ * 8 | O.{ =.:.:.:.:.>.-.` F B - & = w = & % & @ ",
"d d a i a d j E w.1.6.,.;.;.;.;.;.>.0.! T d d d k k d d a a ",
"h.h.h.h.h.h.k.l.u.8.8.,.;.;.;.;.;.:.g.y.u.l.h.h.h.h.h.h.h.h.",
"h.h.h.h.h.h.k.l.i.8.5.:.;.;.;.;.;.;.5.t.( l.h.h.h.h.h.h.h.h.",
"d d d d l k h R q.1.2.,.;.;.;.;.;.;.1.@.w.^ j d a d k d a d ",
"@ % & w u & < B } %.%.&.;.;.;.;.;.&.%...U p # o % = w O % & ",
"= & & w & & 1 b } } ' $.=.;.:.,.>.4.@.B 6 , + = % u % @ = = ",
"& r r w w = $ 4 n x D  .[ 1.d.y.e.O. .M 9 e = w w r @ % = % ",
"w r w = u r # 6 3 z A  .$.4.s.s.@.[ H q 9 ; = : w w w w w % ",
"& w = @ % & @ ; 3 M K _ O.9.p.r.Q H Z p 1 + % @ @ & % @ @ @ ",
"% = % @ % w O X # 6 c N V W ) ) Y 0 p w @ % @ % w w & @ O w ",
"O & & & w % O % & & # > , h j.h.g w & = % + O w w @ % % @ % ",
"= w & w = % = w = = w @ @ d h.h.a & % % O X O % = + @ & % O ",
"w % & : % = r % % i w @ = d h.h.d % & = @ o o & r o @ @ o r ",
"& @ = r % & r @ r % % % @ a h.h.a % @ @ o @ + = = . o + w w ",
"r r r w % O @ o o w = X o a h.h.d & % & w = % @ = o o & = = ",
"= = = w + = = % & r @ + @ a h.h.d w w r u r % % w @ % % = r ",
"w = = w @ % & = = & O O o a h.h.d = : w = % % % @ & % % r i "
};
