/* XPM */
static char *E2[] = {
/* columns rows colors chars-per-pixel */
"30 30 256 2",
"   c #1A1A1A",
".  c #2D183C",
"X  c #292323",
"o  c #392928",
"O  c #3C3433",
"+  c #3D3A3A",
"@  c #383434",
"#  c #2F2A41",
"$  c #3A2A4D",
"%  c #3B304E",
"&  c #3F2C59",
"*  c #521E15",
"=  c #48251F",
"-  c #57241C",
";  c #452D2B",
":  c #472925",
">  c #4F2E3C",
",  c #4C312F",
"<  c #4B3D3C",
"1  c #463736",
"2  c #552E2B",
"3  c #5E2E2A",
"4  c #572A24",
"5  c #5D2D31",
"6  c #57322D",
"7  c #543D3B",
"8  c #5B3D3A",
"9  c #583734",
"0  c #6B1F0E",
"q  c #65281D",
"w  c #762917",
"e  c #662E26",
"r  c #68332C",
"t  c #693630",
"y  c #6C3A33",
"u  c #6E3E3B",
"i  c #643A37",
"p  c #74342C",
"a  c #7B352C",
"s  c #7A3025",
"d  c #753932",
"f  c #7C3C34",
"g  c #783B3A",
"h  c #752F25",
"j  c #421C7F",
"k  c #472955",
"l  c #463945",
"z  c #473D55",
"x  c #5A3645",
"c  c #573458",
"v  c #472E4E",
"b  c #543877",
"n  c #51326F",
"m  c #66355C",
"M  c #7D3843",
"N  c #73344E",
"B  c #6F2D70",
"V  c #6C3D66",
"C  c #693977",
"Z  c #7B2B65",
"A  c #782977",
"S  c #7A3965",
"D  c #753A7D",
"F  c #4C403F",
"G  c #5A413E",
"H  c #54413F",
"J  c #68403C",
"K  c #73413C",
"L  c #7D413B",
"P  c #4C4343",
"I  c #484747",
"U  c #544543",
"Y  c #584748",
"T  c #584157",
"R  c #5D504F",
"E  c #5D5454",
"W  c #494551",
"Q  c #504361",
"!  c #5C5073",
"~  c #654946",
"^  c #694845",
"/  c #6D514F",
"(  c #774946",
")  c #73514E",
"_  c #775956",
"`  c #66575A",
"'  c #664776",
"]  c #724A67",
"[  c #76615F",
"{  c #696566",
"}  c #786667",
"|  c #7D607D",
" . c #7B7271",
".. c #511D8E",
"X. c #4D1EA0",
"o. c #5B1FB5",
"O. c #5C2D97",
"+. c #553284",
"@. c #6A1D83",
"#. c #761BAF",
"$. c #7C1CB9",
"%. c #6818A2",
"&. c #6B2985",
"*. c #682995",
"=. c #673A88",
"-. c #782D83",
";. c #7A2798",
":. c #76338B",
">. c #6F3495",
",. c #692EA5",
"<. c #792AA5",
"1. c #772DBA",
"2. c #7633A4",
"3. c #692FB2",
"4. c #7D10CD",
"5. c #721AD0",
"6. c #7F1AE0",
"7. c #7A0AF5",
"8. c #7D21C2",
"9. c #7724D0",
"0. c #7B459B",
"q. c #775D8F",
"w. c #714F84",
"e. c #7454A5",
"r. c #776483",
"t. c #7344C3",
"y. c #823E36",
"u. c #9F1270",
"i. c #863459",
"p. c #8E2C54",
"a. c #872F78",
"s. c #813562",
"d. c #893375",
"f. c #9E2B6D",
"g. c #9A2974",
"h. c #97327A",
"j. c #86216B",
"k. c #BD1F53",
"l. c #AE1C72",
"z. c #B73856",
"x. c #AB2A75",
"c. c #84413A",
"v. c #8B524C",
"b. c #894942",
"n. c #895579",
"m. c #975675",
"M. c #8A5F6B",
"N. c #96645F",
"B. c #846765",
"V. c #827271",
"C. c #826471",
"Z. c #AF487F",
"A. c #B36C7E",
"S. c #C61A7A",
"D. c #D42176",
"F. c #DC337F",
"G. c #CE3372",
"H. c #E3077B",
"J. c #E03675",
"K. c #CD4572",
"L. c #C6617A",
"P. c #8C1998",
"I. c #96168C",
"U. c #841CAA",
"Y. c #9B13A8",
"T. c #9313B8",
"R. c #832881",
"E. c #882797",
"W. c #90308E",
"Q. c #8629AA",
"!. c #8C29B7",
"~. c #962AA3",
"^. c #9725B9",
"/. c #9836A8",
"(. c #9935BE",
"). c #8C35AD",
"_. c #AB1D8E",
"`. c #B31E90",
"'. c #B91383",
"]. c #A81AAA",
"[. c #A81AB7",
"{. c #BB1AB9",
"}. c #BA1FA7",
"|. c #A7288D",
" X c #A52997",
".X c #BF2681",
"XX c #B53492",
"oX c #AA24B4",
"OX c #AA38A5",
"+X c #B02CB1",
"@X c #B22AAD",
"#X c #890EDF",
"$X c #8319CA",
"%X c #921BC2",
"&X c #9A19D7",
"*X c #8914D6",
"=X c #8816E2",
"-X c #8D14EB",
";X c #8E22C5",
":X c #842DD4",
">X c #8F31D6",
",X c #9627DC",
"<X c #9936D7",
"1X c #9A2AC5",
"2X c #9430E3",
"3X c #AF19CF",
"4X c #A711D5",
"5X c #B513CA",
"6X c #A408D7",
"7X c #A625C5",
"8X c #AA28D2",
"9X c #935C8E",
"0X c #84508E",
"qX c #9C44A3",
"wX c #9644B9",
"eX c #9550AA",
"rX c #9E7F93",
"tX c #896786",
"yX c #9C6BAE",
"uX c #9975A7",
"iX c #9372B1",
"pX c #B0489C",
"aX c #B9599A",
"sX c #AE4988",
"dX c #A548A8",
"fX c #AB4DBE",
"gX c #AE5EA1",
"hX c #B94BA8",
"jX c #AD59AD",
"kX c #A47B93",
"lX c #AF6E91",
"zX c #A66CA4",
"xX c #A169B0",
"cX c #965CC0",
"vX c #B140C2",
"bX c #C71E95",
"nX c #DF178B",
"mX c #D81896",
"MX c #D70999",
"NX c #CC0DAC",
"BX c #C608B9",
"VX c #CB16AB",
"CX c #CB18B4",
"ZX c #D30FA7",
"AX c #C92895",
"SX c #CB2C84",
"DX c #C423A1",
"FX c #E00792",
"GX c #C25497",
"HX c #CA4D80",
"JX c #8E8C8B",
"KX c #9B8785",
"LX c #978889",
"PX c #978395",
"IX c #8D8699",
"UX c #A68383",
/* pixels */
"O 1 ^ t G ~ ~ : ; ; : ~ Y } LXLX ._ L v.v.t o 3 ~ 9 r = X   ",
"; J u ^ R U , o ; , 7 _ ) V.LXJXV.( c.b.d * 6 i 2 = 0 0 = ; ",
"O 7 8 P F O P W I < J _ ^  .KXKXB.u u ( : X e f : X 4 a y 6 ",
"J i G U : = F I I U ) } G [ UXUX{ < + 1 o @ 8 f G 1 / ) J ; ",
"( 9 < @ < I W I % v ` ' T B.UXUXC.E z # X X , 8 Y G ) 7 o I ",
") Y F H H O + I c +.' ;.&.n.UXlX9X] *.+.& v ; , _ ( 9 @ F I ",
"/ , 9 G H o I z *.,.0XZ @.m.zXxXeXW.Q.;.<.E.Z ~ ( c.e F I I ",
"K e t r t 9 W >.1.2.-.j.E.n.cX2X/.d.#.;.;X;X<.v K a L _ F G ",
"t r t h d H =.,.:.2.W.|.h.m.aX<X4Xf.p.p.<.%.O...< R ` K , 7 ",
"p K t r u -.9.(./.(.d.~.~.dXjXaXDXP.l.|.P.%.=.8.n F G e 3 F ",
"a r p g s.).:X^.oXQ.D ,.6.-X}.aX2.B x.$XU.S ~.^.] / P 9 K H ",
"y.( d ( a.d.(.-X1X/.2.$.,X8XSX{.^.XXXX'.A Z Q.d.y.U + H G 6 ",
"K K p M Z M  X=X[..X_.].bXCXNXBX3X}.[.l.g..X).=.S T 1 @ @ o ",
"B.B.} q.q.C.1X,XbXbX6X4XmXNXBXZX5XnXAXqXsXAXOXwXeXtX{ { { { ",
"LXJXrXiXIXuX<X2XGXaX<X5XFXZXBXBX{.FXJ.gXiXgXGXcXUXPXPXLXJXJX",
"JXJXKXPXPXzXvX8XvXaX+XCXBXMX5X5XH.nXF.L.lXK.hXxXkXuXuXUXLXJX",
"} } C.r.tXpX@X,X5XqX(.AXVXCXCX5XMXCX+XpXK.}.8XcX0Xe.r.B.[ { ",
"r r i w.w.~.Y.#X].Q.Q.[.mXCXZXBXNXD.OX7XSXoX%XA c +.Q 3 9 8 ",
"y.y.i +.>.;XT.|.~.%X4.=XY.[.4X8X+XG.XXSX|.~.u.M c ! 9 h L f ",
"f ( R z C ,.P.f. X4.T.T.u./.2XhXhXz.S.D. XW.s.^ T Y 5 a y.a ",
"^ ( W l ! ' k d.`.T.I.#.S.HXhXHXZ.k.[.].oXZ n =.T I U g c.a ",
"9 ^ i > m n $ S W. Xp.U.!.K.lXGXsXl.9.,XE.N x n $ 1 t y.r 3 ",
"o G p 3 c b j B &.d.R.$.7.>XlXzXOXd.;.8.;.i.p.B Q Y d a - F ",
"o 9 9 < W $ ..<.*.o.5.6.*X(.uXyX>X:.c O.*.&.s.V W o p a 6 O ",
"y U + P G 6 m ] >.6.=.o.*.tXyXiXe.,.V O.X.. 5 i l 2 h f , o ",
"L t 1 < p L ^ 1 c 0XC j n e.iXuX0XB Z V $ = q a ^ w s p h Y ",
"d e 7 ^ a J I o ~ f g v v w.PXPX} > 2 3 : 3 e i f w e 4 K J ",
") Y E G t : o : - c.c.- - } KXUXB.O 1 9 U G 6 6 f - o 6 u K ",
"7 < 8 J 3 8 1 @ 1 ~ r s h [ LXKXB.U U ~ / ( p 9 J 6 9 t y / ",
"8 < H J ; 1 1 < + @ o e - { JXKXN.u 8 U 8 d r 1 2 t t p ) E "
};
