/* XPM */
static char *FL[] = {
/* columns rows colors chars-per-pixel */
"30 30 101 2",
"   c #0F0F0F",
".  c #121212",
"X  c #141414",
"o  c #151515",
"O  c #161616",
"+  c #181818",
"@  c #191919",
"#  c #1A1A1A",
"$  c #1B1B1B",
"%  c #1C1C1C",
"&  c #1D1D1D",
"*  c #1F1F1F",
"=  c #202020",
"-  c #212121",
";  c #222222",
":  c #232323",
">  c #242424",
",  c #252525",
"<  c #262626",
"1  c #272727",
"2  c #282828",
"3  c #292929",
"4  c #2A2A2A",
"5  c #2B2B2B",
"6  c #2C2C2C",
"7  c #2D2D2D",
"8  c #2E2E2E",
"9  c #2F2F2F",
"0  c #303030",
"q  c #313131",
"w  c #323232",
"e  c #333333",
"r  c #343434",
"t  c #353535",
"y  c #363636",
"u  c #373737",
"i  c #383838",
"p  c #393939",
"a  c #3A3A3A",
"s  c #3B3B3B",
"d  c #3C3C3C",
"f  c #3D3D3D",
"g  c #3E3E3E",
"h  c #3F3F3F",
"j  c #404040",
"k  c #414141",
"l  c #424242",
"z  c #434343",
"x  c #444444",
"c  c #454545",
"v  c #464646",
"b  c #474747",
"n  c #484848",
"m  c #494949",
"M  c #4A4A4A",
"N  c #4B4B4B",
"B  c #4C4C4C",
"V  c #4D4D4D",
"C  c #4E4E4E",
"Z  c #4F4F4F",
"A  c #505050",
"S  c #515151",
"D  c #525252",
"F  c #535353",
"G  c #545454",
"H  c #565656",
"J  c #575757",
"K  c #585858",
"L  c #595959",
"P  c #5A5A5A",
"I  c #5E5E5E",
"U  c #5F5F5F",
"Y  c #606060",
"T  c #616161",
"R  c #626262",
"E  c #636363",
"W  c #646464",
"Q  c #656565",
"!  c #666666",
"~  c #676767",
"^  c #686868",
"/  c #696969",
"(  c #6A6A6A",
")  c #6B6B6B",
"_  c #6C6C6C",
"`  c #6D6D6D",
"'  c #6E6E6E",
"]  c #6F6F6F",
"[  c #707070",
"{  c #717171",
"}  c #727272",
"|  c #737373",
" . c #747474",
".. c #767676",
"X. c #777777",
"o. c #797979",
"O. c #7B7B7B",
"+. c #7C7C7C",
"@. c #8B8B8B",
"#. c #8C8C8C",
"$. c #8D8D8D",
/* pixels */
"q t c t z c M 1 4 8 8 M M / #.@.| U h H B q : 8 z a 8 * : $ ",
"q h h M S c 8 1 8 8 h J S | #.#.| B h M t O 8 a 4 :     * 8 ",
"8 a a c z q z B z t h H B / @.#./ c c B 4 : 8 t 1 : 1 q a q ",
"c a z c : * z z B c J / c / #.@.Y z t t 4 q h h z a B S t 4 ",
"B t a t a c M M h a J S a W #.#./ H h 4 : 4 q a M z S h 4 c ",
"S M z z z t h z q 4 M 1 4 U #.#./ c q q 8 t 4 t H c t q z M ",
"S q t z h 4 z a 8 a M : : Y #.@./ z 8 8 : 4 8 c M h 8 z B M ",
"c 1 q 4 t t z h z M q $ t Y #.@.W t 1 1 q 4 1 t z 8 z J h z ",
"q 8 q 1 t a c h h M t 8 h / #.#.W a 8 q q O : : t B H a q h ",
"8 z q 8 q q S B H B z q t W #.#./ 8 t a 8 : a c h c c 4 4 h ",
"q q q h a z S M c z z c a W #.#.Y a B z q t 8 a h S z q h h ",
"h c t z t 8 c h B S c q M W #.#._ H q * q q 4 a a z h z h 8 ",
"z z t 1 : 8 t a c z q 4 q U #.#._ q 1 $ q q t z z z t q t 8 ",
"/ W Y U W _ | | / Y W Y Y O.#.#.+./ W W W / / / _ | / / W W ",
"#.#.#.#.#.#.#.#.#.#.#.#.#.#.@.@.#.#.#.#.#.#.#.#.#.#.#.#.#.#.",
"#.#.#.#.#.#.#.#.#.#.#.@.#.#.@.@.#.$.#.#.#.#.#.#.#.#.#.#.#.@.",
"_ W _ / O.| W _ / / | | | +.@.#.| Y U / | | _ W Y _ | W Y / ",
"q q a c B t 4 t a h q c t Y #.#.Y t h M M c 4 : t h z 4 t a ",
"h a a h a t t q h 8 $ 4 : U #.#./ S U t a a 4 h q S t 4 h h ",
"t M M z z h 8 q a 1 . q 1 U #.@.| z a 8 c h h h z M 4 q h 8 ",
"c M z h H M 8 h : : * t t W #.#.U 1 8 h c t h h c c h c z q ",
"a c a 8 t t 8 t : 4 t t h _ #.#.U 8 c M q 1 q 4 8 q q 8 4 4 ",
"8 h q 4 q z : O 8 h 8 t h / #.#.Y a M z 8 q q q c c a 8 1 h ",
"1 t a a c q 1 q t t 4 t a W #.#./ M t a t 4 : z M 4 q 8 q q ",
"a z a z h q a c a h z 8 q / #.#.W h q q 1 $ 1 t a 4 4 t q 4 ",
"h t t h t a B q t J c 8 a / #.#./ q a h 4 $ $ t M * 4 q : M ",
"t 4 h c q a c 8 c q 8 q 8 Y #.#.W q 1 4 : 4 1 h h . : 1 h z ",
"B c H z t 1 4 : : z h * : Y #.#._ a q a z h q 8 a : 1 q h h ",
"h h a h 4 h a q t M 4 1 8 Y #.#./ c c B S B t t h 8 t t a S ",
"h a h z 8 q t h a a 1 1 : Y #.#.W h h c a t q q 4 q t q M J "
};
