/* XPM */
static char *P0[] = {
/* columns rows colors chars-per-pixel */
"30 30 116 2",
"   c #050505",
".  c #010902",
"X  c #0B0B0B",
"o  c #011304",
"O  c #011B06",
"+  c #0F1310",
"@  c #131313",
"#  c #121812",
"$  c #181718",
"%  c #1B1B1B",
"&  c #01260A",
"*  c #012A0C",
"=  c #052F10",
"-  c #033211",
";  c #013B16",
":  c #0B3514",
">  c #142214",
",  c #222222",
"<  c #2B2B2B",
"1  c #203A27",
"2  c #253D2B",
"3  c #2B3C33",
"4  c #333433",
"5  c #343B36",
"6  c #343D38",
"7  c #383738",
"8  c #3C3C3C",
"9  c #01441B",
"0  c #00481F",
"q  c #0D411A",
"w  c #034D23",
"e  c #054F2B",
"r  c #0E4A22",
"t  c #0B4C2C",
"y  c #025027",
"u  c #02532B",
"i  c #02582F",
"p  c #0A502E",
"a  c #065431",
"s  c #015D34",
"d  c #0D5233",
"f  c #0B5931",
"g  c #174426",
"h  c #134C2E",
"j  c #19482D",
"k  c #134A32",
"l  c #164D3C",
"z  c #1C493A",
"x  c #105233",
"c  c #145138",
"v  c #1B5235",
"b  c #1C5C39",
"n  c #016237",
"m  c #00653A",
"M  c #00693E",
"N  c #24412A",
"B  c #2A402F",
"V  c #264233",
"C  c #25473F",
"Z  c #224B3B",
"A  c #2E413C",
"S  c #2E483B",
"D  c #225F39",
"F  c #2F503B",
"G  c #285E3F",
"H  c #324239",
"J  c #3A403C",
"K  c #39483C",
"L  c #24603A",
"P  c #006E42",
"I  c #017448",
"U  c #007A4C",
"Y  c #265440",
"T  c #2B5241",
"R  c #3F4543",
"E  c #395849",
"W  c #434343",
"Q  c #404D47",
"!  c #444C4A",
"~  c #4B4B4B",
"^  c #465351",
"/  c #475F56",
"(  c #535353",
")  c #575C5B",
"_  c #5B5B5B",
"`  c #546E5E",
"'  c #5D625F",
"]  c #50705D",
"[  c #5C7B61",
"{  c #636363",
"}  c #6C6C6C",
"|  c #747474",
" . c #7C7C7C",
".. c #018354",
"X. c #008C5C",
"o. c #019260",
"O. c #009865",
"+. c #009E69",
"@. c #00A36E",
"#. c #00A771",
"$. c #00AA74",
"%. c #00B67D",
"&. c #00BB81",
"*. c #00C186",
"=. c #00C78A",
"-. c #00C98C",
";. c #00D494",
":. c #00D897",
">. c #00DC9A",
",. c #00E29F",
"<. c #00E6A2",
"1. c #00ECA7",
"2. c #00EFA9",
"3. c #00F3AC",
"4. c #828282",
"5. c #8B8B8B",
/* pixels */
"4 4 W 4 W ! W < < < < ~ ~ } 5.5.| _ 8 ( ( < , 4 W 8 < , , % ",
"< W W ~ ( W < < < < 8 ) ^ ] [ [ ` ! W ~ 4 $ < 8 < , @ X , < ",
"< 8 8 W W 4 W ( W 5 3 T l b D D D z F R < , < 4 < % , 4 7 < ",
"W 8 W W , , 8 W ~ T l f p u s a i u p j N 4 8 W W 8 ~ ( 8 < ",
"~ 8 8 4 8 W ~ Q Z p i u u u u i u u u e r N 4 8 ~ W ( 8 < W ",
"( W W 8 W 4 J C t y u y u m M M n u u u w t 1 8 ) W 7 < W ~ ",
"( 4 4 W 8 < H k e u u M X.$.%.%.@.U s u u e j R ~ W < W ~ W ",
"W < 4 < 7 5 z p u u M @.;.<.2.1.,.=.X.s u w t B W < W ) W W ",
"4 4 4 , 5 3 k u u s +.>.3.3.3.3.3.1.=...u y w g 5 ~ _ 8 4 W ",
"< W 4 < 4 3 d u u I =.2.3.3.3.3.3.3.<.#.n u u v 6 W W < < 8 ",
"4 4 4 8 7 S d a u X.>.3.3.3.3.3.3.3.3.*.P u y h K ( W 4 8 W ",
"7 W 8 W 4 N p p u o.>.3.3.3.3.3.3.3.3.=.I u y k 6 W 8 W 8 < ",
"W 8 4 , , 1 t u a ..:.3.3.3.3.3.3.3.2.*.P u y l R W 7 4 7 < ",
"} { _ _ _ / b i u I &.2.3.3.3.3.3.3.,.@.s u f Y ' { { { { { ",
"4. . .| } ) Y p u s o.;.1.3.3.3.3.<.*.U u u d E { } |  . .4.",
"| } { _ W 8 3 t e w s O.=.<.<.1.>.%...i y y g 5 8 ( _ { } | ",
"( W 7 < , % > q w y u s U O.#.@.o.M u y y 9 : # $ , 4 8 W ~ ",
"$ @ @ X X     & 9 w y y y i s s i u y y 0 9 O       X X $ % ",
"$ X X X       . * ; 0 w y y y y y y w 0 ; o .     X     @ $ ",
"@ @ X           . O - ; 0 0 w 0 0 9 q * o             X X X ",
"@ @ X               . o & - : = * & o .           X X X X X ",
"X X X     X             . X @ @ X                 X       X ",
"X X       X               @ $ $ +   X           X X X     X ",
"  X X X X       X X     X @ , % $ X X   X       X       X X ",
"$ @ X X     X X X X X     @ , , $ X             X     X X + ",
", @ @ @ X X +     @ X   X $ , , $   X X         X   X X X , ",
", $ % , @ @ @ X X X       $ , % $             X @   X @ , < ",
"8 4 7 < $ + @ X X $ @     % < < % X X @ $ $ @ @ $ @ $ , < 4 ",
"4 4 < 4 % < , , , < @ @ @ 4 ~ ~ 4 , , , < < % , < , < < < ~ ",
"8 8 7 8 < < < < < , $ % $ W { { ~ < < 4 < < , < , < < < W ( "
};
