/* XPM */
static char *P1[] = {
/* columns rows colors chars-per-pixel */
"30 30 256 2",
"   c #0C0D0E",
".  c #050E12",
"X  c #0A151A",
"o  c #16191B",
"O  c #151718",
"+  c #020D37",
"@  c #071926",
"#  c #021B39",
"$  c #171D22",
"%  c #06222C",
"&  c #0D222A",
"*  c #052531",
"=  c #052936",
"-  c #062C3B",
";  c #0A2633",
":  c #0B2A35",
">  c #0A2D39",
",  c #05223E",
"<  c #06313E",
"1  c #0C313E",
"2  c #1A2328",
"3  c #122A34",
"4  c #132D39",
"5  c #1C2D35",
"6  c #142730",
"7  c #12303C",
"8  c #1C353F",
"9  c #1F3037",
"0  c #201F1F",
"q  c #232324",
"w  c #22292D",
"e  c #2C2C2C",
"r  c #252728",
"t  c #232D34",
"y  c #22353D",
"u  c #2A3135",
"i  c #2C3439",
"p  c #2A383E",
"a  c #323334",
"s  c #323639",
"d  c #33393C",
"f  c #3B3B3B",
"g  c #041449",
"h  c #051A56",
"j  c #141E4F",
"k  c #011967",
"l  c #07264A",
"z  c #032A56",
"x  c #053443",
"c  c #053C4C",
"v  c #0B3442",
"b  c #0A3D4E",
"n  c #0C3847",
"m  c #043E52",
"M  c #073555",
"N  c #163C4A",
"B  c #193C56",
"V  c #02226E",
"C  c #052A66",
"Z  c #01237B",
"A  c #032B74",
"S  c #022C7D",
"D  c #052774",
"F  c #03336E",
"G  c #013C64",
"H  c #05396B",
"J  c #023676",
"K  c #003B7B",
"L  c #05367C",
"P  c #183868",
"I  c #1D3D70",
"U  c #2B3C44",
"Y  c #233A46",
"T  c #273756",
"R  c #333D42",
"E  c #393F42",
"W  c #273767",
"Q  c #23367B",
"!  c #2A3B76",
"~  c #303E71",
"^  c #054355",
"/  c #0A4254",
"(  c #0A4659",
")  c #07475D",
"_  c #16404F",
"`  c #134454",
"'  c #154758",
"]  c #17515E",
"[  c #054264",
"{  c #064D63",
"}  c #094B65",
"|  c #02457E",
" . c #064773",
".. c #0A546A",
"X. c #09536A",
"o. c #02557E",
"O. c #095778",
"+. c #1A476C",
"@. c #1C4573",
"#. c #174A7B",
"$. c #14557D",
"%. c #14556A",
"&. c #076068",
"*. c #086477",
"=. c #057F78",
"-. c #186D76",
";. c #2C424C",
":. c #25414E",
">. c #264C5B",
",. c #294855",
"<. c #3C4145",
"1. c #3C464B",
"2. c #34454D",
"3. c #3C4B53",
"4. c #334B56",
"5. c #3D525D",
"6. c #30505D",
"7. c #254966",
"8. c #2B437E",
"9. c #264677",
"0. c #2A5668",
"q. c #2F5A7C",
"w. c #334F69",
"e. c #384A7A",
"r. c #325463",
"t. c #3C5662",
"y. c #3B5866",
"u. c #375868",
"i. c #385779",
"p. c #26647A",
"a. c #3C6274",
"s. c #246369",
"d. c #444545",
"f. c #434A4D",
"g. c #48494A",
"h. c #40444B",
"j. c #424D53",
"k. c #494B53",
"l. c #43535B",
"z. c #4C565C",
"x. c #485155",
"c. c #53575A",
"v. c #454B65",
"b. c #454B77",
"n. c #455E6C",
"m. c #475A64",
"M. c #435874",
"N. c #535968",
"B. c #4C606B",
"V. c #466575",
"C. c #5D656A",
"Z. c #576978",
"A. c #5C737E",
"S. c #626465",
"D. c #656E74",
"F. c #67747B",
"G. c #73777C",
"H. c #012988",
"J. c #022D93",
"K. c #033C8C",
"L. c #043897",
"P. c #1D3B8A",
"I. c #11339B",
"U. c #0438A4",
"Y. c #273B86",
"T. c #263F9C",
"R. c #303B85",
"E. c #293FA5",
"W. c #014584",
"Q. c #02438C",
"!. c #0F418D",
"~. c #074987",
"^. c #054798",
"/. c #015886",
"(. c #025597",
"). c #194586",
"_. c #194A9B",
"`. c #185785",
"'. c #1F599A",
"]. c #0346A5",
"[. c #0858AA",
"{. c #194CA5",
"}. c #047F94",
"|. c #136A82",
" X c #167082",
".X c #107E9A",
"XX c #08658F",
"oX c #2A4886",
"OX c #274797",
"+X c #2D5484",
"@X c #2C559B",
"#X c #265993",
"$X c #364585",
"%X c #31429F",
"&X c #374998",
"*X c #365687",
"=X c #32539C",
"-X c #3E5593",
";X c #375898",
":X c #2849A6",
">X c #334CB0",
",X c #355AA2",
"<X c #3950B2",
"1X c #22749F",
"2X c #37629E",
"3X c #307384",
"4X c #455986",
"5X c #435294",
"6X c #485B9D",
"7X c #565F9F",
"8X c #445DAB",
"9X c #4559A1",
"0X c #425FB1",
"qX c #496E8A",
"wX c #4B6B95",
"eX c #44748E",
"rX c #536B8A",
"tX c #55708C",
"yX c #58729F",
"uX c #586797",
"iX c #4C6DAB",
"pX c #4B66B7",
"aX c #5069B7",
"sX c #5672AA",
"dX c #576BAB",
"fX c #667486",
"gX c #617690",
"hX c #737B82",
"jX c #646892",
"kX c #03848A",
"lX c #068E8D",
"zX c #058393",
"xX c #029CB5",
"cX c #0499AA",
"vX c #05AD8F",
"bX c #04AC94",
"nX c #11BB92",
"mX c #03A1A1",
"MX c #0AAAB6",
"NX c #05BFA9",
"BX c #03B6B7",
"VX c #0EB1C4",
"CX c #0DC7A5",
"ZX c #09C7B8",
"AX c #0CD2AE",
"SX c #08D2B0",
"DX c #12C2B2",
"FX c #6B818D",
"GX c #688199",
"HX c #7A858C",
"JX c #778790",
"KX c #7B8FAC",
"LX c #758AB5",
"PX c #808385",
"IX c #84929B",
"UX c #8294A1",
/* pixels */
"a s x.r.l.B.m.>.U U U x.k.D.IXIXFXZ.1.c.B.u.Y e d.1.2.N Y 5 ",
"i h.<.z.V.n.U Y U p 5.N.N.fXIXUXGXM.h.g.5.%.4.f i ' ' 4 t p ",
"i <.<.l.t.d d.n.a.q.*XV.v.jXUXLXdXb.v.k.Y y a a u t >.,.s d ",
"f.<.3.m.t q 1.V.qX2XpX7X-XaXLXLXpX&XR.! Q T 3.3.3.<.B.V.<.u ",
"z.R 5.r.5.f.n.V.&X:X8X5X%XpXLXKXaX<X%XQ P.oX+Xq.n.j.m.u.;.d.",
"c.j.t.a.a.4.3.*XE.Y.b.P._.iXLXLXaX>X:XoXoXOX#X;XqXV.4.4.j.x.",
"z.;.2.j.u.0.*X@XT.oX4XoX`.eXdXsXwX@XOXY.I ! 9.*X-Xi.4.5.B.B.",
"m.>.2.u 2.w.2X*Xe.5X:X^.|.p.p.q.s.|.).W Q W I R.$XT m.Z.5.3.",
";.0.r.,.w.oX-X8.$X4X'.[...p.lX2X-.*.O.@.W B I Y.8.4XrXy.2.<.",
"i 3.r.0.0.@X6X5X6X3X-.XX=.nXDXVXMX}.[.`.9.@.q.-X-X;Xi.7.,.j.",
"s d 4.u.e.=XpX&X$Xp.-.}.DXAXZXAXZXVX.XO.#.T.Y.@X*X4Xy.2.t.a.",
"E g.4.l.! OX>X%Xv.0.|.cXSXAXDXAXZXZXvX*._.P.Y.@X=X,X*Xj.t.,.",
"j.3.r.7.Y oX:XR.1.] (.MXBXBXCXCXMXBXvX*.^.9.oX,X2X;Xq.6.2.u ",
"D.D.A.qXrXtXiXwXi.@...kXxXMXbXbXmXvXlXO.7.4X9X8XuXuXD.tXC.S.",
"PXHXhXGXgXrX9X;X;X)./ &.zXzXkXzX}.=./.(.@.$X5X9X7XjXG.HXJXPX",
"hXF.D.Z.;X*XOX_.{.{.o././.XX/.o./.^ F (.!.)._.T.%Xb.C.D.fXG.",
"z.f.2.r.`.$.P.U.].L.o.o.(.^.G [ K.S L.(.W. .L.I.I.B R E 1.m.",
"8 3 3 n ( m l J ].A ^ o.W.K.G  .K Z H.W./.W.H.Z Z M 4   o N ",
"N 7 < x x # + z ^.V z K.Z D W.^.A k Z L.].^.J.L.A M < % 6 ' ",
"/ 4 ( X.- @ g C W.k Z U.Z l [ L.H.V H.].].J.J.L.g @ c ^ ' ..",
"N 6 : c x - # C (.H H.Z h l l D S H.U.].K.H.J.G * & c / n b ",
"X X X % = = X # | ~.| J Z C j  .^.L.J.!.Q.A H.G ^ { ) / % ; ",
". > x c c * @ = l z [ L ^.!.+._.[.Q.C H.Q.S D [ ....c * x > ",
". v > b X.^ * ^ / < } H M M +.).).H z k H  .[ ..( < % @ ; X ",
"o 6 X n X.{ / { / < { / @ j I T 4 @ g h - ) X.X.< X x % .   ",
"q $ O $ / / } { > ` ..^ X o 9 N 4 @ @ ; * = { { x < ^ : $ e ",
"q O 2 2 6 3 ] { / ^ { / > 6 8 :.7 v M < % . c } ` ^ b 7 e r ",
"f a f u 2   & 6 : ` _ % & 6 ;.p w v } ' ` 2 n ] ' 3 & r e e ",
"a a a a o e r 0 0 u 6 o o s g.g.s w Y >.r.Y y 9 u q r e e g.",
"f f f f r e e e e r o O O g.S.S.x.U u 2.U y t w q e e e d.c."
};
