/* XPM */
static char *WA[] = {
/* columns rows colors chars-per-pixel */
"30 30 33 1",
"  c #040203",
". c #090606",
"X c #090708",
"o c #0D090A",
"O c #120D0E",
"+ c #140F10",
"@ c #161112",
"# c #191415",
"$ c #1C1718",
"% c #1E191A",
"& c #211C1D",
"* c #241F20",
"= c #262122",
"- c #2A2425",
"; c #2D2728",
": c #2E282A",
"> c #312C2D",
", c #352F31",
"< c #363132",
"1 c #3A3536",
"2 c #3C3738",
"3 c #3E393A",
"4 c #423C3D",
"5 c #453F40",
"6 c #454041",
"7 c #494344",
"8 c #4C4748",
"9 c #4E484A",
"0 c #524C4D",
"q c #595455",
"w c #5F5A5B",
"e c #625C5E",
"r c #666061",
/* pixels */
"OOo@&&&&&*&+O+.@;-;4&+@$@$@@#@",
".  O+&&&&&&&oo.:5444*@$@$@@$##",
"  +->;&#++oO. .4>=4;&$@$$@$@@#",
"&-44<:&&&;4; &e7&==&@@@$@@#$##",
"14<&&&&&->-&.48&#*&@@#@#$##+##",
";=&@&@@&$$Oo&1-&&&&&#@@#@@#+##",
"$#@@@#@@#@$&>@$&&$@&&###&$@&##",
"####+&+&@@$&& #-&&##&#@#$#o$@@",
"#@#$#*@%&&&$oo18&@#@Ooo+OOO$$@",
"#@%=*# #&=#.  o*#@&&&&&+#@&&&@",
"%=%+XX%<&$  #:124<<&&&&&&#$&$$",
"@#@ $31-&O @ee084:&&&@@#&#$$@#",
"$o@>1:-$& .>q:&#O@&@@@@#####@#",
"398<@%:#. @:6&##&#@@###@###&$$",
"o+oo #:o .$<4%@##+&@###&####$&",
"o@@@@%o o9rq>$@##@@@@&&#######",
"898<11@:6q3=########+#%@O@#$$$",
",--&-,+-56;%##@#####@#@o@#$$$$",
"@$$&:&X:5<-%#%#@@##@####%$#$$&",
"@@%&$X+03-:=#####@@#####%$$$$$",
"##OO+X%6>-1<&%#$@#@###$###%&%$",
"#&=&oX:3###@X@=&@$$#$##$#@####",
"+#oXX<e8@&;=+oo +,&#$####@##@#",
"##=<:6<+>q61%##&94&&$#@@@##%%&",
"+#&:>1-X<4=&#%;29>%$@OO@#$#$$$",
"###@@%@O=>&=%@;:>&@OO#$%$$&=%$",
"#####Oo%-1&%+o&><=:;-*&&&=&%$$",
"$###@%<*o=%X @2,@X-#@%==&$@  X",
"$&&==&O  %+  XOoX#%oX.$#O  o%-",
"&%oO$X X%2>+==&=>151:$o  .#>78"
};
