/* XPM */
static char *X0[] = {
/* columns rows colors chars-per-pixel */
"30 30 104 2",
"   c #000000",
".  c #010101",
"X  c #020202",
"o  c #030303",
"O  c #040404",
"+  c #050505",
"@  c #060606",
"#  c #070707",
"$  c #080808",
"%  c #090909",
"&  c #0A0A0A",
"*  c #0B0B0B",
"=  c #0C0C0C",
"-  c #0D0D0D",
";  c #0E0E0E",
":  c #0F0F0F",
">  c #101010",
",  c #111111",
"<  c #121212",
"1  c #131313",
"2  c #141414",
"3  c #151515",
"4  c #161616",
"5  c #171717",
"6  c #181818",
"7  c #191919",
"8  c #1A1A1A",
"9  c #1B1B1B",
"0  c #1C1C1C",
"q  c #1D1D1D",
"w  c #1E1E1E",
"e  c #1F1F1F",
"r  c #202020",
"t  c #212121",
"y  c #222222",
"u  c #232323",
"i  c #242424",
"p  c #252525",
"a  c #262626",
"s  c #272727",
"d  c #282828",
"f  c #292929",
"g  c #2A2A2A",
"h  c #2B2B2B",
"j  c #2C2C2C",
"k  c #2D2D2D",
"l  c #2E2E2E",
"z  c #2F2F2F",
"x  c #303030",
"c  c #313131",
"v  c #323232",
"b  c #333333",
"n  c #343434",
"m  c #353535",
"M  c #363636",
"N  c #373737",
"B  c #383838",
"V  c #393939",
"C  c #3A3A3A",
"Z  c #3B3B3B",
"A  c #3C3C3C",
"S  c #3D3D3D",
"D  c #3E3E3E",
"F  c #3F3F3F",
"G  c #404040",
"H  c #414141",
"J  c #424242",
"K  c #434343",
"L  c #444444",
"P  c #454545",
"I  c #464646",
"U  c #474747",
"Y  c #484848",
"T  c #494949",
"R  c #4A4A4A",
"E  c #4B4B4B",
"W  c #4C4C4C",
"Q  c #4D4D4D",
"!  c #4F4F4F",
"~  c #505050",
"^  c #515151",
"/  c #525252",
"(  c #545454",
")  c #555555",
"_  c #565656",
"`  c #575757",
"'  c #595959",
"]  c #5A5A5A",
"[  c #5B5B5B",
"{  c #5F5F5F",
"}  c #626262",
"|  c #646464",
" . c #656565",
".. c #666666",
"X. c #696969",
"o. c #6A6A6A",
"O. c #6B6B6B",
"+. c #6C6C6C",
"@. c #737373",
"#. c #787878",
"$. c #797979",
"%. c #8B8B8B",
"&. c #8C8C8C",
"*. c #8D8D8D",
/* pixels */
"c m P m K E P d j j j E E X.&.&.#.[ F _ W c u j P V c 0 u 7 ",
"c F F E ^ P j d j c F _ E | #.#.| P F E m 2 d F j u - 1 u j ",
"j F V P K j K W K c c V c K _ _ K d j F u u c m d u d c m c ",
"K V K P u u F K F d c V u d F F j 7 7 0 7 u V F K V W ^ V d ",
"W m V m V P K c u 0 u 0 - u m c u 0 2 - $ 2 u c E K ^ F d P ",
"^ E K K K j u u 1 $ 7 $ $ 0 c c u 2 1 - - 1 1 u E P m c K W ",
"^ c m K m 7 0 2 $ 1 7 + o 2 u u 2 - - $ $ $ - u j V c F W E ",
"K d c d u 0 7 1 2 2 $ o + 1 7 7 1 + o + - - $ 1 u 0 F ] F K ",
"m j c 0 0 2 2 1 - - + + + 2 7 7 1 + + + + + + $ 2 d P V c K ",
"j P c 7 7 - 7 7 - - $ + + $ 1 1 $ + + + + o - 2 2 u j u d F ",
"c c d u 1 1 0 - $ $ $ + o $ $ - + + + + + + $ 1 1 u u d K F ",
"V P u u 1 $ 2 $ - $ + + + + - $ + + o o + + + - 1 1 0 j F j ",
"K V u 1 + $ $ $ $ $ o o o o o + + o o o + + + - 1 2 7 u c d ",
"X.] F u u u 0 2 2 $ + $ o o + + + + + + $ 1 1 2 u u j F ] | ",
"&.#._ F c c u 7 7 1 - $ + o + o + + - - 1 7 7 u c c F _ #.&.",
"&.#._ F m j u 7 7 1 - $ + + + + + + - $ 1 7 7 u c c F _ #.&.",
"O.] P j j u 7 1 1 - $ $ + o + + + + + $ - 2 2 7 u u c K _ X.",
"c j u 0 7 1 + + + + o o o o + + + o o o + $ + + - 1 0 7 c m ",
"V m d 0 1 1 - + + o o o o + $ - + + + o + + + 1 - 0 7 0 F F ",
"V E F u 2 1 $ $ + o o o o + - - $ + + o $ $ $ 1 2 0 2 d F j ",
"P E F u d 7 $ 1 + o o + o $ 1 1 $ o + $ $ $ 1 1 2 u u K K c ",
"V P V u 0 2 $ 1 + + + + + 1 7 7 1 + $ $ $ + - $ 1 0 u j d d ",
"c F c d u u $ + $ 1 + $ $ 1 0 0 1 + $ - $ - - 1 u j m j d K ",
"u m V V F 0 1 1 1 1 $ - $ 2 0 u 7 - - - 1 $ - 0 j u c c c c ",
"V K V K V j u u 1 1 2 $ - u c c u 1 - - $ $ 2 u c d d m c d ",
"K m m F m F P u 0 d 7 - 1 u c m u $ 1 2 - 1 2 j E u d c u E ",
"m j F P c V E d m 0 7 2 2 d F F d 2 1 2 1 0 u F F 1 u d F F ",
"W P _ K m u d u u F m 2 2 V _ _ K u u c K F c j V u u m F F ",
"F F V F d F V m V E j u j _ #.#.[ F K W ^ W m c F j m m V ^ ",
"F V F K j m m F V m u d u } &.&.X.F F K F c c c j m m c E ] "
};
