/* XPM */
static char *X1[] = {
/* columns rows colors chars-per-pixel */
"30 30 144 2",
"   c #000000",
".  c #010100",
"X  c #010101",
"o  c #020201",
"O  c #020202",
"+  c #030302",
"@  c #030303",
"#  c #040403",
"$  c #040404",
"%  c #050505",
"&  c #060605",
"*  c #060606",
"=  c #070707",
"-  c #02010E",
";  c #03010E",
":  c #07070A",
">  c #080808",
",  c #090909",
"<  c #08080B",
"1  c #090A09",
"2  c #0A0A0A",
"3  c #0B0B0A",
"4  c #0B0B0B",
"5  c #0C0C0C",
"6  c #0D0D0C",
"7  c #0D0D0D",
"8  c #0E0E0E",
"9  c #0F0F0F",
"0  c #050310",
"q  c #050311",
"w  c #050410",
"e  c #060511",
"r  c #070512",
"t  c #0D0C14",
"y  c #0D0C15",
"u  c #0D0D15",
"i  c #10100F",
"p  c #101010",
"a  c #111111",
"s  c #121212",
"d  c #131313",
"f  c #141414",
"g  c #151515",
"h  c #161616",
"j  c #171717",
"k  c #181818",
"l  c #191919",
"z  c #1A1A1A",
"x  c #1B1B1B",
"c  c #1C1C1C",
"v  c #1D1D1D",
"b  c #1E1E1E",
"n  c #1F1F1F",
"m  c #0D0634",
"M  c #0E0634",
"N  c #0E0734",
"B  c #0C023C",
"V  c #0C023D",
"C  c #0F0835",
"Z  c #202020",
"A  c #212121",
"S  c #222222",
"D  c #232323",
"F  c #242424",
"G  c #252525",
"H  c #262626",
"J  c #272727",
"K  c #282828",
"L  c #292929",
"P  c #2A2A2A",
"I  c #2B2B2B",
"U  c #2C2C2C",
"Y  c #2D2D2D",
"T  c #2E2E2E",
"R  c #2F2F2F",
"E  c #303030",
"W  c #313131",
"Q  c #323232",
"!  c #333333",
"~  c #343434",
"^  c #353535",
"/  c #363636",
"(  c #373737",
")  c #383838",
"_  c #393939",
"`  c #3A3A3A",
"'  c #3B3B3B",
"]  c #3C3C3C",
"[  c #3D3D3D",
"{  c #3E3E3E",
"}  c #3F3F3F",
"|  c #130946",
" . c #130A46",
".. c #140B46",
"X. c #140256",
"o. c #150356",
"O. c #150456",
"+. c #200460",
"@. c #210560",
"#. c #210660",
"$. c #330371",
"%. c #340371",
"&. c #404040",
"*. c #414141",
"=. c #424242",
"-. c #434343",
";. c #444444",
":. c #454545",
">. c #464646",
",. c #474747",
"<. c #484848",
"1. c #494949",
"2. c #4A4A4A",
"3. c #4B4B4B",
"4. c #4C4C4C",
"5. c #4D4D4D",
"6. c #4F4F4F",
"7. c #505050",
"8. c #515151",
"9. c #525252",
"0. c #545454",
"q. c #555555",
"w. c #565656",
"e. c #575757",
"r. c #595959",
"t. c #5A5A5A",
"y. c #5B5B5B",
"u. c #5F5F5F",
"i. c #626262",
"p. c #646464",
"a. c #656565",
"s. c #666666",
"d. c #696969",
"f. c #6A6A6A",
"g. c #6B6B6B",
"h. c #6C6C6C",
"j. c #737373",
"k. c #787878",
"l. c #797979",
"z. c #540391",
"x. c #6702A6",
"c. c #8B8B8B",
"v. c #8C8C8C",
"b. c #8D8D8D",
/* pixels */
"W ^ :.^ -.3.:.K U U U 3.3.d.v.v.j.u.] w.7.W D U ;._ E n D l ",
"W } } 3.8.:.U K U W } w.3.p.k.k.p.:.} <.^ h U ] U D 9 9 D U ",
"U } _ :.-.U -.4.-.W W _ W -.w.w.-.I U } D D R ^ K Z K W ( W ",
"-._ -.:.D D } -.} K W _ D K } } I x l c l D _ } -.' 4.7._ K ",
"4.^ _ ^ _ :.-.W D c D c 7 D ^ W D c g 7 3 f Z W 2.-.7.} I -.",
"8.3.-.-.-.U D D d > l > > c W W F f 9 5 3 d d D 2.>.( W -.2.",
"8.W ^ -.^ l c f 4 d l % + f D D h 7 3 3 > 3 9 D R ) R } 4.3.",
"-.K W K D c l d d d > + % d l l d % # % 7 3 > i D c } t.} -.",
"^ U ~ l c f f d 7 7 % % > d l l i * # % % # % < d I :._ ! } ",
"U -.W x j 7 c f d > > # # > i d 3 # % * # # 9 f d D I F K } ",
"W W K D d f x 9 > > : % + : t t < # % % % % > d d n D J &.&.",
"_ -.D D i 4 f > > 7 % + ; m  . .C ; + + % % % 7 i f n U } U ",
":._ D i % > > > > % + ; V o.+.+.O.V ; + # # % 7 f f l n ! I ",
"d.t.} K D D c f f > : m o.%.z.z.%.O.N < 3 d d f D J I -.e.p.",
"v.k.w.} ~ W D c l d t  .+.z.x.x.z.+...t 9 x x D R W } w.k.v.",
"v.k.8.} W U D c l i t  .+.z.x.x.z.#...t 9 l x D W W } w.k.c.",
"h.t.-.U K J j d d 4 4 M o.$.z.z.%.O.m < 5 g g f D D E } w.d.",
"W U D D x 9 % % % % + 0 B o.+.+.O.V e # % > % % 9 d c l ! _ ",
"} ^ D c d d 7 % % # + + ; m  . .C e % + * % % p 7 c h x ' } ",
"( 3.} D f d > > % + + + + : t t < # # # > < 5 d f x f I ] E ",
":.3.} D K l > d % + + % # 4 7 d > + % > > > p d h Z J } -.W ",
"_ :._ D c f > d > % % % % d l l d % > > * % 7 3 9 c D R K I ",
"W } W J D D > % 4 9 = = > f l x p % 3 3 > 7 5 9 D U ! R J -.",
"D ^ _ _ } c d d d i > 7 > f D D k 9 5 p 9 3 3 Z U D ! R R ! ",
"} -._ -.} I D D d d f 7 7 D W W D d 5 7 < * f Z ! I I ~ ! J ",
"} ^ ^ } ^ _ :.D l K k 7 d D W W D 5 d f d p f R <.Z K W D 2.",
"^ I } :.~ _ 3.K ^ D l f f K } } I g p f g c D } } d D J } } ",
"4.:.w.-.^ D K D D } W f f _ w.w.-.D D W } ] W R ' D D ! } } ",
"} } _ } K } _ ~ ^ 3.U D U w.k.k.t.} -.4.8.4.^ ~ } U ~ ^ _ 8.",
"} _ } -.U ^ ^ } _ ^ D J D i.v.v.d.] } ;.' ~ W W I ^ ! ! 3.t."
};
